<svg width="750" height="500" viewBox="0 0 750 500" fill="none" xmlns="http://www.w3.org/2000/svg">
<path d="M697.92 156C688.34 135.61 675.51 117 658.8 101.47C601.32 48.0702 503.8 39.3202 422.74 61.7202C398.79 68.3402 375.35 78.2202 354.37 92.4502C339.12 102.79 325.47 115.28 310.26 125.66C294.26 136.57 276.77 136.07 259.2 134.34C233.913 131.847 208.793 128.633 183.84 124.7C162.11 121.27 141.92 116.31 119.04 121.33C80.3899 129.84 45.9999 160.06 28.8999 194.87C7.46994 238.58 9.28994 287.83 21.9999 331C26.4099 346 32.2399 360.61 33.2199 376.53C34.2199 393.08 38.9299 410.15 49.4799 422.87C61.7599 437.66 83.7299 443.6 102.81 448.11C139.81 456.87 179.72 454.64 218.64 447.36C255.3 440.5 293.72 427.54 330.94 428.91C372.7 430.45 409.68 448.83 449.46 458.14C485.06 466.47 523.08 467.76 560.84 462.95C595.1 458.58 632.95 450.95 661.35 427.7C736.35 366.19 732.05 257.29 708.23 182.82C705.374 173.668 701.93 164.709 697.92 156Z" fill="#263238"/>
<path opacity="0.7" d="M697.92 156C688.34 135.61 675.51 117 658.8 101.47C601.32 48.0702 503.8 39.3202 422.74 61.7202C398.79 68.3402 375.35 78.2202 354.37 92.4502C339.12 102.79 325.47 115.28 310.26 125.66C294.26 136.57 276.77 136.07 259.2 134.34C233.913 131.847 208.793 128.633 183.84 124.7C162.11 121.27 141.92 116.31 119.04 121.33C80.3899 129.84 45.9999 160.06 28.8999 194.87C7.46994 238.58 9.28994 287.83 21.9999 331C26.4099 346 32.2399 360.61 33.2199 376.53C34.2199 393.08 38.9299 410.15 49.4799 422.87C61.7599 437.66 83.7299 443.6 102.81 448.11C139.81 456.87 179.72 454.64 218.64 447.36C255.3 440.5 293.72 427.54 330.94 428.91C372.7 430.45 409.68 448.83 449.46 458.14C485.06 466.47 523.08 467.76 560.84 462.95C595.1 458.58 632.95 450.95 661.35 427.7C736.35 366.19 732.05 257.29 708.23 182.82C705.374 173.668 701.93 164.709 697.92 156Z" fill="white"/>
<path d="M205.94 50.1099C211.83 50.1099 217.48 52.4498 221.645 56.615C225.81 60.7802 228.15 66.4294 228.15 72.3199V86.9999H183.72V72.3199C183.72 66.4294 186.06 60.7802 190.225 56.615C194.39 52.4498 200.04 50.1099 205.93 50.1099H205.94Z" fill="white" stroke="#263238" stroke-linecap="round" stroke-linejoin="round"/>
<path d="M205.94 50.11V25.5" stroke="#263238" stroke-linecap="round" stroke-linejoin="round"/>
<path d="M527.86 50.1099C533.75 50.1099 539.4 52.4498 543.565 56.615C547.73 60.7802 550.07 66.4294 550.07 72.3199V86.9999H505.64V72.3199C505.64 69.4024 506.215 66.5134 507.332 63.8182C508.448 61.1229 510.085 58.674 512.149 56.6115C514.212 54.549 516.662 52.9132 519.358 51.7976C522.053 50.6821 524.942 50.1086 527.86 50.1099Z" fill="white" stroke="#263238" stroke-linecap="round" stroke-linejoin="round"/>
<path d="M527.86 50.11V25.5" stroke="#263238" stroke-linecap="round" stroke-linejoin="round"/>
<path d="M691.53 82.6099H567.71V233.95H691.53V82.6099Z" fill="white" stroke="#263238" stroke-linecap="round" stroke-linejoin="round"/>
<path d="M691.53 82.6099H567.71V233.95H691.53V82.6099Z" fill="white" stroke="#263238" stroke-linecap="round" stroke-linejoin="round"/>
<path d="M691.53 82.6099V141.15C684.128 148.682 675.309 154.673 665.58 158.78C633.46 171.78 591.76 157.41 615.68 111.62C620.682 102.19 625.198 92.511 629.21 82.6199L691.53 82.6099Z" fill="white" stroke="#263238" stroke-linecap="round" stroke-linejoin="round"/>
<path d="M691.53 178.31V234H681.13C666.25 228.84 650 220.87 647.81 210C644.85 195.22 674.74 183.61 691.53 178.31Z" fill="white" stroke="#263238" stroke-linecap="round" stroke-linejoin="round"/>
<path d="M618.92 234H567.71V210.53C589.26 189.62 621.89 161.92 627.3 179.97C633.5 200.62 620.59 221.65 618.92 234Z" fill="white" stroke="#263238" stroke-linecap="round" stroke-linejoin="round"/>
<path d="M601.33 137.59C601.33 146.75 583 152.65 567.71 155.99V102C580.39 110.68 601.33 126.63 601.33 137.59Z" fill="white" stroke="#263238" stroke-linecap="round" stroke-linejoin="round"/>
<path d="M645.42 145.11C655.046 145.11 662.85 137.919 662.85 129.05C662.85 120.18 655.046 112.99 645.42 112.99C635.794 112.99 627.99 120.18 627.99 129.05C627.99 137.919 635.794 145.11 645.42 145.11Z" fill="white" stroke="#263238" stroke-linecap="round" stroke-linejoin="round"/>
<path d="M600 169C600 172 597.24 174.46 593.84 174.46C590.44 174.46 587.69 172.02 587.69 169C587.69 165.98 590.45 163.53 593.84 163.53C597.23 163.53 600 166 600 169Z" fill="white" stroke="#263238" stroke-linecap="round" stroke-linejoin="round"/>
<path d="M654 185.44C654 186.927 653.559 188.381 652.733 189.618C651.906 190.854 650.732 191.818 649.358 192.387C647.984 192.957 646.472 193.106 645.013 192.815C643.554 192.525 642.214 191.809 641.163 190.757C640.111 189.706 639.395 188.366 639.104 186.907C638.814 185.448 638.963 183.936 639.532 182.562C640.102 181.188 641.065 180.014 642.302 179.187C643.539 178.361 644.993 177.92 646.48 177.92C648.474 177.92 650.387 178.712 651.797 180.122C653.208 181.533 654 183.445 654 185.44Z" fill="white" stroke="#263238" stroke-linecap="round" stroke-linejoin="round"/>
<path d="M669.68 206.63C669.68 207.172 669.519 207.702 669.217 208.153C668.916 208.604 668.487 208.955 667.986 209.162C667.485 209.369 666.933 209.423 666.402 209.316C665.87 209.21 665.382 208.948 664.999 208.564C664.616 208.179 664.356 207.69 664.251 207.158C664.147 206.626 664.202 206.075 664.411 205.574C664.62 205.074 664.973 204.646 665.425 204.347C665.877 204.047 666.408 203.888 666.95 203.89C667.309 203.89 667.665 203.961 667.997 204.098C668.329 204.236 668.63 204.438 668.884 204.693C669.138 204.947 669.338 205.249 669.475 205.582C669.612 205.914 669.681 206.27 669.68 206.63Z" fill="white" stroke="#263238" stroke-linecap="round" stroke-linejoin="round"/>
<path d="M621.455 112.604C626.527 107.531 626.527 99.3061 621.454 94.2332C616.382 89.1602 608.157 89.1602 603.084 94.2331C598.011 99.3061 598.011 107.531 603.084 112.604C608.157 117.677 616.382 117.677 621.455 112.604Z" fill="white" stroke="#263238" stroke-linecap="round" stroke-linejoin="round"/>
<path d="M651.14 316.68C656.746 316.68 661.29 304.766 661.29 290.07C661.29 275.374 656.746 263.46 651.14 263.46C645.534 263.46 640.99 275.374 640.99 290.07C640.99 304.766 645.534 316.68 651.14 316.68Z" fill="#263238" stroke="#263238" stroke-miterlimit="10"/>
<path d="M619.62 273.66C622.79 283.66 628.88 290.61 633.23 289.23C637.58 287.85 638.52 278.64 635.35 268.66C632.18 258.68 626.09 251.66 621.74 253.08C617.39 254.5 616.45 263.67 619.62 273.66Z" fill="#263238" stroke="#263238" stroke-miterlimit="10"/>
<path d="M694.06 333.85C704.39 332.1 712.15 327.04 711.39 322.55C710.63 318.06 701.63 315.83 691.31 317.55C680.99 319.27 673.23 324.36 673.99 328.85C674.75 333.34 683.74 335.6 694.06 333.85Z" fill="#263238" stroke="#263238" stroke-miterlimit="10"/>
<path d="M610.07 309.25C618.69 317.8 628.88 321.51 632.83 317.53C636.78 313.55 632.98 303.4 624.36 294.84C615.74 286.28 605.54 282.58 601.59 286.56C597.64 290.54 601.44 300.69 610.07 309.25Z" fill="#263238" stroke="#263238" stroke-miterlimit="10"/>
<path d="M669.5 285.78C661.16 297.89 658.68 310.64 663.95 314.28C669.22 317.92 680.27 311.05 688.61 298.95C696.95 286.85 699.43 274.09 694.16 270.46C688.89 266.83 677.84 273.68 669.5 285.78Z" fill="#263238" stroke="#263238" stroke-miterlimit="10"/>
<path d="M650.43 315.35L649.65 396.31" stroke="#263238" stroke-miterlimit="10" stroke-linecap="round"/>
<path d="M651.38 280.17L650.43 315.35" stroke="#263238" stroke-miterlimit="10" stroke-linecap="round"/>
<path d="M651.31 274.43L651.38 277.13" stroke="#263238" stroke-miterlimit="10" stroke-linecap="round"/>
<path d="M664 312.55C658.186 324.59 654.789 337.653 654 351V401" stroke="#263238" stroke-miterlimit="10" stroke-linecap="round"/>
<path d="M681.42 285.89C674.457 293.965 668.599 302.931 664 312.55" stroke="#263238" stroke-miterlimit="10" stroke-linecap="round"/>
<path d="M686.9 280.09C686.9 280.09 685.9 281.09 684.12 282.89" stroke="#263238" stroke-miterlimit="10" stroke-linecap="round"/>
<path d="M632.2 316.31C639.319 326.304 644.866 337.328 648.65 349" stroke="#263238" stroke-miterlimit="10" stroke-linecap="round"/>
<path d="M620.53 302.89C624.825 306.994 628.732 311.487 632.2 316.31" stroke="#263238" stroke-miterlimit="10" stroke-linecap="round"/>
<path d="M608.06 293.4C611.232 295.186 614.211 297.294 616.95 299.69" stroke="#263238" stroke-miterlimit="10" stroke-linecap="round"/>
<path d="M632.63 286.76C638.25 304.45 645.79 330.59 649.31 353.27" stroke="#263238" stroke-miterlimit="10" stroke-linecap="round"/>
<path d="M629.2 276.27C630.2 279.27 631.37 282.79 632.63 286.76" stroke="#263238" stroke-miterlimit="10" stroke-linecap="round"/>
<path d="M625.69 266.12C625.69 266.12 626.69 268.83 628.26 273.47" stroke="#263238" stroke-miterlimit="10" stroke-linecap="round"/>
<path d="M674.51 326.43C667.51 329.09 657.88 336.52 654.51 346.25" stroke="#263238" stroke-miterlimit="10" stroke-linecap="round"/>
<path d="M687.48 323.79C683.038 324.011 678.656 324.901 674.48 326.43" stroke="#263238" stroke-miterlimit="10" stroke-linecap="round"/>
<path d="M695.88 324C695.88 324 694.63 323.82 692.57 323.74" stroke="#263238" stroke-miterlimit="10" stroke-linecap="round"/>
<path d="M673.81 372.77C683.3 377.2 692.56 377.44 694.48 373.31C696.4 369.18 690.28 362.24 680.79 357.81C671.3 353.38 662.04 353.13 660.11 357.26C658.18 361.39 664.32 368.33 673.81 372.77Z" fill="#263238" stroke="#263238" stroke-miterlimit="10"/>
<path d="M674.11 360.75C670.337 358.414 666.235 356.657 661.94 355.54C660.953 354.937 659.814 354.628 658.658 354.649C657.501 354.67 656.374 355.021 655.41 355.66C654.12 356.52 654.55 362.94 654.55 362.94V396.31" stroke="#263238" stroke-miterlimit="10" stroke-linecap="round"/>
<path d="M680.9 365.69C680.9 365.69 679.98 364.84 678.33 363.6" stroke="#263238" stroke-miterlimit="10" stroke-linecap="round"/>
<path d="M605.69 333.85C595.36 332.1 587.61 327.04 588.37 322.55C589.13 318.06 598.12 315.83 608.44 317.55C618.76 319.27 626.53 324.36 625.76 328.85C624.99 333.34 616 335.6 605.69 333.85Z" fill="#263238" stroke="#263238" stroke-miterlimit="10"/>
<path d="M625 326.35C626.267 326.822 627.503 327.373 628.7 328C632.877 330.194 636.37 333.494 638.797 337.54C641.224 341.586 642.491 346.222 642.46 350.94V395" stroke="#263238" stroke-miterlimit="10" stroke-linecap="round"/>
<path d="M611.19 323.74C615.902 323.882 620.562 324.762 625 326.35" stroke="#263238" stroke-miterlimit="10" stroke-linecap="round"/>
<path d="M603.87 324C603.87 324 604.69 323.88 606.1 323.8" stroke="#263238" stroke-miterlimit="10" stroke-linecap="round"/>
<path d="M616.05 364.07C606.98 369.3 597.78 370.34 595.5 366.39C593.22 362.44 598.74 355 607.81 349.77C616.88 344.54 626.09 343.5 628.36 347.45C630.63 351.4 625.13 358.84 616.05 364.07Z" fill="#263238" stroke="#263238" stroke-miterlimit="10"/>
<path d="M613.85 352.77C617.578 349.871 621.739 347.576 626.18 345.97C626.18 345.97 637.43 344.11 640 351.38" stroke="#263238" stroke-miterlimit="10" stroke-linecap="round"/>
<path d="M608.38 357.64C608.38 357.64 608.94 357.02 609.97 356.05" stroke="#263238" stroke-miterlimit="10" stroke-linecap="round"/>
<path d="M638.29 351.81C638.29 351.81 651.55 349.25 651.55 358.23C651.55 367.21 642.14 374.49 638.29 384.76C634.44 395.03 627.17 395.46 623.29 385.19C619.41 374.92 625 356.09 638.29 351.81Z" fill="#263238" stroke="#263238" stroke-miterlimit="10"/>
<path d="M647.28 352.24C647.28 352.24 635.72 356.95 632.28 371.92L647.28 352.24Z" fill="#263238"/>
<path d="M647.28 352.24C647.28 352.24 635.72 356.95 632.28 371.92" stroke="#263238" stroke-miterlimit="10"/>
<path d="M646.42 371.92V396.31" stroke="#263238" stroke-miterlimit="10" stroke-linecap="round"/>
<path d="M625.17 443.8C621.992 433.701 620.373 423.177 620.37 412.59C620.359 406.178 621.003 399.781 622.29 393.5H676.29C677.582 399.781 678.226 406.178 678.21 412.59C678.21 423.176 676.595 433.701 673.42 443.8H625.17Z" fill="#263238"/>
<path d="M677.72 402.42C677.88 403.89 677.99 405.42 678.08 406.88H620.54C620.63 405.38 620.75 403.88 620.91 402.42H677.72Z" fill="#7A7A7A"/>
<path d="M621.16 425.23C620.98 423.75 620.82 422.23 620.7 420.77H677.93C677.81 422.26 677.65 423.77 677.47 425.23H621.16Z" fill="#7A7A7A"/>
<path d="M671.27 412.83C671.252 413.294 671.373 413.753 671.618 414.148C671.863 414.543 672.22 414.855 672.644 415.046C673.068 415.236 673.539 415.295 673.997 415.216C674.455 415.136 674.878 414.922 675.213 414.6C675.548 414.278 675.779 413.863 675.876 413.409C675.974 412.954 675.933 412.481 675.76 412.05C675.587 411.619 675.288 411.25 674.903 410.99C674.518 410.729 674.065 410.59 673.6 410.59C673.3 410.583 673.001 410.636 672.721 410.745C672.442 410.854 672.186 411.018 671.97 411.226C671.753 411.434 671.58 411.683 671.46 411.958C671.34 412.233 671.275 412.53 671.27 412.83Z" fill="#8C8C8C"/>
<path d="M659.63 412.83C659.612 413.295 659.734 413.754 659.979 414.149C660.224 414.544 660.582 414.857 661.007 415.047C661.431 415.237 661.903 415.295 662.361 415.215C662.819 415.135 663.242 414.919 663.577 414.596C663.911 414.273 664.142 413.858 664.238 413.403C664.334 412.948 664.292 412.474 664.117 412.044C663.942 411.613 663.642 411.244 663.256 410.985C662.87 410.726 662.415 410.589 661.95 410.59C661.651 410.585 661.353 410.639 661.075 410.748C660.796 410.858 660.542 411.022 660.326 411.23C660.111 411.438 659.938 411.686 659.819 411.961C659.7 412.235 659.635 412.531 659.63 412.83Z" fill="#8C8C8C"/>
<path d="M648 412.83C647.982 413.294 648.103 413.753 648.348 414.148C648.593 414.543 648.95 414.855 649.374 415.046C649.798 415.236 650.269 415.295 650.727 415.216C651.185 415.136 651.608 414.922 651.943 414.6C652.278 414.278 652.509 413.863 652.606 413.409C652.704 412.954 652.663 412.481 652.49 412.05C652.317 411.619 652.018 411.25 651.633 410.99C651.249 410.729 650.795 410.59 650.33 410.59C650.03 410.583 649.731 410.636 649.451 410.745C649.172 410.854 648.916 411.018 648.7 411.226C648.483 411.434 648.31 411.683 648.19 411.958C648.07 412.233 648.005 412.53 648 412.83Z" fill="#8C8C8C"/>
<path d="M636.34 412.83C636.322 413.294 636.443 413.753 636.688 414.148C636.933 414.543 637.29 414.855 637.714 415.046C638.138 415.236 638.609 415.295 639.067 415.216C639.525 415.136 639.948 414.922 640.283 414.6C640.618 414.278 640.849 413.863 640.947 413.409C641.044 412.954 641.003 412.481 640.83 412.05C640.657 411.619 640.358 411.25 639.973 410.99C639.589 410.729 639.135 410.59 638.67 410.59C638.37 410.583 638.071 410.636 637.791 410.745C637.512 410.854 637.256 411.018 637.04 411.226C636.823 411.434 636.65 411.683 636.53 411.958C636.41 412.233 636.345 412.53 636.34 412.83Z" fill="#8C8C8C"/>
<path d="M624.7 412.83C624.682 413.295 624.804 413.754 625.049 414.149C625.294 414.544 625.652 414.857 626.077 415.047C626.501 415.237 626.973 415.295 627.431 415.215C627.889 415.135 628.312 414.919 628.647 414.596C628.981 414.273 629.212 413.858 629.308 413.403C629.404 412.948 629.362 412.474 629.187 412.044C629.012 411.613 628.712 411.244 628.326 410.985C627.94 410.726 627.485 410.589 627.02 410.59C626.721 410.585 626.423 410.639 626.145 410.748C625.866 410.858 625.612 411.022 625.396 411.23C625.181 411.438 625.008 411.686 624.889 411.961C624.769 412.235 624.705 412.531 624.7 412.83Z" fill="#8C8C8C"/>
<path d="M531.36 220.92L529.58 214.76C529.58 214.76 528.98 209.59 527.99 208.4C527 207.21 523.21 205.22 521.82 203.83C520.43 202.44 519.24 202.43 519.04 203.63C518.84 204.83 519.24 206.63 519.83 207.01C520.42 207.39 522.42 209.19 522.42 209.19C522.42 209.19 517.99 206.42 516.79 205.42C515.59 204.42 511.29 202.23 510.69 203.03C510.09 203.83 510.89 205.61 510.89 205.61C510.89 205.61 508.31 205.05 508.31 206.84C508.273 207.309 508.364 207.779 508.573 208.2C508.783 208.621 509.103 208.977 509.5 209.23C509.5 209.23 507.8 209.8 508.2 211.23C508.6 212.66 510.92 213.73 510.92 213.73C510.92 213.73 508.64 214.1 509.83 215.73C511.02 217.36 516.06 220.6 518.64 221.8C520.522 222.631 522.448 223.359 524.41 223.98L530.77 228.56L531.36 220.92Z" fill="white" stroke="#263238" stroke-linecap="round" stroke-linejoin="round"/>
<path d="M510.89 205.61C510.89 205.61 514.67 208.4 515.46 209.19C516.393 209.952 517.398 210.621 518.46 211.19" stroke="#263238" stroke-linecap="round" stroke-linejoin="round"/>
<path d="M509.62 209.41L515.99 213.18L516.9 213.8" stroke="#263238" stroke-linecap="round" stroke-linejoin="round"/>
<path d="M522.42 209.19L523.21 212.57" stroke="#263238" stroke-linecap="round" stroke-linejoin="round"/>
<path d="M548.46 230.27L531.37 220.92L528.38 229.07L546.08 245.18L548.46 230.27Z" fill="#263238" stroke="#263238" stroke-linecap="round" stroke-linejoin="round"/>
<path d="M561.45 189.42C561.45 189.42 546.37 204.91 545 213.65C543.63 222.39 542.81 267.25 542.81 267.25C542.81 267.25 553.31 269 554.31 269H560.66C560.66 269 558.08 229.09 559.87 215.39C561.66 201.69 568.2 189.39 568.2 189.39C566.007 188.664 563.637 188.675 561.45 189.42Z" fill="#263238" stroke="#263238" stroke-linecap="round" stroke-linejoin="round"/>
<path d="M550.44 264.52L551.44 291.24C551.44 291.24 545.44 310.24 549.77 330.99C552.382 343.42 553.944 356.048 554.44 368.74C554.44 368.74 556.44 383.43 556.44 390.45C556.44 397.47 554.1 425.52 554.1 425.52C554.1 425.52 551.76 428.86 549.1 432.2C546.44 435.54 539.75 437.55 538.74 440.2C537.73 442.85 542.74 441.87 546.74 441.87C551.186 441.666 555.573 440.765 559.74 439.2C561.74 438.2 566.08 438.86 567.09 438.2C568.1 437.54 569.42 433.53 569.09 430.52C568.76 427.51 571.76 401.13 573.77 390.77C575.78 380.41 572.77 360.38 572.77 360.38C572.77 360.38 578.77 306.27 579.11 302.92C579.45 299.57 583.11 284.22 582.45 278.54C581.79 272.86 581.12 263.84 581.12 262.54C581.12 261.24 550.44 264.52 550.44 264.52Z" fill="#263238" stroke="#263238" stroke-linecap="round" stroke-linejoin="round"/>
<path d="M565.47 295.25C565.47 295.25 562.13 329.66 563.47 345.69C564.81 361.72 567.15 379.76 568.82 384.1C570.49 388.44 572.49 411.16 572.49 417.51C572.49 423.86 572.83 434.51 572.83 434.51C572.83 434.51 566.83 440.51 562.47 442.51C558.11 444.51 556.47 446.18 558.8 447.18C561.13 448.18 565.48 449.18 572.8 448.18C580.12 447.18 586.49 447.18 587.49 444.5C588.49 441.82 588.16 434.81 588.16 434.81C588.16 434.81 589.83 402.75 589.83 387.38C589.83 372.01 585.15 354.31 585.15 354.31L589.15 325.59C589.15 325.59 597.15 310.22 597.5 295.86C597.85 281.5 589.82 264.8 589.15 263.79C588.48 262.78 560.43 265.79 560.43 265.79" fill="#263238"/>
<path d="M565.47 295.25C565.47 295.25 562.13 329.66 563.47 345.69C564.81 361.72 567.15 379.76 568.82 384.1C570.49 388.44 572.49 411.16 572.49 417.51C572.49 423.86 572.83 434.51 572.83 434.51C572.83 434.51 566.83 440.51 562.47 442.51C558.11 444.51 556.47 446.18 558.8 447.18C561.13 448.18 565.48 449.18 572.8 448.18C580.12 447.18 586.49 447.18 587.49 444.5C588.49 441.82 588.16 434.81 588.16 434.81C588.16 434.81 589.83 402.75 589.83 387.38C589.83 372.01 585.15 354.31 585.15 354.31L589.15 325.59C589.15 325.59 597.15 310.22 597.5 295.86C597.85 281.5 589.82 264.8 589.15 263.79C588.48 262.78 560.43 265.79 560.43 265.79" stroke="#263238" stroke-linecap="round" stroke-linejoin="round"/>
<path d="M556.11 294.25C556.577 295.638 557.322 296.917 558.298 298.008C559.275 299.1 560.463 299.982 561.79 300.6" stroke="white" stroke-linecap="round" stroke-linejoin="round"/>
<path d="M569.14 430.53C569.135 430.447 569.135 430.363 569.14 430.28C564.74 432.278 559.763 432.605 555.14 431.2V429.86C554.96 428.382 554.625 426.927 554.14 425.52C554.14 425.52 551.8 428.86 549.14 432.2C546.48 435.54 539.79 437.55 538.78 440.2C537.77 442.85 542.78 441.87 546.78 441.87C551.226 441.666 555.613 440.765 559.78 439.2C561.78 438.2 566.12 438.86 567.13 438.2C568.14 437.54 569.47 433.54 569.14 430.53Z" fill="white" stroke="#263238" stroke-linecap="round" stroke-linejoin="round"/>
<path d="M587.51 444.56C588.28 442.5 588.26 437.88 588.21 435.86C584.581 436.796 580.887 437.465 577.16 437.86L576.16 435.52C575.16 433.18 572.82 434.52 572.82 434.52C572.82 434.52 566.82 440.52 562.46 442.52C558.1 444.52 556.46 446.19 558.79 447.19C561.12 448.19 565.47 449.19 572.79 448.19C580.11 447.19 586.51 447.23 587.51 444.56Z" fill="white" stroke="#263238" stroke-linecap="round" stroke-linejoin="round"/>
<path d="M561.06 193.79C561.06 193.79 546.56 211.46 546.17 215.63C545.78 219.8 549.34 266.46 549.94 266.85C553.418 267.979 557.016 268.701 560.66 269C563.44 269 566.81 268.6 566.81 268.6C566.81 268.6 565.23 222.54 566.42 212.81C567.61 203.08 575.55 194.35 577.14 190.18C578.73 186.01 572.37 185.81 570.59 186.41C568.81 187.01 561.06 193.79 561.06 193.79Z" fill="white" stroke="#263238" stroke-linecap="round" stroke-linejoin="round"/>
<path d="M553.51 141.77C553.51 141.77 546.96 150.91 547.36 153.49C547.76 156.07 548.15 158.05 547.36 159.44C546.57 160.83 542.2 162.22 542.59 164.44C542.98 166.66 546.59 168.44 546.59 168.44C546.59 168.44 548.59 179.56 550.76 180.75C552.93 181.94 558.7 180.35 558.7 180.35L560.09 190.68C560.09 190.68 554.54 199.21 558.31 199.41C562.08 199.61 578.76 186.11 578.76 186.11L577.17 180.11C577.17 180.11 580.74 172.17 580.94 164.23C581.14 156.29 573.6 143.18 567.64 140.4C561.68 137.62 557.09 139.19 553.51 141.77Z" fill="white" stroke="#263238" stroke-linecap="round" stroke-linejoin="round"/>
<path d="M558.67 180.29L564.03 179.1L559.67 186.05L558.67 180.29Z" fill="#263238" stroke="#263238" stroke-linecap="round" stroke-linejoin="round"/>
<path d="M549.94 168.58C549.94 168.58 553.31 169.77 556.09 166" stroke="#263238" stroke-linecap="round" stroke-linejoin="round"/>
<path d="M554.31 158.05C554.31 159.15 553.82 160.05 553.22 160.05C552.62 160.05 552.12 159.16 552.12 158.05C552.12 156.94 552.61 156.05 553.22 156.05C553.83 156.05 554.31 157 554.31 158.05Z" fill="#263238"/>
<path d="M550.73 153.29C550.73 153.29 554.11 150.51 555.9 153.89" stroke="#263238" stroke-linecap="round" stroke-linejoin="round"/>
<path d="M555.1 142C555.1 142 560.26 149.94 564.04 154.91C567.82 159.88 571.78 166.62 570.59 170.2C569.4 173.78 565.23 172.38 566.42 174.76C567.61 177.14 574.56 180.76 578.93 180.32C583.3 179.88 587.66 174.76 591.04 169.8C594.42 164.84 599.38 155.7 593.42 144.58C587.46 133.46 578.93 128.3 570.42 127.91C561.91 127.52 547.59 130.49 546.2 136.44C544.81 142.39 550.37 146.77 550.37 146.77L555.1 142Z" fill="#263238" stroke="#263238" stroke-linecap="round" stroke-linejoin="round"/>
<path d="M569.2 192C569.2 192 553.31 214.84 552.52 221C551.73 227.16 556.29 270.24 556.29 270.24C563.016 271.043 569.814 271.043 576.54 270.24C583.344 269.096 589.96 267.023 596.2 264.08C596.2 264.08 590.64 240.86 590.64 237.28C590.64 233.7 592.03 209.28 588.46 201.54C585.748 196.064 582.488 190.878 578.73 186.06C578.138 185.958 577.54 185.891 576.94 185.86C576.34 185.85 572.57 188.43 569.2 192Z" fill="#263238" stroke="#263238" stroke-linecap="round" stroke-linejoin="round"/>
<path d="M532.86 226.75L527.7 224C526.937 221.621 526.008 219.299 524.92 217.05C523.92 215.46 521.15 215.86 519.92 216.05C518.69 216.24 515.15 215.25 512.92 214.26C510.69 213.27 509.74 214.46 510.54 215.65C511.288 216.616 512.154 217.482 513.12 218.23C513.12 218.23 503.99 218.63 503.39 218.63C502.79 218.63 499.22 217.63 500.02 220.22C500.82 222.81 507.56 227.36 510.94 227.96C514.32 228.56 523.05 228.16 523.05 228.16L528.21 232.16L532.86 226.75Z" fill="white" stroke="#263238" stroke-linecap="round" stroke-linejoin="round"/>
<path d="M513.21 218.21L518.17 219.8L520.75 220.59" stroke="#263238" stroke-linecap="round" stroke-linejoin="round"/>
<path d="M500.45 219C500.45 219 504.68 221.72 505.59 222.17C506.5 222.62 513.29 223.08 513.29 223.08" stroke="#263238" stroke-linecap="round" stroke-linejoin="round"/>
<path d="M502 222.72C502 222.72 509 225.44 509.7 225.44C510.4 225.44 513.78 225.29 513.78 225.29" stroke="#263238" stroke-linecap="round" stroke-linejoin="round"/>
<path d="M570.59 204.91L557.09 238.91L532.86 226.8L525.92 235.53C525.92 235.53 554.51 257.53 556.69 258.53C558.87 259.53 562.84 259.92 563.64 259.32C564.44 258.72 586.27 222.19 586.27 222.19" fill="#263238"/>
<path d="M570.59 204.91L557.09 238.91L532.86 226.8L525.92 235.53C525.92 235.53 554.51 257.53 556.69 258.53C558.87 259.53 562.84 259.92 563.64 259.32C564.44 258.72 586.27 222.19 586.27 222.19" stroke="#263238" stroke-linecap="round" stroke-linejoin="round"/>
<path d="M564.91 301.94C564.91 301.94 562.91 340.04 564.91 354.69C566.91 369.34 570.48 391.33 570.48 391.33" stroke="white" stroke-linecap="round" stroke-linejoin="round"/>
<path d="M429.17 268.6C429.17 268.6 426.76 311.3 426.31 319.29C425.86 327.28 426.77 368.36 429.49 372.5C432.21 376.64 435.49 417.14 435.49 417.14C435.49 417.14 433.07 418.02 432.99 419.5C432.91 420.98 432.99 425.12 432.99 425.12C432.99 425.12 424.94 431.62 420.4 433.4C415.86 435.18 416.05 437.24 418.67 437.83C421.29 438.42 428.61 439.9 433.99 438.72C439.37 437.54 444.86 434.87 447.25 434.28C449.64 433.69 452.87 434.28 454.45 432.51C456.03 430.74 455.17 425.12 455.17 425.12C455.17 425.12 456.17 423.64 455.26 418.32C454.35 413 453.35 410.32 453.43 408.86C453.51 407.4 453.26 359.79 453.26 359.79L453.35 306.28C453.35 306.28 457.76 358.6 458.8 361.28C459.84 363.96 467.53 405.33 468 407.4C468.47 409.47 468.58 418.04 468.58 418.04C468.58 418.04 466.32 421.29 466.27 422.18C466.22 423.07 467.33 429.57 467.33 429.57C467.33 429.57 460.06 437.85 456.1 439.92C452.14 441.99 456.7 444.92 460.53 445.24C464.36 445.56 468.77 445.83 474.21 443.76C479.65 441.69 486.87 434.3 488.45 432.53C490.03 430.76 488.99 428.09 488.45 426.62C487.91 425.15 487.12 423.96 487.45 422.77C488.645 418.107 489.507 413.365 490.03 408.58C490.27 404.44 490.49 400.58 490.49 400.58C490.49 400.58 490.96 376.64 489.49 366.58C488.02 356.52 484.6 338.2 484.6 338.2C484.6 338.2 481.84 293.26 482.25 291.2C482.66 289.14 484.32 282.08 483.72 275.83C483.443 272.545 482.935 269.283 482.2 266.07L429.17 268.6Z" fill="#263238" stroke="#263238" stroke-linecap="round" stroke-linejoin="round"/>
<path d="M452.11 186C452.11 186 428.64 193.63 428.6 195.4C428.56 197.17 422.82 234.75 422.82 234.75L394.14 254.35C394.14 254.35 398.19 257.09 398.92 259.64L399.64 262.18L429.64 252.57C429.64 252.57 428.13 267.45 428.89 268.62C429.65 269.79 434.12 270.97 434.12 270.97C434.12 270.97 460.91 272.54 469.73 272.15C478.55 271.76 482.28 271.15 482.9 269.6C483.52 268.05 483.9 268.6 483.96 266.27C484.02 263.94 500.09 193.05 500.11 191.87C500.095 191.105 499.878 190.359 499.482 189.705C499.085 189.052 498.522 188.515 497.85 188.15C496.3 187.37 475.48 181.3 475.48 181.3L452.11 186Z" fill="white" stroke="#263238" stroke-linecap="round" stroke-linejoin="round"/>
<path d="M448.4 194.4L450.51 204.87L440.39 255.38L443.93 269.51L454.55 254.1L454.37 204.44L462.77 192.88L459.06 186.21L448.4 194.4Z" fill="#263238" stroke="#263238" stroke-linecap="round" stroke-linejoin="round"/>
<path d="M441.19 251.38L451.67 258.27L454.55 254.1L454.54 251.77L442.68 243.98L441.19 251.38Z" fill="#263238"/>
<path d="M447.18 221.5L445.58 229.48L454.49 237.5L454.46 228.05L447.18 221.5Z" fill="#263238"/>
<path d="M449.18 198.26L450.51 204.87L449.83 208.25L454.4 212.34L454.38 204.44L455.05 203.52L449.18 198.26Z" fill="#263238"/>
<path d="M433.7 212.68L434.19 208.1" stroke="#263238" stroke-linecap="round" stroke-linejoin="round"/>
<path d="M429.73 249.61L433.15 217.77" stroke="#263238" stroke-linecap="round" stroke-linejoin="round"/>
<path d="M451.22 199.93L444.87 185.78L453.21 180.5L451.22 199.93Z" fill="white" stroke="#263238" stroke-linecap="round" stroke-linejoin="round"/>
<path d="M444.87 185.78L442.46 197.33L448.4 194.4L444.87 185.78Z" fill="white" stroke="#263238" stroke-linecap="round" stroke-linejoin="round"/>
<path d="M451.92 132.68C451.92 132.68 445.23 155.28 444.75 164.68C444.27 174.08 447.14 178.13 449.54 178.94L451.67 179.74L451.22 199.92L458.44 189.7L459.06 186.2L473.06 172.48L476.22 163.61C476.22 163.61 481.58 164.68 483.3 159.84C485.02 155 482.93 152.31 482.93 152.31C482.93 152.31 490.09 144.78 487.61 135.63C485.13 126.48 478.61 117.34 466.23 117.34C453.85 117.34 445.37 124.88 451.92 132.68Z" fill="white" stroke="#263238" stroke-linecap="round" stroke-linejoin="round"/>
<path d="M487.63 135.64C485.14 126.5 478.63 117.35 466.25 117.35C453.87 117.35 445.37 124.88 451.92 132.68C451.92 132.68 456.15 136.18 459.12 135.68C462.09 135.18 464.02 132.99 469.07 135.68C474.12 138.37 474.61 140.52 472.92 144.02C471.23 147.52 471.46 149.13 472.23 150.48C472.33 150.644 472.42 150.814 472.5 150.99L467.65 163.12C467.65 163.12 466.11 159.89 459.71 157.2C453.31 154.51 445.71 158.55 445.71 158.55C440.71 180.29 451.71 179.79 451.71 179.79C451.71 179.79 464.71 177.37 468.52 173.88C472.33 170.39 472.96 167.96 473.31 164.19C473.52 161.96 473.51 156.97 473.46 153.29C473.81 154.29 474.05 155.05 474.05 155.05C474.857 153.511 476.236 152.351 477.89 151.82C479.598 151.362 481.416 151.554 482.99 152.36C482.99 152.36 490.11 144.79 487.63 135.64Z" fill="#263238" stroke="#263238" stroke-linecap="round" stroke-linejoin="round"/>
<path d="M457 144.25L454.7 150.97C454.7 150.97 447.06 155.55 448.7 156.08C450.34 156.61 455.7 155.01 455.7 155.01" stroke="#263238" stroke-linecap="round" stroke-linejoin="round"/>
<path d="M448.56 162.54C448.56 162.54 451.72 165.77 457.72 161.73" stroke="white" stroke-linecap="round" stroke-linejoin="round"/>
<path d="M462.21 150.21C462.03 151.14 461.39 151.82 460.79 151.71C460.19 151.6 459.79 150.77 460.01 149.83C460.23 148.89 460.83 148.22 461.44 148.32C462.05 148.42 462.39 149.27 462.21 150.21Z" fill="#263238"/>
<path d="M452.72 148.88C452.54 149.82 451.9 150.5 451.29 150.39C450.68 150.28 450.29 149.44 450.52 148.51C450.75 147.58 451.33 146.9 451.94 147C452.55 147.1 452.9 148 452.72 148.88Z" fill="#263238"/>
<path d="M450.55 143.28C451.314 142.918 452.15 142.731 452.995 142.731C453.841 142.731 454.676 142.918 455.44 143.28" stroke="#263238" stroke-linecap="round" stroke-linejoin="round"/>
<path d="M460.72 143.94C461.76 143.871 462.801 144.051 463.758 144.465C464.714 144.879 465.558 145.515 466.22 146.32" stroke="#263238" stroke-linecap="round" stroke-linejoin="round"/>
<path d="M458.44 189.71L460.85 197.72L478.29 179.91L473.08 172.49L459.06 186.21L458.44 189.71Z" fill="white" stroke="#263238" stroke-linecap="round" stroke-linejoin="round"/>
<path d="M408.93 269C408.93 269 405.18 267 406.87 266.75C408.56 266.5 411.5 267.6 411.5 267.6C411.5 267.6 407.9 264.92 409.73 265.06C411.56 265.2 414.46 267.46 414.46 267.46C414.46 267.46 413.53 265.06 415.34 265.77C416.391 266.161 417.338 266.787 418.11 267.6C418.11 267.6 416.11 269.99 414.39 270.27C412.67 270.55 413.11 270.83 412 270.41C410.89 269.99 408.93 269 408.93 269Z" fill="white" stroke="#263238" stroke-linecap="round" stroke-linejoin="round"/>
<path d="M434.67 256.46C434.67 256.46 425.05 256.46 423.67 257.62C422.29 258.78 420.35 261.77 419.67 262.23C418.99 262.69 411.35 262.93 411.55 264.54C411.75 266.15 416.35 266.38 416.35 266.38L413 269.84C413 269.84 405.91 267.31 405.42 268.69C404.93 270.07 412.93 273.07 414.77 273.07C416.61 273.07 420.34 271.92 421.04 271.23C421.74 270.54 429.34 263.64 429.34 263.64C429.67 264.4 435.19 263.12 435.42 262.31C435.65 261.5 434.67 256.46 434.67 256.46Z" fill="white" stroke="#263238" stroke-linecap="round" stroke-linejoin="round"/>
<path d="M416.3 266.38C418.267 266.585 420.247 266.625 422.22 266.5C423.91 266.22 425.94 263.83 425.94 263.83" stroke="#263238" stroke-linecap="round" stroke-linejoin="round"/>
<path d="M481.5 202.62L472.24 240.21L434.67 256.46L435.67 264.69C435.67 264.69 467.95 261.01 475.82 259.05C483.69 257.09 493.42 251.61 494.69 247.3C495.96 242.99 502.39 196.94 502.27 193.42C502.15 189.9 501.77 189.5 500.27 188.52C498.77 187.54 487.22 185.39 487.22 185.39" fill="white"/>
<path d="M481.5 202.62L472.24 240.21L434.67 256.46L435.67 264.69C435.67 264.69 467.95 261.01 475.82 259.05C483.69 257.09 493.42 251.61 494.69 247.3C495.96 242.99 502.39 196.94 502.27 193.42C502.15 189.9 501.77 189.5 500.27 188.52C498.77 187.54 487.22 185.39 487.22 185.39" stroke="#263238" stroke-linecap="round" stroke-linejoin="round"/>
<path d="M440.4 254.31L441.77 262.73" stroke="#263238" stroke-linecap="round" stroke-linejoin="round"/>
<path d="M397.91 252C398.774 252.14 399.601 252.448 400.345 252.908C401.089 253.367 401.736 253.969 402.248 254.679C402.759 255.388 403.126 256.191 403.327 257.043C403.528 257.894 403.56 258.777 403.42 259.64" stroke="#263238" stroke-linecap="round" stroke-linejoin="round"/>
<path d="M394.14 254.33L388.85 256.88C387.418 256.478 385.962 256.171 384.49 255.96C383.57 255.96 382.39 257.11 379.65 255.96C376.91 254.81 374.65 253.19 374.59 255.27C374.554 256.152 374.791 257.024 375.269 257.767C375.747 258.51 376.442 259.087 377.26 259.42C378.64 259.88 380.26 260.57 380.26 260.57L371.53 269.34C371.53 269.34 367.05 273.72 368.18 274.41C369.31 275.1 379.52 272.8 381.18 272.33C382.84 271.86 392.11 268.18 393.54 266.33C394.97 264.48 395.68 263.33 395.68 263.33L399.68 262.15C399.68 262.15 398.63 256.39 394.14 254.33Z" stroke="#263238" stroke-linecap="round" stroke-linejoin="round"/>
<path d="M390.31 263.8C390.31 263.8 385.72 263.11 383.85 264.03C381.98 264.95 379.35 269.11 379.35 269.11C379.35 269.11 373.35 270.95 371.9 272.33" stroke="#263238" stroke-linecap="round" stroke-linejoin="round"/>
<path d="M279.91 281.17H253.86V290.94H279.91V281.17Z" fill="white" stroke="#263238" stroke-linecap="round" stroke-linejoin="round"/>
<path d="M317.3 206.9H216.47C214.189 206.9 212.34 208.749 212.34 211.03V281.59C212.34 283.871 214.189 285.72 216.47 285.72H317.3C319.581 285.72 321.43 283.871 321.43 281.59V211.03C321.43 208.749 319.581 206.9 317.3 206.9Z" fill="#263238" stroke="#263238" stroke-linecap="round" stroke-linejoin="round"/>
<path d="M212.34 273V281.56C212.34 282.655 212.775 283.706 213.55 284.48C214.324 285.255 215.375 285.69 216.47 285.69H317.3C318.395 285.69 319.446 285.255 320.22 284.48C320.995 283.706 321.43 282.655 321.43 281.56V273H212.34Z" fill="white" stroke="#263238" stroke-linecap="round" stroke-linejoin="round"/>
<path d="M391.57 207.29L358.09 207.56C358.09 207.56 355.88 207.29 355.33 208.95C355.33 208.95 349.52 223.61 349.24 228.86C348.96 234.11 350.35 233.29 348.14 240.2C345.93 247.11 339.56 263.44 335.96 276.72C331.13 294.56 329.87 313.51 329.57 331.92C329.52 334.92 327.75 360.31 332.35 360.31C336.17 360.31 371.35 364.98 371.81 358.19C373.5 331.13 368.61 304.69 378.01 278.38C381.66 268.16 385.85 257.38 388.94 246.67C392.03 235.96 392.58 224.87 394.61 213.92C396 206.46 391.57 207.29 391.57 207.29Z" fill="#263238" stroke="#263238" stroke-miterlimit="10"/>
<path d="M394.84 210.6C394.51 206.74 391.57 207.29 391.57 207.29L358.09 207.56C358.09 207.56 355.88 207.29 355.33 208.95C355.33 208.95 349.52 223.61 349.24 228.86C349.172 230.251 349.212 231.645 349.36 233.03L350.07 234.12C350.07 234.12 351.18 243.8 364.46 244.35C377.74 244.9 385.2 238.82 388 233C390.8 227.18 391.87 217.79 394.09 212.25C394.312 211.688 394.562 211.137 394.84 210.6Z" fill="#BABABA" stroke="#263238" stroke-linecap="round" stroke-linejoin="round"/>
<path d="M387.08 221.4C384.84 229.49 386.19 231.73 383.94 245.65C381.69 259.57 373.62 275.28 370.47 289.65C367.32 304.02 368.68 354.75 369.13 357C369.303 358.192 369.366 359.397 369.32 360.6C370.83 360.04 371.74 359.26 371.81 358.2C373.5 331.14 368.61 304.7 378.01 278.39C381.66 268.17 385.85 257.39 388.94 246.68C392.03 235.97 392.58 224.88 394.61 213.93C395.46 209.35 394.12 207.93 392.95 207.45V207.5C390.416 211.868 388.444 216.538 387.08 221.4Z" fill="#BABABA" stroke="#263238" stroke-linecap="round" stroke-linejoin="round"/>
<path d="M322.44 425.68L322.21 425.5V394.25H326.7V374.5H310.09V394.25H314.58V426L274.85 438.66V441.81C274.85 442.762 275.228 443.675 275.901 444.349C276.575 445.022 277.488 445.4 278.44 445.4C279.392 445.4 280.305 445.022 280.978 444.349C281.652 443.675 282.03 442.762 282.03 441.81V441.36L315.25 437.5V442.26C315.295 443.063 315.646 443.819 316.231 444.372C316.816 444.925 317.59 445.233 318.395 445.233C319.2 445.233 319.974 444.925 320.559 444.372C321.144 443.819 321.495 443.063 321.54 442.26V437.34L356.11 441.34V441.79C356.11 442.742 356.488 443.655 357.161 444.329C357.835 445.002 358.748 445.38 359.7 445.38C360.652 445.38 361.565 445.002 362.238 444.329C362.912 443.655 363.29 442.742 363.29 441.79V438.64L322.44 425.68Z" fill="#263238" stroke="#263238" stroke-miterlimit="10"/>
<path d="M370.36 355.22H270.59C268.381 355.22 266.59 357.011 266.59 359.22V374.13C266.59 376.339 268.381 378.13 270.59 378.13H370.36C372.569 378.13 374.36 376.339 374.36 374.13V359.22C374.36 357.011 372.569 355.22 370.36 355.22Z" fill="#263238" stroke="#263238" stroke-miterlimit="10"/>
<path d="M222.82 443.81H218.35L215.44 313.32H226.74L222.82 443.81Z" fill="#263238" stroke="#263238" stroke-miterlimit="10"/>
<path d="M444.11 443.81H439.63L436.72 313.32H448.02L444.11 443.81Z" fill="#263238" stroke="#263238" stroke-miterlimit="10"/>
<path d="M192.41 293.14L196.26 448.43H200.89L204.74 319.67H466.11L469.46 448.43H476.47L477.98 293.14H192.41Z" fill="white" stroke="#263238" stroke-linecap="round" stroke-linejoin="round"/>
<path d="M477.77 296.87H192.54V301.17H477.77V296.87Z" fill="#757575" stroke="#263238" stroke-miterlimit="10"/>
<path d="M479.98 290.59H186.39V297.38H479.98V290.59Z" fill="white" stroke="#263238" stroke-linecap="round" stroke-linejoin="round"/>
<path d="M719.96 436.85H18.13" stroke="#263238" stroke-linecap="round" stroke-linejoin="round"/>
<path d="M168 294.61C168 294.61 168.87 300.61 169.66 302.46C170.45 304.31 171.24 306.92 170.19 308.76C169.14 310.6 160.7 314.36 160.7 314.36L160.47 290.91L167.59 289.78L168 294.61Z" fill="white" stroke="#263238" stroke-linecap="round" stroke-linejoin="round"/>
<path d="M165.9 300.17C165.9 300.17 165.67 302.72 165.15 305.61C164.63 308.5 164.52 311.84 161.37 311.61" fill="white"/>
<path d="M165.9 300.17C165.9 300.17 165.67 302.72 165.15 305.61C164.63 308.5 164.52 311.84 161.37 311.61" stroke="#263238" stroke-linecap="round" stroke-linejoin="round"/>
<path d="M159.11 190.88L164.36 248.38L168.04 291.96L159.38 292.22L154.91 253.36L159.11 190.88Z" fill="white" stroke="#263238" stroke-linecap="round" stroke-linejoin="round"/>
<path d="M103.05 258.55C103.05 258.55 100.51 280.97 101.05 283.85C101.59 286.73 103.33 351.41 103.33 351.41C103.33 351.41 99.4899 374.14 99.6299 378.3C99.7699 382.46 101 428.25 101 428.25C101 428.25 98.4 436.89 98 438.81C97.6 440.73 98.11 443.62 99.37 444.26C100.63 444.9 108.91 445.86 112.45 445.26C115.99 444.66 120.19 443.98 121.02 439.49C121.85 435 119.24 428.61 119.64 426.69C120.145 424.152 120.48 421.583 120.64 419L120.82 414.84C120.82 414.84 127.4 372.58 127.46 371.3C127.52 370.02 131.46 329.99 131.46 329.99C131.46 329.99 131 386.35 130.63 395.31C130.26 404.27 128.87 414.2 128.82 415.48C128.77 416.76 127.46 432.48 127.73 433.73C128 434.98 130.2 435.97 132.1 436.29C134 436.61 139.15 436.29 140.1 436.29C141.05 436.29 148.03 437.89 152.52 437.89C157.01 437.89 162.15 437.25 161.31 434.37C160.47 431.49 153.23 428.61 151.04 427.37C148.85 426.13 145.97 418.37 145.97 418.37C145.97 418.37 148.15 412.29 148.29 409.09C148.43 405.89 158.09 358.82 159.6 345.69C161.11 332.56 159.79 272.69 159.79 272.69L161 258.88C161 258.88 123.24 265.92 103.05 258.55Z" fill="#263238" stroke="#263238" stroke-linecap="round" stroke-linejoin="round"/>
<path d="M112.9 173.81C112.9 173.81 100.3 184.05 94.52 187.2C88.74 190.35 82.1901 194.55 82.1901 194.55C82.1901 194.55 74.5701 258.88 75.3601 261.24C76.1501 263.6 79.3001 297.47 79.3001 297.47L90.8501 297L93.74 255.78L99.74 235.78L100.52 259.41C100.52 259.41 100 262.83 102.89 264.14C105.78 265.45 131 267.8 143.62 267C156.24 266.2 160.16 261.48 160.69 258.86C161.22 256.24 162 210.13 162.26 205.14C162.52 200.15 159.93 187.14 153.7 179.85C151.99 177.85 132.86 174.32 132.86 174.32C132.86 174.32 119.73 170.14 112.9 173.81Z" fill="white" stroke="#263238" stroke-linecap="round" stroke-linejoin="round"/>
<path d="M129.33 186.09L136.45 195.72L133.94 254.35C133.94 254.35 139.38 261.47 140.22 262.73C141.06 263.99 147.76 252.68 147.76 252.68L139.76 196.56L143.11 186.51L141.21 180.63L131.8 177.71L129.33 186.09Z" fill="#263238" stroke="#263238" stroke-linecap="round" stroke-linejoin="round"/>
<path d="M135.42 219.77L142.45 215.24L141.24 206.71L135.83 210.19L135.42 219.77Z" fill="#263238"/>
<path d="M136.45 195.72L136.3 199.23L139.84 196.85L139.8 196.56L143.15 186.51L142.81 185.45L133.48 191.7L136.45 195.72Z" fill="#263238"/>
<path d="M147.76 252.68L146.76 245.91L134 252.12L133.91 254.35C133.91 254.35 135.8 256.82 137.52 259.11L146.45 254.77C147.24 253.54 147.76 252.68 147.76 252.68Z" fill="#263238"/>
<path d="M134.9 231.93L134.48 241.61L145.18 234.48L143.96 225.89L134.9 231.93Z" fill="#263238"/>
<path d="M99.78 235.77L109.49 214.24" stroke="#263238" stroke-linecap="round" stroke-linejoin="round"/>
<path d="M138.15 189.62L143.42 173.8L136.4 170.29L138.15 189.62Z" fill="white" stroke="#263238" stroke-linecap="round" stroke-linejoin="round"/>
<path d="M143.42 173.8L150.45 182.37L141.25 180.63L143.42 173.8Z" fill="white" stroke="#263238" stroke-linecap="round" stroke-linejoin="round"/>
<path d="M135.3 124.17C135.3 124.17 137.71 134.27 140.3 140.17C142.89 146.07 143.59 149.83 142.72 155.76C141.85 161.69 141.84 164.33 140.52 164.99C138.953 165.575 137.337 166.017 135.69 166.31L138.1 189.59L132.61 181.9L114.87 165L105.21 139.3C105.21 139.3 100.21 133.15 106.75 125.47C113.29 117.79 130.91 118.68 135.3 124.17Z" fill="white" stroke="#263238" stroke-linecap="round" stroke-linejoin="round"/>
<path d="M107.63 147L110.7 145.68C109.939 145.008 109.374 144.144 109.064 143.177C108.754 142.211 108.711 141.179 108.94 140.19C109.82 136.9 118.83 134.92 117.73 132.28C116.63 129.64 106.31 129.21 113.12 126.13C119.93 123.05 132 127.23 135.96 127.67C139.92 128.11 136.18 119.55 136.18 119.55C136.18 119.55 143.18 118.23 137.71 113.18C132.24 108.13 109.6 111.18 103.23 118.01C96.86 124.84 98.23 130.31 100.16 134.01C102.09 137.71 105.65 146.53 105.65 146.53L107.63 147Z" fill="#263238" stroke="#263238" stroke-linecap="round" stroke-linejoin="round"/>
<path d="M110.7 148.33C110.7 148.33 106.31 143.71 103.89 145.91C101.47 148.11 104.99 153.6 107.89 155.57C110.79 157.54 113.38 155.13 113.38 155.13" fill="white"/>
<path d="M110.7 148.33C110.7 148.33 106.31 143.71 103.89 145.91C101.47 148.11 104.99 153.6 107.89 155.57C110.79 157.54 113.38 155.13 113.38 155.13" stroke="#263238" stroke-linecap="round" stroke-linejoin="round"/>
<path d="M135.3 132.51C135.3 132.51 133.1 130.76 132 133.17C131.352 134.771 131.199 136.53 131.56 138.22L138.56 148.77L131.75 150.3" stroke="#263238" stroke-linecap="round" stroke-linejoin="round"/>
<path d="M134.2 154.48C132.644 155.021 130.973 155.143 129.354 154.834C127.736 154.526 126.227 153.796 124.98 152.72" stroke="#263238" stroke-linecap="round" stroke-linejoin="round"/>
<path d="M126.07 134.49C126.07 134.49 120.36 132.29 117.51 137.56" stroke="#263238" stroke-linecap="round" stroke-linejoin="round"/>
<path d="M125.52 143.72C126.31 143.72 126.95 142.735 126.95 141.52C126.95 140.305 126.31 139.32 125.52 139.32C124.73 139.32 124.09 140.305 124.09 141.52C124.09 142.735 124.73 143.72 125.52 143.72Z" fill="#263238"/>
<path d="M137.93 138.66C137.93 139.88 137.29 140.86 136.51 140.86C135.73 140.86 135.08 139.86 135.08 138.66C135.08 137.46 135.72 136.47 136.51 136.47C137.3 136.47 137.93 137.45 137.93 138.66Z" fill="#263238"/>
<path d="M135.74 166.34L125.64 165.46L136.84 179.95L135.74 166.34Z" fill="#263238" stroke="#263238" stroke-miterlimit="10"/>
<path d="M114.87 165.02L110.26 173.14L124.76 194.01L132.66 181.93L114.87 165.02Z" fill="white" stroke="#263238" stroke-linecap="round" stroke-linejoin="round"/>
<path d="M79.78 308.69H94.7C95.2655 308.69 95.8255 308.801 96.3478 309.018C96.8702 309.235 97.3447 309.553 97.7441 309.953C98.1435 310.353 98.46 310.828 98.6755 311.351C98.8911 311.874 99.0013 312.434 99 313V323H75.48V313C75.4787 312.434 75.5889 311.874 75.8044 311.351C76.0199 310.828 76.3365 310.353 76.7359 309.953C77.1353 309.553 77.6098 309.235 78.1321 309.018C78.6545 308.801 79.2145 308.69 79.78 308.69V308.69Z" stroke="#263238" stroke-width="4" stroke-linecap="round" stroke-linejoin="round"/>
<path d="M116.51 320.11H57.33C54.1709 320.11 51.61 322.671 51.61 325.83V361.56C51.61 364.719 54.1709 367.28 57.33 367.28H116.51C119.669 367.28 122.23 364.719 122.23 361.56V325.83C122.23 322.671 119.669 320.11 116.51 320.11Z" fill="#636363" stroke="#263238" stroke-linecap="round" stroke-linejoin="round"/>
<path d="M90.85 297C90.85 297 92.69 299.88 94.52 302.51C96.35 305.14 99.78 306.45 99.52 307.76C99.3508 308.37 98.9618 308.895 98.4282 309.235C97.8945 309.574 97.2539 309.705 96.63 309.6C95.58 309.34 91.38 305.92 91.38 305.92L92.17 312.75C92.17 312.75 93.17 315.11 91.38 315.9C89.59 316.69 86.92 316.69 86.38 315.9C85.9884 315.229 85.6539 314.527 85.38 313.8C85.38 313.8 80.91 313.8 79.6 313.01C78.29 312.22 76.71 310.91 76.97 307.5C77.23 304.09 79.34 297.5 79.34 297.5L90.85 297Z" fill="white" stroke="#263238" stroke-linecap="round" stroke-linejoin="round"/>
</svg>
