<?xml version="1.0" ?><svg id="Capa_1" style="enable-background:new 0 0 512 512;" version="1.1" viewBox="0 0 512 512" xml:space="preserve" xmlns="http://www.w3.org/2000/svg" xmlns:xlink="http://www.w3.org/1999/xlink"><g><path d="M386,10c16.57,0,30,13.43,30,30c0,8.28-3.36,15.78-8.79,21.21C401.78,66.64,394.28,70,386,70h-10   H136h-10c-16.57,0-30-13.43-30-30c0-8.28,3.36-15.78,8.79-21.21S117.72,10,126,10H386z" style="fill:#57555C;"/><path d="M386,442c16.57,0,30,13.43,30,30c0,8.28-3.36,15.78-8.79,21.21c-5.43,5.43-12.93,8.79-21.21,8.79   H126c-16.57,0-30-13.43-30-30c0-8.28,3.36-15.78,8.79-21.21S117.72,442,126,442h10h240H386z" style="fill:#57555C;"/></g><g><path d="M376,70l-8.96,89.61c-0.04,0.38-0.09,0.76-0.14,1.13H145.1c-0.05-0.37-0.1-0.75-0.14-1.13L136,70   H376z" style="fill:#C0E3F0;"/><path d="M367.04,358.39c-3.14-28.29-16.67-53.14-36.53-70.91C310.66,269.7,284.46,259,256,259   c-56.93,0-104.76,42.81-111.04,99.39L136,442h240L367.04,358.39z" style="fill:#C0E3F0;"/></g><g><path d="M376,442H136l115.05-61.69c3.25-0.86,6.66-0.89,9.92-0.08L376,442z" style="fill:#FEB756;"/><path d="M145.1,160.74h221.8C360.12,216.76,312.55,259,256,259S151.88,216.76,145.1,160.74z" style="fill:#FEB756;"/></g><path d="M256,349c5.52,0,10-4.48,10-10s-4.48-10-10-10c-5.52,0-10,4.48-10,10S250.48,349,256,349z"/><path d="M386,432h-1.015l-8.006-74.714c-3.31-29.817-17.445-57.255-39.797-77.254c-9.845-8.819-20.952-15.889-32.864-21.042  c38.59-16.737,67.142-52.945,72.5-96.976c0.006-0.045,0.012-0.092,0.018-0.138c0.006-0.049,0.014-0.097,0.019-0.147  c0.047-0.358,0.093-0.725,0.135-1.125L385.05,80H386c10.68,0,20.723-4.162,28.281-11.719C421.838,60.725,426,50.681,426,40  c0-22.056-17.944-40-40-40H126c-10.68,0-20.723,4.162-28.281,11.719C90.162,19.275,86,29.319,86,40c0,22.056,17.944,40,40,40h0.95  l8.065,80.658c0.037,0.351,0.083,0.699,0.128,1.045c0.006,0.068,0.017,0.135,0.025,0.202c0.005,0.036,0.009,0.073,0.013,0.109  c5.356,44.017,33.891,80.216,72.463,96.96c-39.015,16.871-67.662,53.617-72.627,98.35L127.015,432H126  c-10.68,0-20.723,4.162-28.281,11.719C90.162,451.275,86,461.319,86,472c0,22.056,17.944,40,40,40h260  c10.68,0,20.723-4.162,28.281-11.719C421.838,492.725,426,482.681,426,472C426,449.944,408.056,432,386,432z M154.123,150.74  L147.05,80h217.9l-7.073,70.74L154.123,150.74L154.123,150.74z M106,40c0-5.338,2.082-10.359,5.861-14.139  C115.641,22.082,120.662,20,126,20h260c11.028,0,20,8.972,20,20c0,5.338-2.082,10.359-5.861,14.139  C396.359,57.918,391.338,60,386,60h-10H136h-10C114.972,60,106,51.028,106,40z M157.047,170.74h197.906  C344.244,216.063,303.551,249,256,249S167.756,216.063,157.047,170.74z M246,269.489V299c0,5.522,4.477,10,10,10  c5.523,0,10-4.478,10-10v-29.497c21.426,2.108,41.669,10.943,57.842,25.429c18.682,16.715,30.494,39.644,33.255,64.522l6.941,64.771  l-98.337-52.806c-0.732-0.393-1.511-0.693-2.318-0.894c-4.873-1.212-10.021-1.171-14.889,0.115  c-0.754,0.199-1.482,0.486-2.169,0.854L147.96,424.24l6.938-64.747C160.253,311.254,198.603,274.111,246,269.489z M336.24,432  H175.812l78.748-42.226c0.987-0.16,1.994-0.171,2.979-0.036L336.24,432z M400.139,486.139C396.359,489.918,391.338,492,386,492H126  c-11.028,0-20-8.972-20-20c0-5.338,2.082-10.359,5.861-14.139c3.78-3.779,8.801-5.861,14.139-5.861h9.926c0.021,0,0.042,0,0.064,0  H136h239.959c0.011,0,0.022,0.002,0.032,0.002S376.01,452,376.02,452H386c11.028,0,20,8.972,20,20  C406,477.338,403.918,482.359,400.139,486.139z"/><g/><g/><g/><g/><g/><g/><g/><g/><g/><g/><g/><g/><g/><g/><g/></svg>