<svg width="782" height="613" viewBox="0 0 782 613" fill="none" xmlns="http://www.w3.org/2000/svg">
<path d="M782 468.822H0V469.129H782V468.822Z" fill="#FAFAFA"/>
<path d="M661.916 482.161H623.082V482.468H661.916V482.161Z" fill="#E0E0E0"/>
<path d="M686.518 482.001H673.396V482.308H686.518V482.001Z" fill="#E0E0E0"/>
<path d="M519.295 484.062H437.983V484.368H519.295V484.062Z" fill="#E0E0E0"/>
<path d="M418.792 487.384H406.671V487.69H418.792V487.384Z" fill="#E0E0E0"/>
<path d="M175.09 477.686H154.195V477.993H175.09V477.686Z" fill="#E0E0E0"/>
<path d="M289.747 477.686H183.77V477.993H289.747V477.686Z" fill="#E0E0E0"/>
<path d="M199.41 485.091H125.683V485.398H199.41V485.091Z" fill="#E0E0E0"/>
<path d="M370.668 414.142H68.6752C66.3094 414.139 64.042 413.4 62.3706 412.088C60.6992 410.775 59.7604 408.997 59.7604 407.142V74.3688C59.781 72.525 60.7289 70.7619 62.398 69.4627C64.0672 68.1634 66.3229 67.4328 68.6752 67.4297H370.668C373.037 67.4297 375.308 68.1672 376.983 69.4801C378.658 70.7929 379.598 72.5735 379.598 74.4301V407.142C379.598 408.999 378.658 410.779 376.983 412.092C375.308 413.405 373.037 414.142 370.668 414.142V414.142ZM68.6752 67.6749C66.4131 67.6781 64.2451 68.3848 62.6471 69.6398C61.049 70.8948 60.1514 72.5956 60.1514 74.3688V407.142C60.1514 408.915 61.049 410.616 62.6471 411.871C64.2451 413.126 66.4131 413.833 68.6752 413.836H370.668C372.932 413.833 375.101 413.126 376.702 411.872C378.302 410.617 379.203 408.916 379.207 407.142V74.3688C379.203 72.5945 378.302 70.8937 376.702 69.6391C375.101 68.3844 372.932 67.6781 370.668 67.6749H68.6752Z" fill="#E0E0E0"/>
<path d="M708.977 414.142H406.968C404.601 414.139 402.332 413.401 400.658 412.089C398.984 410.776 398.042 408.998 398.038 407.142V74.3688C398.063 72.5239 399.014 70.7608 400.686 69.4619C402.357 68.163 404.615 67.4328 406.968 67.4297H708.977C711.326 67.4361 713.578 68.168 715.244 69.467C716.91 70.7659 717.855 72.5271 717.876 74.3688V407.142C717.876 408.994 716.939 410.771 715.271 412.083C713.603 413.396 711.34 414.136 708.977 414.142V414.142ZM406.968 67.6749C404.705 67.6781 402.535 68.3844 400.935 69.6391C399.334 70.8937 398.433 72.5945 398.429 74.3688V407.142C398.433 408.916 399.334 410.617 400.935 411.872C402.535 413.126 404.705 413.833 406.968 413.836H708.977C711.24 413.833 713.41 413.126 715.011 411.872C716.611 410.617 717.512 408.916 717.516 407.142V74.3688C717.512 72.5945 716.611 70.8937 715.011 69.6391C713.41 68.3844 711.24 67.6781 708.977 67.6749H406.968Z" fill="#E0E0E0"/>
<path d="M534.497 468.822H589.753V390.211H534.497V468.822Z" fill="#E0E0E0"/>
<path d="M655.676 390.211H589.753V468.822H655.676V390.211Z" fill="#EBEBEB"/>
<g style="mix-blend-mode:multiply" opacity="0.7">
<path d="M534.497 400.423H656.254V396.868H534.497V400.423Z" fill="#E0E0E0"/>
</g>
<path d="M531.447 398.352H589.753V381.972H531.447V398.352Z" fill="#E0E0E0"/>
<path d="M658.725 381.984H589.753V398.364H658.725V381.984Z" fill="#EBEBEB"/>
<path d="M303.51 90.7109H117.503V264.68H303.51V90.7109Z" fill="#E0E0E0"/>
<path d="M312.034 90.7109H121.492V264.68H312.034V90.7109Z" fill="#EBEBEB"/>
<path d="M303.51 264.681H117.503V277.076H303.51V264.681Z" fill="#E0E0E0"/>
<path d="M326.204 264.681H135.661V277.076H326.204V264.681Z" fill="#EBEBEB"/>
<path d="M300.116 255.339V100.054L133.409 100.054V255.339H300.116Z" fill="#F5F5F5"/>
<path d="M153.866 255.339L223.793 100.054H256.793L186.882 255.339H153.866Z" fill="#FAFAFA"/>
<path d="M138.915 202.657C138.689 202.654 138.474 202.582 138.316 202.455C138.158 202.329 138.07 202.16 138.07 201.983V106.122C138.07 105.946 138.159 105.778 138.317 105.654C138.476 105.53 138.691 105.46 138.915 105.46C139.14 105.46 139.356 105.529 139.517 105.653C139.678 105.777 139.771 105.945 139.775 106.122V201.983C139.775 202.162 139.684 202.333 139.523 202.46C139.361 202.586 139.143 202.657 138.915 202.657V202.657Z" fill="#EBEBEB"/>
<path d="M193.967 255.339L263.894 100.054H276.765L206.839 255.339H193.967Z" fill="#FAFAFA"/>
<path d="M300.1 255.339V100.054H298.583V255.339H300.1Z" fill="#E0E0E0"/>
<path d="M314.833 111.995H128.842L127.747 103.683H313.738L314.833 111.995Z" fill="#E0E0E0"/>
<path d="M314.833 118.088H128.842L127.747 109.764H313.738L314.833 118.088Z" fill="#E0E0E0"/>
<path d="M314.833 125.395H128.842L127.747 117.07H313.738L314.833 125.395Z" fill="#E0E0E0"/>
<path d="M314.833 133.523H128.842L127.747 125.211H313.738L314.833 133.523Z" fill="#E0E0E0"/>
<path d="M314.833 143.27H128.842L127.747 134.945H313.738L314.833 143.27Z" fill="#E0E0E0"/>
<path d="M314.833 154.219H128.842L127.747 145.906H313.738L314.833 154.219Z" fill="#E0E0E0"/>
<path d="M641.803 90.7109H455.797V264.68H641.803V90.7109Z" fill="#E0E0E0"/>
<path d="M650.311 90.7109H459.769V264.68H650.311V90.7109Z" fill="#EBEBEB"/>
<path d="M641.803 264.681H455.797V277.076H641.803V264.681Z" fill="#E0E0E0"/>
<path d="M664.497 264.681H473.955V277.076H664.497V264.681Z" fill="#EBEBEB"/>
<path d="M638.409 255.339V100.054L471.702 100.054V255.339H638.409Z" fill="#F5F5F5"/>
<path d="M492.16 255.339L562.086 100.054H595.086L525.16 255.339H492.16Z" fill="#FAFAFA"/>
<path d="M477.208 202.657C476.982 202.654 476.767 202.582 476.61 202.455C476.452 202.329 476.363 202.16 476.363 201.983V106.122C476.363 105.946 476.452 105.778 476.61 105.654C476.769 105.53 476.984 105.46 477.208 105.46C477.432 105.46 477.646 105.53 477.805 105.654C477.963 105.778 478.052 105.946 478.052 106.122V201.983C478.052 202.16 477.964 202.329 477.806 202.455C477.648 202.582 477.433 202.654 477.208 202.657V202.657Z" fill="#EBEBEB"/>
<path d="M532.26 255.339L602.187 100.054H615.043L545.132 255.339H532.26Z" fill="#FAFAFA"/>
<path d="M638.394 255.339V100.054H636.876V255.339H638.394Z" fill="#E0E0E0"/>
<path d="M653.126 111.995H467.136L466.025 103.683H652.032L653.126 111.995Z" fill="#E0E0E0"/>
<path d="M653.126 118.088H467.136L466.025 109.764H652.032L653.126 118.088Z" fill="#E0E0E0"/>
<path d="M653.126 125.395H467.136L466.025 117.07H652.032L653.126 125.395Z" fill="#E0E0E0"/>
<path d="M653.126 133.523H467.136L466.025 125.211H652.032L653.126 133.523Z" fill="#E0E0E0"/>
<path d="M653.126 143.27H467.136L466.025 134.945H652.032L653.126 143.27Z" fill="#E0E0E0"/>
<path d="M653.126 154.219H467.136L466.025 145.906H652.032L653.126 154.219Z" fill="#E0E0E0"/>
<path d="M497.415 358.556H460.27V468.822H497.415V358.556Z" fill="#E0E0E0"/>
<path d="M490.345 468.822H497.399V455.312H482.948L490.345 468.822Z" fill="#F5F5F5"/>
<path d="M136.944 358.556H99.7988V468.822H136.944V358.556Z" fill="#E0E0E0"/>
<path d="M497.415 358.556H130.782V461.393H497.415V358.556Z" fill="#F5F5F5"/>
<path d="M316.46 363.705V437.142H491.941V363.705H316.46Z" fill="#E0E0E0"/>
<path d="M136.256 363.705V437.142H311.736V363.705H136.256Z" fill="#E0E0E0"/>
<path d="M491.925 452.663V444.486H316.444V452.663H491.925Z" fill="#E0E0E0"/>
<path d="M311.721 452.675V444.498H136.24V452.675H311.721Z" fill="#E0E0E0"/>
<path d="M285.79 368.094H162.234C159.49 368.095 156.775 367.662 154.251 366.819C151.727 365.976 149.447 364.742 147.548 363.19H300.538C298.632 364.748 296.341 365.986 293.806 366.829C291.271 367.672 288.544 368.102 285.79 368.094V368.094Z" fill="#F5F5F5"/>
<path d="M466.651 368.094H343.095C340.351 368.095 337.636 367.662 335.112 366.819C332.588 365.976 330.308 364.742 328.409 363.19H481.399C479.496 364.751 477.206 365.991 474.67 366.835C472.134 367.678 469.405 368.106 466.651 368.094Z" fill="#F5F5F5"/>
<path d="M137.835 468.822H130.766V455.312H145.217L137.835 468.822Z" fill="#F5F5F5"/>
<g style="mix-blend-mode:multiply" opacity="0.4">
<path d="M399.696 290.855H358.344V358.555H399.696V290.855Z" fill="#E0E0E0"/>
</g>
<path d="M434.432 358.556H364.443L357.859 285.449H427.832L434.432 358.556Z" fill="#E0E0E0"/>
<path d="M442.393 358.556H366.43L359.845 285.449H435.793L442.393 358.556Z" fill="#F5F5F5"/>
<path d="M369.949 355.76L363.865 288.244H432.29L438.389 355.76H369.949Z" fill="#FAFAFA"/>
<path d="M386.511 340.644L383.149 303.361H415.727L419.089 340.644H386.511Z" fill="#F5F5F5"/>
<path d="M249.223 346.553C259.26 346.553 267.397 340.175 267.397 332.307C267.397 324.439 259.26 318.061 249.223 318.061C239.186 318.061 231.05 324.439 231.05 332.307C231.05 340.175 239.186 346.553 249.223 346.553Z" fill="#EBEBEB"/>
<path d="M280.347 353.345C290.384 353.345 298.521 346.967 298.521 339.099C298.521 331.231 290.384 324.853 280.347 324.853C270.31 324.853 262.173 331.231 262.173 339.099C262.173 346.967 270.31 353.345 280.347 353.345Z" fill="#EBEBEB"/>
<path d="M311.272 341.937C317.461 339.938 320.412 334.384 317.862 329.532C315.312 324.68 308.227 322.367 302.038 324.366C295.848 326.365 292.898 331.919 295.448 336.771C297.997 341.622 305.082 343.935 311.272 341.937Z" fill="#EBEBEB"/>
<path d="M279.394 325.218C280.464 320.038 275.975 315.158 269.367 314.319C262.759 313.48 256.534 316.999 255.464 322.179C254.394 327.359 258.883 332.239 265.491 333.078C272.099 333.917 278.324 330.398 279.394 325.218Z" fill="#EBEBEB"/>
<path d="M220.164 336.549C220.164 336.549 221.588 358.556 276.124 358.556C330.661 358.556 332.084 336.549 332.084 336.549H220.164Z" fill="#E0E0E0"/>
<path d="M169.803 351.016C169.803 351.016 152.036 327.011 176.685 307.897C176.685 307.897 183.113 311.183 182.941 315.609C182.769 320.035 176.044 321.138 177.498 324.829C178.953 328.519 185.318 332.185 181.174 335.188C177.029 338.192 181.846 340.938 181.565 344.677C181.283 348.417 169.803 351.016 169.803 351.016Z" fill="#E0E0E0"/>
<path d="M171.149 353.211C171.149 353.211 178.343 326.042 147.266 313.979C147.266 313.979 142.48 318.699 144.357 322.867C146.234 327.035 153.116 326.41 153.225 330.223C153.335 334.036 148.689 339.099 153.913 340.951C159.137 342.802 155.587 346.59 157.354 350.06C159.121 353.529 171.149 353.211 171.149 353.211Z" fill="#E0E0E0"/>
<path d="M143.888 340.644C143.888 340.644 144.482 358.555 167.129 358.555C189.776 358.555 190.37 340.644 190.37 340.644H143.888Z" fill="#EBEBEB"/>
<path d="M391 524.189C558.477 524.189 694.244 517.975 694.244 510.31C694.244 502.646 558.477 496.432 391 496.432C223.523 496.432 87.756 502.646 87.756 510.31C87.756 517.975 223.523 524.189 391 524.189Z" fill="#F5F5F5"/>
<path d="M282.224 334.012C281.297 333.964 280.427 333.642 279.792 333.11C279.157 332.579 278.803 331.878 278.803 331.149C278.803 330.421 279.157 329.72 279.792 329.188C280.427 328.656 281.297 328.334 282.224 328.286C291.17 328.286 298.708 318.245 298.708 306.353C298.769 305.626 299.18 304.945 299.858 304.447C300.537 303.949 301.431 303.672 302.36 303.672C303.29 303.672 304.184 303.949 304.862 304.447C305.54 304.945 305.952 305.626 306.012 306.353C306.012 321.862 295.596 334.012 282.224 334.012Z" fill="#263238"/>
<path d="M337.417 334.012C336.49 333.964 335.621 333.642 334.985 333.11C334.35 332.579 333.997 331.878 333.997 331.149C333.997 330.421 334.35 329.72 334.985 329.188C335.621 328.656 336.49 328.334 337.417 328.286C346.363 328.286 353.902 318.245 353.902 306.353C353.963 305.626 354.374 304.945 355.052 304.447C355.73 303.949 356.625 303.672 357.554 303.672C358.483 303.672 359.378 303.949 360.056 304.447C360.734 304.945 361.145 305.626 361.206 306.353C361.284 321.862 350.758 334.012 337.417 334.012Z" fill="#263238"/>
<path d="M392.564 334.012C391.637 333.965 390.767 333.642 390.132 333.111C389.497 332.579 389.143 331.878 389.143 331.15C389.143 330.421 389.497 329.72 390.132 329.188C390.767 328.657 391.637 328.334 392.564 328.287C401.494 328.287 409.049 318.246 409.049 306.354C409.049 305.596 409.432 304.869 410.116 304.334C410.799 303.798 411.726 303.497 412.693 303.497C413.659 303.497 414.586 303.798 415.269 304.334C415.953 304.869 416.337 305.596 416.337 306.354C416.384 321.863 405.952 334.012 392.564 334.012Z" fill="#263238"/>
<path d="M447.805 334.012C447.305 334.038 446.804 333.983 446.332 333.851C445.861 333.718 445.429 333.512 445.064 333.243C444.698 332.975 444.407 332.651 444.208 332.291C444.008 331.93 443.906 331.542 443.906 331.15C443.906 330.757 444.008 330.369 444.208 330.008C444.407 329.648 444.698 329.324 445.064 329.056C445.429 328.787 445.861 328.581 446.332 328.448C446.804 328.316 447.305 328.261 447.805 328.287C456.735 328.287 464.289 318.246 464.289 306.354C464.289 305.596 464.673 304.869 465.356 304.334C466.04 303.798 466.967 303.497 467.933 303.497C468.9 303.497 469.827 303.798 470.51 304.334C471.193 304.869 471.577 305.596 471.577 306.354C471.577 321.863 461.13 334.012 447.805 334.012Z" fill="#263238"/>
<path d="M502.982 334.012C502.055 333.964 501.186 333.642 500.55 333.11C499.915 332.579 499.562 331.878 499.562 331.149C499.562 330.421 499.915 329.72 500.55 329.188C501.186 328.656 502.055 328.334 502.982 328.286C511.928 328.286 519.467 318.245 519.467 306.353C519.528 305.626 519.939 304.945 520.617 304.447C521.295 303.949 522.19 303.672 523.119 303.672C524.048 303.672 524.943 303.949 525.621 304.447C526.299 304.945 526.71 305.626 526.771 306.353C526.771 321.862 516.323 334.012 502.982 334.012Z" fill="#263238"/>
<path d="M558.176 334.012C557.249 333.964 556.379 333.642 555.744 333.11C555.109 332.579 554.755 331.878 554.755 331.149C554.755 330.421 555.109 329.72 555.744 329.188C556.379 328.656 557.249 328.334 558.176 328.286C567.106 328.286 574.661 318.245 574.661 306.353C574.721 305.626 575.132 304.945 575.811 304.447C576.489 303.949 577.383 303.672 578.313 303.672C579.242 303.672 580.136 303.949 580.814 304.447C581.493 304.945 581.904 305.626 581.964 306.353C581.964 321.862 571.517 334.012 558.176 334.012Z" fill="#263238"/>
<g opacity="0.3">
<path d="M282.224 334.012C281.297 333.964 280.427 333.642 279.792 333.11C279.157 332.579 278.803 331.878 278.803 331.149C278.803 330.421 279.157 329.72 279.792 329.188C280.427 328.656 281.297 328.334 282.224 328.286C291.17 328.286 298.708 318.245 298.708 306.353C298.769 305.626 299.18 304.945 299.858 304.447C300.537 303.949 301.431 303.672 302.36 303.672C303.29 303.672 304.184 303.949 304.862 304.447C305.54 304.945 305.952 305.626 306.012 306.353C306.012 321.862 295.596 334.012 282.224 334.012Z" fill="black"/>
<path d="M337.417 334.012C336.49 333.964 335.621 333.642 334.985 333.11C334.35 332.579 333.997 331.878 333.997 331.149C333.997 330.421 334.35 329.72 334.985 329.188C335.621 328.656 336.49 328.334 337.417 328.286C346.363 328.286 353.902 318.245 353.902 306.353C353.963 305.626 354.374 304.945 355.052 304.447C355.73 303.949 356.625 303.672 357.554 303.672C358.483 303.672 359.378 303.949 360.056 304.447C360.734 304.945 361.145 305.626 361.206 306.353C361.284 321.862 350.758 334.012 337.417 334.012Z" fill="black"/>
<path d="M392.564 334.012C391.637 333.965 390.767 333.642 390.132 333.111C389.497 332.579 389.143 331.878 389.143 331.15C389.143 330.421 389.497 329.72 390.132 329.188C390.767 328.657 391.637 328.334 392.564 328.287C401.494 328.287 409.049 318.246 409.049 306.354C409.049 305.596 409.432 304.869 410.116 304.334C410.799 303.798 411.726 303.497 412.693 303.497C413.659 303.497 414.586 303.798 415.269 304.334C415.953 304.869 416.337 305.596 416.337 306.354C416.384 321.863 405.952 334.012 392.564 334.012Z" fill="black"/>
<path d="M447.805 334.012C447.305 334.038 446.804 333.983 446.332 333.851C445.861 333.718 445.429 333.512 445.064 333.243C444.698 332.975 444.407 332.651 444.208 332.291C444.008 331.93 443.906 331.542 443.906 331.15C443.906 330.757 444.008 330.369 444.208 330.008C444.407 329.648 444.698 329.324 445.064 329.056C445.429 328.787 445.861 328.581 446.332 328.448C446.804 328.316 447.305 328.261 447.805 328.287C456.735 328.287 464.289 318.246 464.289 306.354C464.289 305.596 464.673 304.869 465.356 304.334C466.04 303.798 466.967 303.497 467.933 303.497C468.9 303.497 469.827 303.798 470.51 304.334C471.193 304.869 471.577 305.596 471.577 306.354C471.577 321.863 461.13 334.012 447.805 334.012Z" fill="black"/>
<path d="M502.982 334.012C502.055 333.964 501.186 333.642 500.55 333.11C499.915 332.579 499.562 331.878 499.562 331.149C499.562 330.421 499.915 329.72 500.55 329.188C501.186 328.656 502.055 328.334 502.982 328.286C511.928 328.286 519.467 318.245 519.467 306.353C519.528 305.626 519.939 304.945 520.617 304.447C521.295 303.949 522.19 303.672 523.119 303.672C524.048 303.672 524.943 303.949 525.621 304.447C526.299 304.945 526.71 305.626 526.771 306.353C526.771 321.862 516.323 334.012 502.982 334.012Z" fill="black"/>
<path d="M558.176 334.012C557.249 333.964 556.379 333.642 555.744 333.11C555.109 332.579 554.755 331.878 554.755 331.149C554.755 330.421 555.109 329.72 555.744 329.188C556.379 328.656 557.249 328.334 558.176 328.286C567.106 328.286 574.661 318.245 574.661 306.353C574.721 305.626 575.132 304.945 575.811 304.447C576.489 303.949 577.383 303.672 578.313 303.672C579.242 303.672 580.136 303.949 580.814 304.447C581.493 304.945 581.904 305.626 581.964 306.353C581.964 321.862 571.517 334.012 558.176 334.012Z" fill="black"/>
</g>
<path d="M247.644 309.284H602.953C607.717 309.359 612.283 310.793 615.793 313.319C619.303 315.845 621.517 319.288 622.018 323.003L641.694 496.886C641.933 498.631 641.697 500.396 641.001 502.064C640.306 503.732 639.166 505.265 637.658 506.562C636.15 507.858 634.308 508.89 632.253 509.587C630.199 510.284 627.979 510.631 625.741 510.605H270.416C265.654 510.525 261.092 509.088 257.583 506.564C254.074 504.039 251.859 500.599 251.35 496.886L231.691 323.003C231.449 321.258 231.683 319.492 232.378 317.823C233.073 316.154 234.212 314.621 235.721 313.323C237.229 312.026 239.072 310.995 241.128 310.298C243.184 309.602 245.405 309.256 247.644 309.284Z" fill="#263238"/>
<path opacity="0.4" d="M247.644 309.284H602.953C607.717 309.359 612.283 310.793 615.793 313.319C619.303 315.845 621.517 319.288 622.018 323.003L641.694 496.886C641.933 498.631 641.697 500.396 641.001 502.064C640.306 503.732 639.166 505.265 637.658 506.562C636.15 507.858 634.308 508.89 632.253 509.587C630.199 510.284 627.979 510.631 625.741 510.605H270.416C265.654 510.525 261.092 509.088 257.583 506.564C254.074 504.039 251.859 500.599 251.35 496.886L231.691 323.003C231.449 321.258 231.683 319.492 232.378 317.823C233.073 316.154 234.212 314.621 235.721 313.323C237.229 312.026 239.072 310.995 241.128 310.298C243.184 309.602 245.405 309.256 247.644 309.284Z" fill="#FAFAFA"/>
<path d="M599.997 309.283H244.672C239.972 309.327 235.469 310.768 232.072 313.315C228.675 315.861 226.639 319.324 226.373 323.002L216.364 496.886C216.244 498.657 216.588 500.429 217.373 502.093C218.158 503.757 219.368 505.277 220.928 506.562C222.489 507.846 224.368 508.867 226.45 509.562C228.532 510.258 230.773 510.612 233.036 510.605H588.392C593.092 510.561 597.596 509.12 600.992 506.574C604.389 504.027 606.426 500.565 606.691 496.886L616.716 323.002C616.834 321.228 616.487 319.454 615.699 317.789C614.91 316.123 613.696 314.602 612.13 313.317C610.565 312.032 608.681 311.012 606.595 310.319C604.509 309.625 602.264 309.273 599.997 309.283V309.283Z" fill="#263238"/>
<path opacity="0.2" d="M599.997 309.283H244.672C239.972 309.327 235.469 310.768 232.072 313.315C228.675 315.861 226.639 319.324 226.373 323.002L216.364 496.886C216.244 498.657 216.588 500.429 217.373 502.093C218.158 503.757 219.368 505.277 220.928 506.562C222.489 507.846 224.368 508.867 226.45 509.562C228.532 510.258 230.773 510.612 233.036 510.605H588.392C593.092 510.561 597.596 509.12 600.992 506.574C604.389 504.027 606.426 500.565 606.691 496.886L616.716 323.002C616.834 321.228 616.487 319.454 615.699 317.789C614.91 316.123 613.696 314.602 612.13 313.317C610.565 312.032 608.681 311.012 606.595 310.319C604.509 309.625 602.264 309.273 599.997 309.283V309.283Z" fill="#FAFAFA"/>
<path d="M251.194 464.654L259.468 321.053C259.567 319.644 260.346 318.318 261.648 317.344C262.949 316.369 264.675 315.819 266.474 315.806H577.444C578.311 315.802 579.17 315.936 579.968 316.201C580.767 316.467 581.487 316.857 582.086 317.348C582.685 317.839 583.15 318.421 583.452 319.059C583.753 319.696 583.886 320.374 583.841 321.053L575.552 464.654C575.453 466.063 574.673 467.389 573.372 468.364C572.071 469.338 570.345 469.888 568.545 469.902H257.591C256.724 469.906 255.865 469.771 255.067 469.506C254.269 469.241 253.548 468.851 252.949 468.359C252.35 467.868 251.885 467.286 251.584 466.649C251.282 466.012 251.149 465.333 251.194 464.654V464.654Z" fill="#263238"/>
<path opacity="0.1" d="M251.194 464.654L259.468 321.053C259.567 319.644 260.346 318.318 261.648 317.344C262.949 316.369 264.675 315.819 266.474 315.806H577.444C578.311 315.802 579.17 315.936 579.968 316.201C580.767 316.467 581.487 316.857 582.086 317.348C582.685 317.839 583.15 318.421 583.452 319.059C583.753 319.696 583.886 320.374 583.841 321.053L575.552 464.654C575.453 466.063 574.673 467.389 573.372 468.364C572.071 469.338 570.345 469.888 568.545 469.902H257.591C256.724 469.906 255.865 469.771 255.067 469.506C254.269 469.241 253.548 468.851 252.949 468.359C252.35 467.868 251.885 467.286 251.584 466.649C251.282 466.012 251.149 465.333 251.194 464.654V464.654Z" fill="#FAFAFA"/>
<path opacity="0.1" d="M242.42 476.375L251.1 325.577C251.2 324.098 252.016 322.705 253.382 321.682C254.749 320.658 256.562 320.083 258.451 320.072H585.014C585.924 320.066 586.826 320.207 587.664 320.484C588.503 320.762 589.259 321.171 589.888 321.687C590.517 322.203 591.004 322.814 591.32 323.483C591.635 324.152 591.773 324.865 591.724 325.577L583.028 476.375C582.929 477.853 582.115 479.246 580.753 480.271C579.39 481.296 577.581 481.876 575.693 481.892H249.098C248.189 481.897 247.288 481.755 246.451 481.476C245.614 481.196 244.86 480.785 244.234 480.268C243.608 479.751 243.124 479.139 242.812 478.469C242.5 477.8 242.366 477.087 242.42 476.375V476.375Z" fill="black"/>
<path d="M234.35 488.537L243.405 331.241C243.527 329.703 244.383 328.258 245.803 327.192C247.223 326.126 249.103 325.519 251.069 325.491H591.724C592.674 325.485 593.616 325.632 594.491 325.922C595.367 326.212 596.157 326.64 596.813 327.178C597.47 327.717 597.979 328.356 598.308 329.054C598.638 329.753 598.782 330.497 598.73 331.241L589.628 488.537C589.506 490.075 588.65 491.521 587.23 492.587C585.81 493.652 583.93 494.259 581.964 494.287H241.356C240.405 494.295 239.462 494.15 238.586 493.86C237.71 493.571 236.918 493.143 236.261 492.604C235.605 492.065 235.096 491.426 234.767 490.726C234.438 490.027 234.296 489.282 234.35 488.537V488.537Z" fill="#FAFAFA"/>
<path d="M558.129 334.919C557.488 334.92 556.854 334.818 556.266 334.62C555.678 334.421 555.147 334.131 554.708 333.765C554.268 333.4 553.929 332.968 553.71 332.496C553.492 332.024 553.399 331.522 553.437 331.021C553.497 330.037 554.034 329.109 554.938 328.425C555.842 327.741 557.045 327.354 558.301 327.343C558.942 327.342 559.576 327.444 560.164 327.642C560.753 327.841 561.283 328.132 561.722 328.497C562.162 328.862 562.502 329.294 562.72 329.766C562.939 330.238 563.032 330.74 562.993 331.241V331.241C562.933 332.225 562.397 333.154 561.492 333.837C560.588 334.521 559.385 334.908 558.129 334.919Z" fill="#263238"/>
<path d="M502.935 334.919C502.295 334.92 501.661 334.818 501.072 334.62C500.484 334.421 499.954 334.131 499.514 333.765C499.074 333.4 498.735 332.968 498.516 332.496C498.298 332.024 498.205 331.522 498.243 331.021C498.303 330.037 498.84 329.109 499.744 328.425C500.648 327.741 501.851 327.354 503.107 327.343V327.343C503.748 327.342 504.382 327.444 504.971 327.642C505.559 327.841 506.089 328.132 506.529 328.497C506.968 328.862 507.308 329.294 507.526 329.766C507.745 330.238 507.838 330.74 507.799 331.241V331.241C507.743 332.226 507.208 333.156 506.303 333.841C505.398 334.525 504.193 334.911 502.935 334.919Z" fill="#263238"/>
<path d="M447.742 334.919C447.101 334.92 446.467 334.818 445.879 334.62C445.29 334.421 444.76 334.131 444.321 333.765C443.881 333.4 443.541 332.968 443.323 332.496C443.104 332.024 443.011 331.522 443.05 331.021C443.113 330.038 443.651 329.111 444.555 328.428C445.458 327.745 446.659 327.357 447.914 327.343V327.343C448.555 327.342 449.189 327.444 449.777 327.642C450.365 327.841 450.896 328.132 451.335 328.497C451.775 328.862 452.114 329.294 452.333 329.766C452.551 330.238 452.644 330.74 452.606 331.241V331.241C452.55 332.226 452.014 333.156 451.109 333.841C450.204 334.525 448.999 334.911 447.742 334.919V334.919Z" fill="#263238"/>
<path d="M392.564 334.919C391.923 334.92 391.289 334.818 390.701 334.62C390.113 334.421 389.582 334.131 389.143 333.765C388.703 333.4 388.363 332.968 388.145 332.496C387.926 332.024 387.834 331.522 387.872 331.021C387.939 330.037 388.481 329.11 389.386 328.427C390.292 327.745 391.495 327.357 392.752 327.343V327.343C393.392 327.342 394.026 327.444 394.615 327.642C395.203 327.841 395.733 328.132 396.173 328.497C396.613 328.862 396.952 329.294 397.171 329.766C397.389 330.238 397.482 330.74 397.444 331.241V331.241C397.387 332.228 396.85 333.16 395.941 333.845C395.033 334.529 393.824 334.914 392.564 334.919V334.919Z" fill="#263238"/>
<path d="M337.37 334.919C336.73 334.92 336.096 334.818 335.507 334.62C334.919 334.421 334.389 334.131 333.949 333.765C333.509 333.4 333.17 332.968 332.951 332.496C332.733 332.024 332.64 331.522 332.678 331.021V331.021C332.738 330.037 333.275 329.109 334.179 328.425C335.083 327.741 336.286 327.354 337.542 327.343V327.343C338.183 327.342 338.817 327.444 339.406 327.642C339.994 327.841 340.524 328.132 340.964 328.497C341.403 328.862 341.743 329.294 341.961 329.766C342.18 330.238 342.273 330.74 342.234 331.241V331.241C342.175 332.225 341.638 333.154 340.734 333.837C339.83 334.521 338.627 334.908 337.37 334.919Z" fill="#263238"/>
<path d="M282.177 334.919C281.536 334.92 280.902 334.818 280.314 334.62C279.725 334.421 279.195 334.131 278.756 333.765C278.316 333.4 277.976 332.968 277.758 332.496C277.539 332.024 277.446 331.522 277.485 331.021C277.545 330.037 278.081 329.109 278.986 328.425C279.89 327.741 281.093 327.354 282.349 327.343C282.99 327.342 283.624 327.444 284.212 327.642C284.8 327.841 285.331 328.132 285.77 328.497C286.21 328.862 286.549 329.294 286.768 329.766C286.986 330.238 287.079 330.74 287.041 331.241V331.241C286.985 332.226 286.449 333.156 285.544 333.841C284.639 334.525 283.434 334.911 282.177 334.919V334.919Z" fill="#263238"/>
<g opacity="0.1">
<path d="M558.129 334.919C557.488 334.92 556.854 334.818 556.266 334.62C555.678 334.421 555.147 334.131 554.708 333.765C554.268 333.4 553.929 332.968 553.71 332.496C553.492 332.024 553.399 331.522 553.437 331.021C553.497 330.037 554.034 329.109 554.938 328.425C555.842 327.741 557.045 327.354 558.301 327.343C558.942 327.342 559.576 327.444 560.164 327.642C560.753 327.841 561.283 328.132 561.722 328.497C562.162 328.862 562.502 329.294 562.72 329.766C562.939 330.238 563.032 330.74 562.993 331.241V331.241C562.933 332.225 562.397 333.154 561.492 333.837C560.588 334.521 559.385 334.908 558.129 334.919Z" fill="#FAFAFA"/>
<path d="M502.936 334.919C502.295 334.92 501.661 334.818 501.072 334.62C500.484 334.421 499.954 334.131 499.514 333.765C499.075 333.4 498.735 332.968 498.516 332.496C498.298 332.024 498.205 331.522 498.244 331.021C498.303 330.037 498.84 329.109 499.744 328.425C500.648 327.741 501.851 327.354 503.108 327.343V327.343C503.748 327.342 504.382 327.444 504.971 327.642C505.559 327.841 506.089 328.132 506.529 328.497C506.968 328.862 507.308 329.294 507.527 329.766C507.745 330.238 507.838 330.74 507.8 331.241V331.241C507.744 332.226 507.208 333.156 506.303 333.841C505.398 334.525 504.193 334.911 502.936 334.919Z" fill="#FAFAFA"/>
<path d="M447.742 334.919C447.101 334.92 446.467 334.818 445.879 334.62C445.291 334.421 444.76 334.131 444.321 333.765C443.881 333.4 443.541 332.968 443.323 332.496C443.104 332.024 443.012 331.522 443.05 331.021C443.113 330.038 443.651 329.111 444.555 328.428C445.458 327.745 446.659 327.357 447.914 327.343V327.343C448.555 327.342 449.189 327.444 449.777 327.642C450.365 327.841 450.896 328.132 451.335 328.497C451.775 328.862 452.114 329.294 452.333 329.766C452.552 330.238 452.644 330.74 452.606 331.241V331.241C452.55 332.226 452.014 333.156 451.109 333.841C450.204 334.525 448.999 334.911 447.742 334.919V334.919Z" fill="#FAFAFA"/>
<path d="M392.564 334.919C391.923 334.92 391.289 334.818 390.701 334.62C390.113 334.421 389.582 334.131 389.143 333.765C388.703 333.4 388.364 332.968 388.145 332.496C387.927 332.024 387.834 331.522 387.872 331.021C387.939 330.037 388.481 329.11 389.386 328.427C390.292 327.745 391.495 327.357 392.752 327.343V327.343C393.392 327.342 394.026 327.444 394.615 327.642C395.203 327.841 395.734 328.132 396.173 328.497C396.613 328.862 396.952 329.294 397.171 329.766C397.389 330.238 397.482 330.74 397.444 331.241V331.241C397.388 332.228 396.85 333.16 395.941 333.845C395.033 334.529 393.824 334.914 392.564 334.919V334.919Z" fill="#FAFAFA"/>
<path d="M337.37 334.919C336.73 334.92 336.096 334.818 335.507 334.62C334.919 334.421 334.389 334.131 333.949 333.765C333.51 333.4 333.17 332.968 332.951 332.496C332.733 332.024 332.64 331.522 332.678 331.021V331.021C332.738 330.037 333.275 329.109 334.179 328.425C335.083 327.741 336.286 327.354 337.543 327.343V327.343C338.183 327.342 338.817 327.444 339.406 327.642C339.994 327.841 340.524 328.132 340.964 328.497C341.403 328.862 341.743 329.294 341.962 329.766C342.18 330.238 342.273 330.74 342.235 331.241V331.241C342.175 332.225 341.638 333.154 340.734 333.837C339.83 334.521 338.627 334.908 337.37 334.919Z" fill="#FAFAFA"/>
<path d="M282.177 334.919C281.536 334.92 280.902 334.818 280.314 334.62C279.725 334.421 279.195 334.131 278.756 333.765C278.316 333.4 277.976 332.968 277.758 332.496C277.539 332.024 277.446 331.522 277.485 331.021C277.545 330.037 278.081 329.109 278.986 328.425C279.89 327.741 281.093 327.354 282.349 327.343C282.99 327.342 283.624 327.444 284.212 327.642C284.8 327.841 285.331 328.132 285.77 328.497C286.21 328.862 286.549 329.294 286.768 329.766C286.986 330.238 287.079 330.74 287.041 331.241V331.241C286.985 332.226 286.449 333.156 285.544 333.841C284.639 334.525 283.434 334.911 282.177 334.919V334.919Z" fill="#FAFAFA"/>
</g>
<path d="M295.971 348.626H268.21C267.808 348.628 267.409 348.565 267.039 348.441C266.669 348.317 266.336 348.133 266.062 347.903C265.787 347.672 265.576 347.4 265.442 347.102C265.309 346.804 265.255 346.488 265.286 346.174V346.174C265.317 345.531 265.656 344.922 266.236 344.467C266.816 344.012 267.594 343.746 268.414 343.722H296.175C296.577 343.719 296.976 343.782 297.346 343.907C297.716 344.031 298.049 344.214 298.323 344.445C298.598 344.675 298.809 344.948 298.943 345.245C299.076 345.543 299.13 345.859 299.099 346.174V346.174C299.068 346.816 298.729 347.426 298.149 347.881C297.569 348.335 296.791 348.601 295.971 348.626V348.626Z" fill="#263238"/>
<path d="M351.165 348.626H323.404C323.001 348.628 322.603 348.565 322.233 348.441C321.863 348.317 321.53 348.133 321.255 347.903C320.98 347.672 320.769 347.4 320.636 347.102C320.502 346.804 320.449 346.488 320.479 346.174V346.174C320.511 345.521 320.862 344.903 321.458 344.446C322.055 343.99 322.852 343.731 323.685 343.722H351.431C351.834 343.719 352.233 343.782 352.604 343.907C352.975 344.031 353.308 344.214 353.584 344.444C353.861 344.674 354.073 344.947 354.208 345.244C354.344 345.542 354.399 345.859 354.371 346.174V346.174C354.339 346.827 353.989 347.445 353.392 347.901C352.795 348.357 351.998 348.617 351.165 348.626V348.626Z" fill="#263238"/>
<path d="M406.358 348.626H378.597C378.194 348.628 377.795 348.565 377.424 348.441C377.054 348.317 376.72 348.134 376.444 347.903C376.168 347.673 375.955 347.401 375.82 347.103C375.685 346.805 375.629 346.489 375.657 346.174V346.174C375.689 345.521 376.04 344.903 376.636 344.446C377.233 343.99 378.03 343.731 378.863 343.722H406.64C407.042 343.719 407.441 343.782 407.811 343.907C408.181 344.031 408.514 344.214 408.789 344.445C409.064 344.675 409.275 344.948 409.408 345.245C409.542 345.543 409.595 345.859 409.565 346.174V346.174C409.536 346.828 409.187 347.448 408.59 347.905C407.992 348.361 407.193 348.62 406.358 348.626Z" fill="#263238"/>
<path d="M461.536 348.626H433.775C433.373 348.628 432.974 348.565 432.604 348.441C432.234 348.317 431.901 348.133 431.627 347.903C431.352 347.672 431.141 347.4 431.007 347.102C430.874 346.804 430.82 346.488 430.851 346.174V346.174C430.882 345.531 431.221 344.922 431.801 344.467C432.381 344.012 433.159 343.746 433.979 343.722H461.74C462.142 343.719 462.541 343.782 462.911 343.907C463.281 344.031 463.614 344.214 463.888 344.445C464.163 344.675 464.374 344.948 464.508 345.245C464.641 345.543 464.695 345.859 464.664 346.174V346.174C464.633 346.816 464.294 347.426 463.714 347.881C463.134 348.335 462.356 348.601 461.536 348.626V348.626Z" fill="#263238"/>
<path d="M516.73 348.626H488.969C488.567 348.628 488.168 348.565 487.798 348.441C487.428 348.317 487.095 348.133 486.82 347.903C486.545 347.672 486.334 347.4 486.201 347.102C486.067 346.804 486.014 346.488 486.044 346.174C486.076 345.521 486.427 344.903 487.023 344.446C487.62 343.99 488.417 343.731 489.25 343.722H517.011C517.414 343.719 517.813 343.782 518.183 343.907C518.553 344.031 518.885 344.214 519.16 344.445C519.435 344.675 519.646 344.948 519.78 345.245C519.913 345.543 519.966 345.859 519.936 346.174V346.174C519.904 346.827 519.554 347.445 518.957 347.901C518.361 348.357 517.563 348.617 516.73 348.626V348.626Z" fill="#263238"/>
<path d="M571.923 348.626H544.162C543.76 348.628 543.361 348.565 542.991 348.441C542.621 348.317 542.289 348.133 542.014 347.903C541.739 347.672 541.528 347.4 541.394 347.102C541.261 346.804 541.207 346.488 541.238 346.174V346.174C541.27 345.521 541.62 344.903 542.217 344.446C542.813 343.99 543.611 343.731 544.444 343.722H572.189C572.592 343.719 572.992 343.782 573.362 343.907C573.733 344.031 574.067 344.214 574.343 344.444C574.619 344.674 574.832 344.947 574.967 345.244C575.102 345.542 575.158 345.859 575.13 346.174V346.174C575.098 346.827 574.747 347.445 574.151 347.901C573.554 348.357 572.757 348.617 571.923 348.626V348.626Z" fill="#263238"/>
<g opacity="0.3">
<path d="M295.971 348.626H268.21C267.808 348.628 267.409 348.565 267.039 348.441C266.669 348.317 266.336 348.133 266.062 347.903C265.787 347.672 265.576 347.4 265.442 347.102C265.309 346.804 265.255 346.488 265.286 346.174V346.174C265.317 345.531 265.656 344.922 266.236 344.467C266.816 344.012 267.594 343.746 268.414 343.722H296.175C296.577 343.719 296.976 343.782 297.346 343.907C297.716 344.031 298.049 344.214 298.323 344.445C298.598 344.675 298.809 344.948 298.943 345.245C299.076 345.543 299.13 345.859 299.099 346.174V346.174C299.068 346.816 298.729 347.426 298.149 347.881C297.569 348.335 296.791 348.601 295.971 348.626V348.626Z" fill="black"/>
<path d="M351.165 348.626H323.404C323.001 348.628 322.603 348.565 322.233 348.441C321.863 348.317 321.53 348.133 321.255 347.903C320.98 347.672 320.769 347.4 320.636 347.102C320.502 346.804 320.449 346.488 320.479 346.174V346.174C320.511 345.521 320.862 344.903 321.458 344.446C322.055 343.99 322.852 343.731 323.685 343.722H351.431C351.834 343.719 352.233 343.782 352.604 343.907C352.975 344.031 353.308 344.214 353.584 344.444C353.861 344.674 354.073 344.947 354.208 345.244C354.344 345.542 354.399 345.859 354.371 346.174V346.174C354.339 346.827 353.989 347.445 353.392 347.901C352.795 348.357 351.998 348.617 351.165 348.626V348.626Z" fill="black"/>
<path d="M406.358 348.626H378.597C378.194 348.628 377.795 348.565 377.424 348.441C377.054 348.317 376.72 348.134 376.444 347.903C376.168 347.673 375.955 347.401 375.82 347.103C375.685 346.805 375.629 346.489 375.657 346.174V346.174C375.689 345.521 376.04 344.903 376.636 344.446C377.233 343.99 378.03 343.731 378.863 343.722H406.64C407.042 343.719 407.441 343.782 407.811 343.907C408.181 344.031 408.514 344.214 408.789 344.445C409.064 344.675 409.275 344.948 409.408 345.245C409.542 345.543 409.595 345.859 409.565 346.174V346.174C409.536 346.828 409.187 347.448 408.59 347.905C407.992 348.361 407.193 348.62 406.358 348.626Z" fill="black"/>
<path d="M461.536 348.626H433.775C433.373 348.628 432.974 348.565 432.604 348.441C432.234 348.317 431.901 348.133 431.627 347.903C431.352 347.672 431.141 347.4 431.007 347.102C430.874 346.804 430.82 346.488 430.851 346.174V346.174C430.882 345.531 431.221 344.922 431.801 344.467C432.381 344.012 433.159 343.746 433.979 343.722H461.74C462.142 343.719 462.541 343.782 462.911 343.907C463.281 344.031 463.614 344.214 463.889 344.445C464.163 344.675 464.374 344.948 464.508 345.245C464.641 345.543 464.695 345.859 464.664 346.174V346.174C464.633 346.816 464.294 347.426 463.714 347.881C463.134 348.335 462.356 348.601 461.536 348.626V348.626Z" fill="black"/>
<path d="M516.73 348.626H488.969C488.567 348.628 488.168 348.565 487.798 348.441C487.428 348.317 487.095 348.133 486.82 347.903C486.545 347.672 486.334 347.4 486.201 347.102C486.067 346.804 486.014 346.488 486.044 346.174C486.076 345.521 486.427 344.903 487.023 344.446C487.62 343.99 488.417 343.731 489.25 343.722H517.011C517.414 343.719 517.813 343.782 518.183 343.907C518.553 344.031 518.885 344.214 519.16 344.445C519.435 344.675 519.646 344.948 519.78 345.245C519.913 345.543 519.966 345.859 519.936 346.174V346.174C519.904 346.827 519.554 347.445 518.957 347.901C518.361 348.357 517.563 348.617 516.73 348.626V348.626Z" fill="black"/>
<path d="M571.923 348.626H544.162C543.76 348.628 543.361 348.565 542.991 348.441C542.621 348.317 542.289 348.133 542.014 347.903C541.739 347.672 541.528 347.4 541.394 347.102C541.261 346.804 541.207 346.488 541.238 346.174V346.174C541.27 345.521 541.62 344.903 542.217 344.446C542.813 343.99 543.611 343.731 544.444 343.722H572.189C572.592 343.719 572.992 343.782 573.362 343.907C573.733 344.031 574.067 344.214 574.343 344.444C574.619 344.674 574.832 344.947 574.967 345.244C575.102 345.542 575.158 345.859 575.13 346.174V346.174C575.098 346.827 574.747 347.445 574.151 347.901C573.554 348.357 572.757 348.617 571.923 348.626V348.626Z" fill="black"/>
</g>
<path d="M297.504 394.932H261.344C260.551 394.934 259.766 394.81 259.036 394.566C258.307 394.323 257.648 393.965 257.1 393.515C256.553 393.066 256.128 392.533 255.852 391.95C255.576 391.367 255.455 390.747 255.495 390.126L257.059 361.781C257.154 360.492 257.868 359.28 259.058 358.388C260.248 357.496 261.825 356.991 263.471 356.975H299.631C300.424 356.972 301.21 357.096 301.939 357.34C302.669 357.583 303.328 357.941 303.875 358.391C304.423 358.841 304.847 359.373 305.123 359.956C305.399 360.539 305.521 361.16 305.481 361.781L303.917 390.126C303.818 391.413 303.103 392.624 301.913 393.515C300.724 394.406 299.149 394.912 297.504 394.932Z" fill="#263238"/>
<path d="M352.698 394.932H316.538C315.744 394.936 314.958 394.813 314.227 394.57C313.496 394.327 312.837 393.969 312.289 393.519C311.741 393.069 311.316 392.536 311.041 391.952C310.766 391.369 310.646 390.747 310.689 390.126L312.253 361.781C312.347 360.492 313.062 359.28 314.252 358.388C315.442 357.496 317.019 356.991 318.665 356.975H354.872C355.665 356.972 356.451 357.097 357.182 357.34C357.912 357.583 358.572 357.941 359.121 358.39C359.669 358.84 360.096 359.372 360.373 359.955C360.651 360.538 360.775 361.159 360.737 361.781L359.094 390.126C359.003 391.413 358.292 392.625 357.105 393.517C355.917 394.409 354.342 394.915 352.698 394.932V394.932Z" fill="#263238"/>
<path d="M407.876 394.932H371.732C370.938 394.934 370.152 394.81 369.421 394.566C368.691 394.323 368.031 393.966 367.482 393.516C366.934 393.066 366.507 392.534 366.23 391.951C365.952 391.368 365.828 390.747 365.867 390.126L367.431 361.781C367.525 360.492 368.24 359.28 369.43 358.388C370.62 357.496 372.197 356.991 373.843 356.975H409.987C410.781 356.97 411.567 357.094 412.298 357.336C413.029 357.579 413.688 357.937 414.236 358.387C414.784 358.837 415.209 359.371 415.484 359.954C415.759 360.538 415.879 361.159 415.836 361.781L414.272 390.126C414.178 391.412 413.465 392.623 412.279 393.514C411.092 394.406 409.519 394.912 407.876 394.932V394.932Z" fill="#263238"/>
<path d="M463.069 394.932H426.972C426.178 394.936 425.39 394.813 424.659 394.57C423.927 394.327 423.267 393.97 422.718 393.52C422.168 393.07 421.742 392.537 421.465 391.953C421.188 391.369 421.066 390.748 421.107 390.126L422.671 361.781C422.762 360.493 423.473 359.281 424.66 358.389C425.848 357.497 427.423 356.991 429.068 356.975H465.227C466.02 356.972 466.806 357.096 467.536 357.34C468.265 357.583 468.924 357.941 469.471 358.391C470.019 358.841 470.444 359.373 470.72 359.956C470.996 360.539 471.117 361.16 471.077 361.781L469.513 390.126C469.418 391.418 468.699 392.634 467.502 393.527C466.306 394.419 464.721 394.921 463.069 394.932V394.932Z" fill="#263238"/>
<path d="M518.263 394.932H482.103C481.31 394.934 480.525 394.81 479.795 394.566C479.065 394.323 478.406 393.965 477.859 393.515C477.311 393.066 476.887 392.533 476.611 391.95C476.335 391.367 476.213 390.747 476.254 390.126L477.818 361.781C477.913 360.492 478.627 359.28 479.817 358.388C481.007 357.496 482.584 356.991 484.23 356.975H520.374C521.168 356.971 521.956 357.094 522.687 357.336C523.419 357.579 524.079 357.936 524.628 358.386C525.178 358.836 525.604 359.37 525.881 359.953C526.158 360.537 526.28 361.159 526.239 361.781L524.675 390.126C524.577 391.413 523.861 392.624 522.672 393.515C521.483 394.406 519.908 394.912 518.263 394.932Z" fill="#263238"/>
<path d="M573.441 394.932H537.297C536.503 394.936 535.716 394.813 534.986 394.57C534.255 394.327 533.595 393.969 533.047 393.519C532.499 393.069 532.075 392.536 531.8 391.952C531.524 391.369 531.404 390.747 531.447 390.126L533.011 361.781C533.106 360.492 533.82 359.28 535.01 358.388C536.2 357.496 537.777 356.991 539.424 356.975H575.568C576.361 356.972 577.147 357.097 577.878 357.34C578.608 357.583 579.268 357.941 579.817 358.39C580.365 358.84 580.792 359.372 581.069 359.955C581.347 360.538 581.471 361.159 581.433 361.781L579.79 390.126C579.7 391.407 578.996 392.614 577.818 393.505C576.641 394.396 575.077 394.906 573.441 394.932Z" fill="#263238"/>
<g opacity="0.8">
<path d="M297.504 394.932H261.344C260.551 394.934 259.766 394.81 259.036 394.566C258.307 394.323 257.648 393.965 257.1 393.515C256.553 393.066 256.128 392.533 255.852 391.95C255.576 391.367 255.455 390.747 255.495 390.126L257.059 361.781C257.154 360.492 257.868 359.28 259.058 358.388C260.248 357.496 261.825 356.991 263.471 356.975H299.631C300.424 356.972 301.21 357.096 301.939 357.34C302.669 357.583 303.328 357.941 303.875 358.391C304.423 358.841 304.847 359.373 305.123 359.956C305.399 360.539 305.521 361.16 305.481 361.781L303.917 390.126C303.818 391.413 303.103 392.624 301.913 393.515C300.724 394.406 299.149 394.912 297.504 394.932Z" fill="#FAFAFA"/>
<path d="M352.698 394.932H316.538C315.744 394.936 314.958 394.813 314.227 394.57C313.496 394.327 312.837 393.969 312.289 393.519C311.741 393.069 311.316 392.536 311.041 391.952C310.766 391.369 310.646 390.747 310.689 390.126L312.253 361.781C312.347 360.492 313.062 359.28 314.252 358.388C315.442 357.496 317.019 356.991 318.665 356.975H354.872C355.665 356.972 356.451 357.097 357.182 357.34C357.912 357.583 358.572 357.941 359.121 358.39C359.669 358.84 360.096 359.372 360.373 359.955C360.651 360.538 360.775 361.159 360.737 361.781L359.094 390.126C359.003 391.413 358.292 392.625 357.105 393.517C355.917 394.409 354.342 394.915 352.698 394.932V394.932Z" fill="#FAFAFA"/>
<path d="M407.876 394.932H371.732C370.938 394.934 370.152 394.81 369.421 394.566C368.691 394.323 368.031 393.966 367.482 393.516C366.934 393.066 366.507 392.534 366.23 391.951C365.952 391.368 365.828 390.747 365.867 390.126L367.431 361.781C367.525 360.492 368.24 359.28 369.43 358.388C370.62 357.496 372.197 356.991 373.843 356.975H409.987C410.781 356.97 411.567 357.094 412.298 357.336C413.029 357.579 413.688 357.937 414.236 358.387C414.784 358.837 415.209 359.371 415.484 359.954C415.759 360.538 415.879 361.159 415.836 361.781L414.272 390.126C414.178 391.412 413.465 392.623 412.279 393.514C411.092 394.406 409.519 394.912 407.876 394.932V394.932Z" fill="#FAFAFA"/>
<path d="M463.069 394.932H426.972C426.178 394.936 425.391 394.813 424.659 394.57C423.927 394.327 423.267 393.97 422.718 393.52C422.169 393.07 421.742 392.537 421.465 391.953C421.188 391.369 421.067 390.748 421.107 390.126L422.671 361.781C422.762 360.493 423.473 359.281 424.661 358.389C425.848 357.497 427.423 356.991 429.068 356.975H465.227C466.021 356.972 466.806 357.096 467.536 357.34C468.265 357.583 468.924 357.941 469.471 358.391C470.019 358.841 470.444 359.373 470.72 359.956C470.996 360.539 471.117 361.16 471.077 361.781L469.513 390.126C469.418 391.418 468.699 392.634 467.502 393.527C466.306 394.419 464.721 394.921 463.069 394.932V394.932Z" fill="#FAFAFA"/>
<path d="M518.263 394.932H482.103C481.31 394.934 480.525 394.81 479.795 394.566C479.065 394.323 478.406 393.965 477.859 393.515C477.311 393.066 476.887 392.533 476.611 391.95C476.335 391.367 476.213 390.747 476.254 390.126L477.818 361.781C477.913 360.492 478.627 359.28 479.817 358.388C481.007 357.496 482.584 356.991 484.23 356.975H520.374C521.168 356.971 521.956 357.094 522.687 357.336C523.419 357.579 524.079 357.936 524.628 358.386C525.178 358.836 525.604 359.37 525.881 359.953C526.158 360.537 526.28 361.159 526.239 361.781L524.675 390.126C524.577 391.413 523.861 392.624 522.672 393.515C521.483 394.406 519.908 394.912 518.263 394.932Z" fill="#FAFAFA"/>
<path d="M573.441 394.932H537.297C536.503 394.936 535.716 394.813 534.986 394.57C534.255 394.327 533.595 393.969 533.047 393.519C532.499 393.069 532.075 392.536 531.8 391.952C531.524 391.369 531.404 390.747 531.447 390.126L533.011 361.781C533.106 360.492 533.82 359.28 535.01 358.388C536.2 357.496 537.777 356.991 539.424 356.975H575.568C576.361 356.972 577.147 357.097 577.878 357.34C578.608 357.583 579.268 357.941 579.817 358.39C580.365 358.84 580.792 359.372 581.069 359.955C581.347 360.538 581.471 361.159 581.433 361.781L579.79 390.126C579.7 391.407 578.996 392.614 577.818 393.505C576.641 394.396 575.077 394.906 573.441 394.932Z" fill="#FAFAFA"/>
</g>
<path d="M294.97 438.909H258.811C258.018 438.911 257.232 438.787 256.503 438.543C255.773 438.3 255.114 437.942 254.567 437.492C254.019 437.043 253.594 436.51 253.318 435.927C253.042 435.344 252.921 434.724 252.961 434.103L254.525 405.758C254.624 404.47 255.339 403.26 256.529 402.368C257.718 401.477 259.293 400.971 260.938 400.952H297.16C297.953 400.949 298.738 401.074 299.468 401.317C300.198 401.561 300.857 401.918 301.404 402.368C301.952 402.818 302.376 403.35 302.652 403.933C302.928 404.516 303.05 405.137 303.009 405.758L301.445 434.103C301.346 435.398 300.622 436.616 299.419 437.509C298.217 438.401 296.626 438.902 294.97 438.909V438.909Z" fill="#263238"/>
<path d="M350.164 438.908H314.004C313.211 438.911 312.426 438.786 311.696 438.543C310.966 438.299 310.308 437.942 309.76 437.492C309.213 437.042 308.788 436.51 308.512 435.927C308.236 435.344 308.115 434.723 308.155 434.102L309.719 405.757C309.814 404.469 310.528 403.257 311.718 402.365C312.908 401.473 314.485 400.968 316.131 400.951H352.275C353.076 400.947 353.869 401.071 354.606 401.317C355.343 401.563 356.007 401.924 356.559 402.379C357.11 402.834 357.536 403.373 357.811 403.963C358.086 404.552 358.203 405.18 358.156 405.806L356.592 434.102C356.501 435.394 355.785 436.61 354.591 437.502C353.397 438.395 351.814 438.898 350.164 438.908V438.908Z" fill="#263238"/>
<path d="M405.342 438.908H369.198C368.404 438.912 367.618 438.789 366.887 438.546C366.156 438.304 365.497 437.946 364.949 437.496C364.401 437.046 363.976 436.512 363.701 435.929C363.426 435.345 363.306 434.724 363.349 434.102L364.913 405.757C365.007 404.469 365.722 403.256 366.912 402.365C368.102 401.473 369.679 400.968 371.325 400.951H407.469C408.263 400.947 409.049 401.07 409.78 401.313C410.511 401.556 411.17 401.913 411.718 402.364C412.266 402.814 412.691 403.347 412.966 403.931C413.241 404.514 413.361 405.136 413.318 405.757L411.754 434.102C411.659 435.391 410.945 436.603 409.755 437.495C408.565 438.387 406.988 438.892 405.342 438.908V438.908Z" fill="#263238"/>
<path d="M460.535 438.908H424.391C423.598 438.911 422.812 438.786 422.081 438.543C421.351 438.3 420.691 437.942 420.142 437.493C419.594 437.043 419.167 436.511 418.889 435.928C418.612 435.345 418.488 434.724 418.526 434.102L420.09 405.757C420.181 404.47 420.892 403.258 422.08 402.366C423.267 401.474 424.843 400.968 426.487 400.951H462.647C463.452 400.94 464.251 401.059 464.995 401.302C465.738 401.545 466.409 401.906 466.966 402.362C467.523 402.818 467.953 403.359 468.23 403.952C468.507 404.545 468.624 405.176 468.574 405.806L467.01 434.151C466.9 435.44 466.17 436.647 464.968 437.53C463.766 438.412 462.182 438.905 460.535 438.908V438.908Z" fill="#263238"/>
<path d="M515.729 438.908H479.569C478.776 438.911 477.991 438.787 477.261 438.543C476.531 438.3 475.873 437.942 475.325 437.492C474.778 437.042 474.353 436.51 474.077 435.927C473.801 435.344 473.68 434.723 473.72 434.102L475.284 405.757C475.367 404.459 476.078 403.235 477.272 402.333C478.467 401.431 480.054 400.919 481.712 400.902H517.872C518.665 400.9 519.45 401.024 520.18 401.268C520.91 401.511 521.568 401.869 522.116 402.319C522.663 402.768 523.088 403.301 523.364 403.884C523.64 404.467 523.761 405.087 523.721 405.708L522.157 434.053C522.074 435.352 521.363 436.576 520.169 437.478C518.974 438.38 517.387 438.891 515.729 438.908Z" fill="#263238"/>
<path d="M570.86 438.909H534.763C533.969 438.913 533.183 438.79 532.452 438.547C531.721 438.304 531.062 437.946 530.514 437.496C529.966 437.046 529.541 436.513 529.266 435.929C528.991 435.346 528.871 434.724 528.914 434.103L530.478 405.758C530.572 404.469 531.287 403.257 532.477 402.365C533.667 401.473 535.244 400.968 536.89 400.952H573.034C573.828 400.949 574.614 401.074 575.344 401.317C576.075 401.56 576.734 401.918 577.283 402.367C577.832 402.817 578.258 403.349 578.536 403.932C578.814 404.515 578.937 405.136 578.899 405.758L577.257 434.103C577.166 435.39 576.455 436.602 575.267 437.494C574.08 438.386 572.505 438.892 570.86 438.909V438.909Z" fill="#263238"/>
<g opacity="0.8">
<path d="M294.97 438.908H258.811C258.018 438.911 257.232 438.786 256.503 438.543C255.773 438.299 255.114 437.942 254.567 437.492C254.019 437.042 253.594 436.51 253.318 435.927C253.042 435.344 252.921 434.723 252.961 434.102L254.525 405.757C254.624 404.47 255.339 403.259 256.529 402.368C257.718 401.477 259.293 400.971 260.938 400.951H297.16C297.953 400.949 298.738 401.073 299.468 401.317C300.198 401.56 300.857 401.918 301.404 402.367C301.952 402.817 302.376 403.35 302.652 403.933C302.928 404.515 303.05 405.136 303.009 405.757L301.445 434.102C301.346 435.398 300.622 436.616 299.419 437.508C298.217 438.401 296.626 438.901 294.97 438.908V438.908Z" fill="#FAFAFA"/>
<path d="M350.164 438.908H314.004C313.211 438.911 312.426 438.786 311.696 438.543C310.966 438.299 310.308 437.942 309.76 437.492C309.213 437.042 308.788 436.51 308.512 435.927C308.236 435.344 308.115 434.723 308.155 434.102L309.719 405.757C309.814 404.469 310.528 403.257 311.718 402.365C312.908 401.473 314.485 400.968 316.131 400.951H352.275C353.076 400.947 353.869 401.071 354.606 401.317C355.343 401.563 356.007 401.924 356.559 402.379C357.11 402.834 357.536 403.373 357.811 403.963C358.086 404.552 358.203 405.18 358.156 405.806L356.592 434.102C356.501 435.394 355.785 436.61 354.591 437.502C353.397 438.395 351.814 438.898 350.164 438.908V438.908Z" fill="#FAFAFA"/>
<path d="M405.342 438.908H369.198C368.404 438.912 367.618 438.789 366.887 438.546C366.156 438.304 365.497 437.946 364.949 437.496C364.401 437.046 363.976 436.512 363.701 435.929C363.426 435.345 363.306 434.724 363.349 434.102L364.913 405.757C365.007 404.469 365.722 403.256 366.912 402.365C368.102 401.473 369.679 400.968 371.325 400.951H407.469C408.263 400.947 409.049 401.07 409.78 401.313C410.511 401.556 411.17 401.913 411.718 402.364C412.266 402.814 412.691 403.347 412.966 403.931C413.241 404.514 413.361 405.136 413.318 405.757L411.754 434.102C411.659 435.391 410.945 436.603 409.755 437.495C408.565 438.387 406.988 438.892 405.342 438.908V438.908Z" fill="#FAFAFA"/>
<path d="M460.535 438.908H424.391C423.598 438.911 422.812 438.786 422.081 438.543C421.351 438.3 420.691 437.942 420.142 437.493C419.594 437.043 419.167 436.511 418.89 435.928C418.612 435.345 418.488 434.724 418.526 434.102L420.09 405.757C420.181 404.47 420.893 403.258 422.08 402.366C423.267 401.474 424.843 400.968 426.487 400.951H462.647C463.452 400.94 464.252 401.059 464.995 401.302C465.738 401.545 466.41 401.906 466.966 402.362C467.523 402.818 467.954 403.359 468.23 403.952C468.507 404.545 468.624 405.176 468.574 405.806L467.01 434.151C466.9 435.44 466.17 436.647 464.968 437.53C463.766 438.412 462.182 438.905 460.535 438.908V438.908Z" fill="#FAFAFA"/>
<path d="M515.729 438.908H479.569C478.776 438.911 477.991 438.787 477.261 438.543C476.531 438.3 475.873 437.942 475.325 437.492C474.778 437.042 474.353 436.51 474.077 435.927C473.801 435.344 473.68 434.723 473.72 434.102L475.284 405.757C475.367 404.459 476.078 403.235 477.272 402.333C478.467 401.431 480.054 400.919 481.712 400.902H517.872C518.665 400.9 519.45 401.024 520.18 401.268C520.91 401.511 521.568 401.869 522.116 402.319C522.663 402.768 523.088 403.301 523.364 403.884C523.64 404.467 523.761 405.087 523.721 405.708L522.157 434.053C522.074 435.352 521.363 436.576 520.169 437.478C518.974 438.38 517.387 438.891 515.729 438.908Z" fill="#FAFAFA"/>
<path d="M570.86 438.908H534.763C533.969 438.912 533.183 438.789 532.452 438.546C531.721 438.304 531.062 437.946 530.514 437.496C529.966 437.046 529.541 436.512 529.266 435.929C528.991 435.345 528.871 434.724 528.914 434.102L530.478 405.757C530.572 404.469 531.287 403.256 532.477 402.365C533.667 401.473 535.244 400.968 536.89 400.951H573.034C573.828 400.949 574.614 401.073 575.344 401.316C576.075 401.56 576.734 401.917 577.283 402.367C577.832 402.816 578.258 403.349 578.536 403.932C578.814 404.515 578.937 405.136 578.899 405.757L577.257 434.102C577.166 435.39 576.455 436.602 575.267 437.494C574.08 438.386 572.505 438.891 570.86 438.908V438.908Z" fill="#FAFAFA"/>
</g>
<path d="M292.468 482.873H256.277C255.483 482.877 254.697 482.754 253.966 482.511C253.235 482.268 252.576 481.911 252.028 481.461C251.48 481.011 251.055 480.477 250.78 479.894C250.505 479.31 250.385 478.688 250.428 478.067L251.992 449.734C252.087 448.446 252.801 447.234 253.991 446.342C255.181 445.45 256.758 444.945 258.404 444.928H294.564C295.357 444.924 296.144 445.047 296.875 445.29C297.605 445.533 298.265 445.891 298.813 446.341C299.361 446.791 299.786 447.324 300.061 447.908C300.336 448.491 300.456 449.113 300.413 449.734L298.849 478.067C298.758 479.352 298.049 480.563 296.865 481.455C295.681 482.346 294.11 482.853 292.468 482.873V482.873Z" fill="#263238"/>
<path d="M347.63 482.873H311.471C310.677 482.877 309.89 482.754 309.16 482.511C308.429 482.268 307.769 481.91 307.221 481.46C306.673 481.01 306.249 480.477 305.974 479.893C305.698 479.31 305.579 478.688 305.621 478.067L307.185 449.734C307.276 448.444 307.99 447.23 309.18 446.338C310.371 445.446 311.95 444.942 313.598 444.928H349.742C350.537 444.922 351.325 445.044 352.057 445.286C352.79 445.528 353.452 445.885 354.001 446.336C354.551 446.786 354.977 447.32 355.253 447.904C355.529 448.489 355.649 449.112 355.607 449.734L354.043 478.067C353.955 479.357 353.243 480.573 352.051 481.466C350.86 482.359 349.279 482.862 347.63 482.873V482.873Z" fill="#263238"/>
<path d="M402.808 482.873H366.664C365.87 482.877 365.084 482.754 364.353 482.511C363.622 482.268 362.963 481.911 362.415 481.461C361.867 481.01 361.442 480.477 361.167 479.894C360.892 479.31 360.772 478.688 360.815 478.067L362.379 449.734C362.47 448.445 363.183 447.231 364.374 446.338C365.565 445.446 367.144 444.942 368.791 444.928H405.076C405.87 444.924 406.657 445.047 407.389 445.29C408.121 445.533 408.781 445.89 409.33 446.34C409.879 446.79 410.306 447.323 410.583 447.907C410.859 448.491 410.981 449.112 410.941 449.734L409.299 478.067C409.207 479.367 408.482 480.59 407.275 481.484C406.068 482.378 404.469 482.875 402.808 482.873V482.873Z" fill="#263238"/>
<path d="M458.002 482.873H421.858C421.063 482.877 420.276 482.754 419.545 482.511C418.813 482.269 418.153 481.911 417.603 481.461C417.054 481.011 416.628 480.478 416.351 479.895C416.074 479.311 415.952 478.689 415.993 478.067L417.557 449.734C417.644 448.446 418.354 447.232 419.542 446.339C420.73 445.447 422.308 444.942 423.953 444.928H460.113C460.907 444.924 461.693 445.047 462.424 445.29C463.155 445.533 463.814 445.891 464.362 446.341C464.91 446.791 465.335 447.324 465.61 447.908C465.885 448.491 466.005 449.113 465.962 449.734L464.398 478.067C464.307 479.354 463.596 480.567 462.409 481.459C461.222 482.351 459.646 482.856 458.002 482.873V482.873Z" fill="#263238"/>
<path d="M513.195 482.873H477.02C476.226 482.877 475.44 482.754 474.709 482.511C473.978 482.268 473.319 481.911 472.771 481.461C472.223 481.011 471.798 480.477 471.523 479.894C471.248 479.31 471.128 478.688 471.171 478.067L472.735 449.734C472.829 448.446 473.544 447.234 474.734 446.342C475.924 445.45 477.501 444.945 479.147 444.928H515.307C516.1 444.924 516.887 445.047 517.618 445.29C518.348 445.533 519.008 445.891 519.556 446.341C520.104 446.791 520.528 447.324 520.804 447.908C521.079 448.491 521.199 449.113 521.156 449.734L519.592 478.067C519.497 479.353 518.785 480.564 517.599 481.456C516.412 482.347 514.839 482.853 513.195 482.873V482.873Z" fill="#263238"/>
<path d="M568.389 482.873H532.229C531.436 482.877 530.649 482.754 529.918 482.511C529.188 482.268 528.528 481.911 527.98 481.461C527.432 481.01 527.008 480.477 526.732 479.894C526.457 479.31 526.337 478.688 526.38 478.067L527.944 449.734C528.035 448.445 528.748 447.231 529.939 446.338C531.13 445.446 532.709 444.942 534.356 444.928H570.5C571.295 444.924 572.082 445.047 572.813 445.29C573.545 445.533 574.205 445.89 574.755 446.34C575.304 446.79 575.73 447.323 576.007 447.907C576.284 448.491 576.406 449.112 576.365 449.734L574.723 478.067C574.637 479.347 573.935 480.554 572.76 481.445C571.585 482.337 570.024 482.847 568.389 482.873V482.873Z" fill="#263238"/>
<g opacity="0.8">
<path d="M292.468 482.873H256.277C255.483 482.877 254.697 482.754 253.966 482.511C253.235 482.268 252.576 481.91 252.028 481.46C251.48 481.01 251.055 480.477 250.78 479.893C250.505 479.309 250.385 478.688 250.428 478.067L251.992 449.734C252.087 448.445 252.801 447.233 253.991 446.341C255.181 445.449 256.758 444.944 258.404 444.928H294.564C295.357 444.924 296.144 445.047 296.875 445.29C297.605 445.532 298.265 445.89 298.813 446.34C299.361 446.79 299.786 447.324 300.061 447.907C300.336 448.491 300.456 449.112 300.413 449.734L298.849 478.067C298.758 479.352 298.049 480.562 296.865 481.454C295.681 482.346 294.11 482.853 292.468 482.873V482.873Z" fill="#FAFAFA"/>
<path d="M347.63 482.873H311.471C310.677 482.877 309.89 482.754 309.16 482.511C308.429 482.268 307.769 481.91 307.221 481.46C306.673 481.01 306.249 480.477 305.974 479.893C305.698 479.31 305.579 478.688 305.621 478.067L307.185 449.734C307.276 448.444 307.99 447.23 309.18 446.338C310.371 445.446 311.95 444.942 313.598 444.928H349.742C350.537 444.922 351.325 445.044 352.057 445.286C352.79 445.528 353.452 445.885 354.001 446.336C354.551 446.786 354.977 447.32 355.253 447.904C355.529 448.489 355.649 449.112 355.607 449.734L354.043 478.067C353.955 479.357 353.243 480.573 352.051 481.466C350.86 482.359 349.279 482.862 347.63 482.873V482.873Z" fill="#FAFAFA"/>
<path d="M402.808 482.873H366.664C365.87 482.877 365.084 482.754 364.353 482.511C363.623 482.268 362.963 481.91 362.415 481.46C361.867 481.01 361.442 480.477 361.167 479.893C360.892 479.309 360.772 478.688 360.815 478.067L362.379 449.734C362.47 448.444 363.183 447.23 364.374 446.338C365.565 445.446 367.144 444.941 368.791 444.928H405.076C405.87 444.924 406.657 445.047 407.389 445.29C408.121 445.532 408.781 445.89 409.33 446.34C409.879 446.79 410.306 447.323 410.583 447.906C410.86 448.49 410.982 449.112 410.941 449.734L409.299 478.067C409.207 479.367 408.482 480.589 407.275 481.483C406.068 482.377 404.469 482.875 402.808 482.873V482.873Z" fill="#FAFAFA"/>
<path d="M458.002 482.873H421.858C421.063 482.877 420.276 482.754 419.545 482.511C418.813 482.268 418.153 481.911 417.603 481.461C417.054 481.011 416.628 480.478 416.351 479.894C416.074 479.31 415.952 478.689 415.993 478.067L417.557 449.734C417.644 448.445 418.354 447.232 419.542 446.339C420.73 445.446 422.308 444.942 423.954 444.928H460.113C460.907 444.924 461.693 445.047 462.424 445.29C463.155 445.532 463.814 445.89 464.362 446.34C464.91 446.79 465.335 447.324 465.61 447.907C465.885 448.491 466.005 449.112 465.963 449.734L464.399 478.067C464.308 479.354 463.596 480.566 462.409 481.458C461.222 482.35 459.646 482.856 458.002 482.873V482.873Z" fill="#FAFAFA"/>
<path d="M513.195 482.873H477.02C476.226 482.877 475.44 482.754 474.709 482.511C473.978 482.268 473.319 481.91 472.771 481.46C472.223 481.01 471.798 480.477 471.523 479.893C471.248 479.309 471.128 478.688 471.171 478.067L472.735 449.734C472.829 448.445 473.544 447.233 474.734 446.341C475.924 445.449 477.501 444.944 479.147 444.928H515.307C516.1 444.924 516.887 445.047 517.618 445.29C518.348 445.532 519.008 445.89 519.556 446.34C520.104 446.79 520.528 447.324 520.804 447.907C521.079 448.491 521.199 449.112 521.156 449.734L519.592 478.067C519.497 479.353 518.785 480.563 517.599 481.455C516.412 482.347 514.839 482.853 513.195 482.873V482.873Z" fill="#FAFAFA"/>
<path d="M568.389 482.873H532.229C531.436 482.877 530.649 482.754 529.918 482.511C529.188 482.268 528.528 481.91 527.98 481.46C527.432 481.01 527.008 480.477 526.732 479.893C526.457 479.309 526.337 478.688 526.38 478.067L527.944 449.734C528.035 448.444 528.748 447.23 529.939 446.338C531.13 445.446 532.709 444.941 534.356 444.928H570.5C571.295 444.924 572.082 445.047 572.813 445.29C573.545 445.532 574.205 445.89 574.755 446.34C575.304 446.79 575.73 447.323 576.007 447.906C576.284 448.49 576.406 449.112 576.365 449.734L574.723 478.067C574.637 479.347 573.935 480.554 572.76 481.445C571.585 482.336 570.024 482.846 568.389 482.873V482.873Z" fill="#FAFAFA"/>
</g>
<path d="M282.224 334.012C268.899 334.012 258.451 321.862 258.451 306.353C258.451 290.844 268.899 278.707 282.224 278.707C295.549 278.707 306.012 290.857 306.012 306.353C305.952 307.08 305.54 307.762 304.862 308.26C304.184 308.758 303.29 309.035 302.36 309.035C301.431 309.035 300.537 308.758 299.858 308.26C299.18 307.762 298.769 307.08 298.708 306.353C298.708 294.473 291.17 284.42 282.224 284.42C273.278 284.42 265.739 294.473 265.739 306.353C265.739 318.233 273.293 328.286 282.224 328.286C282.723 328.261 283.225 328.316 283.696 328.448C284.167 328.58 284.599 328.787 284.965 329.055C285.33 329.324 285.622 329.648 285.821 330.008C286.02 330.368 286.123 330.757 286.123 331.149C286.123 331.542 286.02 331.93 285.821 332.29C285.622 332.65 285.33 332.975 284.965 333.243C284.599 333.511 284.167 333.718 283.696 333.85C283.225 333.983 282.723 334.038 282.224 334.012V334.012Z" fill="#263238"/>
<path d="M337.417 334.012C324.092 334.012 313.645 321.862 313.645 306.353C313.645 290.844 324.092 278.707 337.417 278.707C350.743 278.707 361.284 290.857 361.284 306.353C361.223 307.08 360.812 307.762 360.134 308.26C359.456 308.758 358.561 309.035 357.632 309.035C356.703 309.035 355.808 308.758 355.13 308.26C354.452 307.762 354.041 307.08 353.98 306.353C353.98 294.473 346.442 284.42 337.496 284.42C328.549 284.42 321.011 294.473 321.011 306.353C321.011 318.233 328.565 328.286 337.496 328.286C338.423 328.334 339.292 328.656 339.927 329.188C340.563 329.72 340.916 330.421 340.916 331.149C340.916 331.878 340.563 332.579 339.927 333.11C339.292 333.642 338.423 333.964 337.496 334.012H337.417Z" fill="#263238"/>
<path d="M392.564 334.012C379.223 334.012 368.776 321.862 368.776 306.353C368.776 290.844 379.223 278.707 392.564 278.707C405.905 278.707 416.337 290.857 416.337 306.353C416.337 307.111 415.953 307.838 415.269 308.373C414.586 308.909 413.659 309.21 412.693 309.21C411.726 309.21 410.799 308.909 410.116 308.373C409.432 307.838 409.049 307.111 409.049 306.353C409.049 294.473 401.494 284.42 392.564 284.42C383.634 284.42 376.079 294.473 376.079 306.353C376.079 318.233 383.634 328.286 392.564 328.286C393.491 328.334 394.361 328.656 394.996 329.188C395.631 329.72 395.985 330.421 395.985 331.149C395.985 331.878 395.631 332.579 394.996 333.11C394.361 333.642 393.491 333.964 392.564 334.012V334.012Z" fill="#263238"/>
<path d="M447.804 334.012C434.464 334.012 424.016 321.862 424.016 306.353C424.016 290.844 434.464 278.707 447.804 278.707C461.145 278.707 471.577 290.857 471.577 306.353C471.577 307.111 471.193 307.838 470.51 308.373C469.827 308.909 468.9 309.21 467.933 309.21C466.967 309.21 466.04 308.909 465.356 308.373C464.673 307.838 464.289 307.111 464.289 306.353C464.289 294.473 456.735 284.42 447.804 284.42C438.874 284.42 431.32 294.473 431.32 306.353C431.32 318.233 438.858 328.286 447.804 328.286C448.732 328.334 449.601 328.656 450.236 329.188C450.872 329.72 451.225 330.421 451.225 331.149C451.225 331.878 450.872 332.579 450.236 333.11C449.601 333.642 448.732 333.964 447.804 334.012V334.012Z" fill="#263238"/>
<path d="M502.982 334.012C489.657 334.012 479.21 321.862 479.21 306.353C479.21 290.844 489.657 278.707 502.982 278.707C516.308 278.707 526.771 290.857 526.771 306.353C526.71 307.08 526.299 307.762 525.621 308.26C524.943 308.758 524.048 309.035 523.119 309.035C522.19 309.035 521.295 308.758 520.617 308.26C519.939 307.762 519.528 307.08 519.467 306.353C519.467 294.473 511.928 284.42 502.982 284.42C494.036 284.42 486.498 294.473 486.498 306.353C486.498 318.233 494.052 328.286 502.982 328.286C503.482 328.261 503.983 328.316 504.455 328.448C504.926 328.58 505.358 328.787 505.723 329.055C506.089 329.324 506.38 329.648 506.579 330.008C506.779 330.368 506.881 330.757 506.881 331.149C506.881 331.542 506.779 331.93 506.579 332.29C506.38 332.65 506.089 332.975 505.723 333.243C505.358 333.511 504.926 333.718 504.455 333.85C503.983 333.983 503.482 334.038 502.982 334.012V334.012Z" fill="#263238"/>
<path d="M558.176 334.012C544.851 334.012 534.403 321.862 534.403 306.353C534.403 290.844 544.851 278.707 558.176 278.707C571.501 278.707 581.964 290.857 581.964 306.353C581.904 307.08 581.493 307.762 580.814 308.26C580.136 308.758 579.242 309.035 578.313 309.035C577.383 309.035 576.489 308.758 575.811 308.26C575.132 307.762 574.721 307.08 574.661 306.353C574.661 294.473 567.106 284.42 558.176 284.42C549.246 284.42 541.691 294.473 541.691 306.353C541.691 318.233 549.246 328.286 558.176 328.286C559.103 328.334 559.973 328.656 560.608 329.188C561.243 329.72 561.597 330.421 561.597 331.149C561.597 331.878 561.243 332.579 560.608 333.11C559.973 333.642 559.103 333.964 558.176 334.012V334.012Z" fill="#263238"/>
<g opacity="0.3">
<path d="M282.224 334.012C268.899 334.012 258.451 321.862 258.451 306.353C258.451 290.844 268.899 278.707 282.224 278.707C295.549 278.707 306.012 290.857 306.012 306.353C305.952 307.08 305.54 307.762 304.862 308.26C304.184 308.758 303.29 309.035 302.36 309.035C301.431 309.035 300.537 308.758 299.858 308.26C299.18 307.762 298.769 307.08 298.708 306.353C298.708 294.473 291.17 284.42 282.224 284.42C273.278 284.42 265.739 294.473 265.739 306.353C265.739 318.233 273.293 328.286 282.224 328.286C282.723 328.261 283.225 328.316 283.696 328.448C284.167 328.58 284.599 328.787 284.965 329.055C285.33 329.324 285.622 329.648 285.821 330.008C286.02 330.368 286.123 330.757 286.123 331.149C286.123 331.542 286.02 331.93 285.821 332.29C285.622 332.65 285.33 332.975 284.965 333.243C284.599 333.511 284.167 333.718 283.696 333.85C283.225 333.983 282.723 334.038 282.224 334.012V334.012Z" fill="black"/>
<path d="M337.417 334.012C324.092 334.012 313.645 321.862 313.645 306.353C313.645 290.844 324.092 278.707 337.417 278.707C350.743 278.707 361.284 290.857 361.284 306.353C361.223 307.08 360.812 307.762 360.134 308.26C359.456 308.758 358.561 309.035 357.632 309.035C356.703 309.035 355.808 308.758 355.13 308.26C354.452 307.762 354.041 307.08 353.98 306.353C353.98 294.473 346.442 284.42 337.496 284.42C328.549 284.42 321.011 294.473 321.011 306.353C321.011 318.233 328.565 328.286 337.496 328.286C338.423 328.334 339.292 328.656 339.927 329.188C340.563 329.72 340.916 330.421 340.916 331.149C340.916 331.878 340.563 332.579 339.927 333.11C339.292 333.642 338.423 333.964 337.496 334.012H337.417Z" fill="black"/>
<path d="M392.564 334.012C379.223 334.012 368.776 321.862 368.776 306.353C368.776 290.844 379.223 278.707 392.564 278.707C405.905 278.707 416.337 290.857 416.337 306.353C416.337 307.111 415.953 307.838 415.269 308.373C414.586 308.909 413.659 309.21 412.693 309.21C411.726 309.21 410.799 308.909 410.116 308.373C409.432 307.838 409.049 307.111 409.049 306.353C409.049 294.473 401.494 284.42 392.564 284.42C383.634 284.42 376.079 294.473 376.079 306.353C376.079 318.233 383.634 328.286 392.564 328.286C393.491 328.334 394.361 328.656 394.996 329.188C395.631 329.72 395.985 330.421 395.985 331.149C395.985 331.878 395.631 332.579 394.996 333.11C394.361 333.642 393.491 333.964 392.564 334.012V334.012Z" fill="black"/>
<path d="M447.804 334.012C434.464 334.012 424.016 321.862 424.016 306.353C424.016 290.844 434.464 278.707 447.804 278.707C461.145 278.707 471.577 290.857 471.577 306.353C471.577 307.111 471.193 307.838 470.51 308.373C469.827 308.909 468.9 309.21 467.933 309.21C466.967 309.21 466.04 308.909 465.356 308.373C464.673 307.838 464.289 307.111 464.289 306.353C464.289 294.473 456.735 284.42 447.804 284.42C438.874 284.42 431.32 294.473 431.32 306.353C431.32 318.233 438.858 328.286 447.804 328.286C448.732 328.334 449.601 328.656 450.236 329.188C450.872 329.72 451.225 330.421 451.225 331.149C451.225 331.878 450.872 332.579 450.236 333.11C449.601 333.642 448.732 333.964 447.804 334.012V334.012Z" fill="black"/>
<path d="M502.982 334.012C489.657 334.012 479.21 321.862 479.21 306.353C479.21 290.844 489.657 278.707 502.982 278.707C516.308 278.707 526.771 290.857 526.771 306.353C526.71 307.08 526.299 307.762 525.621 308.26C524.943 308.758 524.048 309.035 523.119 309.035C522.19 309.035 521.295 308.758 520.617 308.26C519.939 307.762 519.528 307.08 519.467 306.353C519.467 294.473 511.928 284.42 502.982 284.42C494.036 284.42 486.498 294.473 486.498 306.353C486.498 318.233 494.052 328.286 502.982 328.286C503.482 328.261 503.983 328.316 504.455 328.448C504.926 328.58 505.358 328.787 505.723 329.055C506.089 329.324 506.38 329.648 506.579 330.008C506.779 330.368 506.881 330.757 506.881 331.149C506.881 331.542 506.779 331.93 506.579 332.29C506.38 332.65 506.089 332.975 505.723 333.243C505.358 333.511 504.926 333.718 504.455 333.85C503.983 333.983 503.482 334.038 502.982 334.012V334.012Z" fill="black"/>
<path d="M558.176 334.012C544.851 334.012 534.403 321.862 534.403 306.353C534.403 290.844 544.851 278.707 558.176 278.707C571.501 278.707 581.964 290.857 581.964 306.353C581.904 307.08 581.492 307.762 580.814 308.26C580.136 308.758 579.242 309.035 578.312 309.035C577.383 309.035 576.489 308.758 575.811 308.26C575.132 307.762 574.721 307.08 574.66 306.353C574.66 294.473 567.106 284.42 558.176 284.42C549.245 284.42 541.691 294.473 541.691 306.353C541.691 318.233 549.245 328.286 558.176 328.286C559.103 328.334 559.973 328.656 560.608 329.188C561.243 329.72 561.597 330.421 561.597 331.149C561.597 331.878 561.243 332.579 560.608 333.11C559.973 333.642 559.103 333.964 558.176 334.012V334.012Z" fill="black"/>
</g>
<path d="M451.495 396.513C438.733 394.527 424.407 396.844 419.293 407.388C415.179 415.872 420.45 425.067 431.805 427.31C441.814 429.284 459.081 426.869 462.647 417.821C466.729 407.474 450.135 404.114 440.829 403.501C438.029 403.318 438.045 406.75 440.829 406.934C445.067 407.216 449.916 407.4 453.669 409.227C461.489 413.064 458.268 419.219 451.605 422.161C444.942 425.104 434.729 425.839 428.145 422.578C420.951 418.986 420.716 411.09 425.017 405.941C430.663 399.137 440.97 398.377 450.26 399.811C453.013 400.24 454.186 396.93 451.417 396.501L451.495 396.513Z" fill="#263238"/>
<path opacity="0.1" d="M451.495 396.513C438.733 394.527 424.407 396.844 419.293 407.388C415.179 415.872 420.45 425.067 431.805 427.31C441.814 429.284 459.081 426.869 462.647 417.821C466.729 407.474 450.135 404.114 440.829 403.501C438.029 403.318 438.045 406.75 440.829 406.934C445.067 407.216 449.916 407.4 453.669 409.227C461.489 413.064 458.268 419.219 451.605 422.161C444.942 425.104 434.729 425.839 428.145 422.578C420.951 418.986 420.716 411.09 425.017 405.941C430.663 399.137 440.97 398.377 450.26 399.811C453.013 400.24 454.186 396.93 451.417 396.501L451.495 396.513Z" fill="#FAFAFA"/>
<path d="M310.689 357.023C322.894 369.707 336.501 381.522 351.353 392.332C353.417 393.84 356.529 391.413 354.481 389.88C339.883 379.283 326.501 367.702 314.489 355.27C312.816 353.529 309.015 355.27 310.72 356.999L310.689 357.023Z" fill="#263238"/>
<path d="M315.209 390.898C324.436 378.037 340.592 367.065 355.873 358.667C358.156 357.441 355.982 354.425 353.667 355.7C337.777 364.453 321.074 375.757 311.439 389.157C311.175 389.548 311.113 390.003 311.266 390.428C311.419 390.854 311.776 391.216 312.262 391.441C312.748 391.665 313.325 391.734 313.874 391.633C314.423 391.532 314.901 391.269 315.209 390.898V390.898Z" fill="#263238"/>
<g opacity="0.2">
<path d="M310.689 357.023C322.894 369.707 336.501 381.522 351.353 392.332C353.417 393.84 356.529 391.413 354.481 389.88C339.883 379.283 326.501 367.702 314.489 355.27C312.816 353.529 309.015 355.27 310.72 356.999L310.689 357.023Z" fill="black"/>
<path d="M315.209 390.898C324.436 378.037 340.592 367.065 355.873 358.667C358.156 357.441 355.982 354.425 353.667 355.7C337.777 364.453 321.074 375.757 311.439 389.157C311.175 389.548 311.113 390.003 311.266 390.428C311.419 390.854 311.776 391.216 312.262 391.441C312.748 391.665 313.325 391.734 313.874 391.633C314.423 391.532 314.901 391.269 315.209 390.898V390.898Z" fill="black"/>
</g>
<path d="M484.637 367.997H513.18C513.726 367.96 514.236 367.764 514.607 367.448C514.978 367.131 515.184 366.717 515.184 366.286C515.184 365.856 514.978 365.442 514.607 365.125C514.236 364.808 513.726 364.612 513.18 364.576H484.637C484.09 364.612 483.58 364.808 483.209 365.125C482.838 365.442 482.632 365.856 482.632 366.286C482.632 366.717 482.838 367.131 483.209 367.448C483.58 367.764 484.09 367.96 484.637 367.997Z" fill="#263238"/>
<path d="M484.308 374.36H500.855C501.436 374.36 501.993 374.179 502.404 373.857C502.814 373.535 503.045 373.098 503.045 372.643C503.045 372.188 502.814 371.751 502.404 371.429C501.993 371.108 501.436 370.927 500.855 370.927H484.308C483.728 370.927 483.171 371.108 482.76 371.429C482.349 371.751 482.119 372.188 482.119 372.643C482.119 373.098 482.349 373.535 482.76 373.857C483.171 374.179 483.728 374.36 484.308 374.36V374.36Z" fill="#263238"/>
<g opacity="0.1">
<path d="M484.637 367.997H513.18C513.726 367.96 514.236 367.764 514.607 367.448C514.978 367.131 515.184 366.717 515.184 366.286C515.184 365.856 514.978 365.442 514.607 365.125C514.236 364.808 513.726 364.612 513.18 364.576H484.637C484.09 364.612 483.58 364.808 483.209 365.125C482.838 365.442 482.632 365.856 482.632 366.286C482.632 366.717 482.838 367.131 483.209 367.448C483.58 367.764 484.09 367.96 484.637 367.997Z" fill="#FAFAFA"/>
<path d="M484.308 374.36H500.855C501.436 374.36 501.993 374.179 502.404 373.857C502.814 373.535 503.045 373.098 503.045 372.643C503.045 372.188 502.814 371.751 502.404 371.429C501.993 371.108 501.436 370.927 500.855 370.927H484.308C483.728 370.927 483.171 371.108 482.76 371.429C482.349 371.751 482.119 372.188 482.119 372.643C482.119 373.098 482.349 373.535 482.76 373.857C483.171 374.179 483.728 374.36 484.308 374.36V374.36Z" fill="#FAFAFA"/>
</g>
<path d="M313.676 455.827H338.152C338.733 455.827 339.29 455.647 339.701 455.325C340.111 455.003 340.342 454.566 340.342 454.111C340.342 453.656 340.111 453.219 339.701 452.897C339.29 452.575 338.733 452.395 338.152 452.395H313.676C313.095 452.395 312.538 452.575 312.128 452.897C311.717 453.219 311.486 453.656 311.486 454.111C311.486 454.566 311.717 455.003 312.128 455.325C312.538 455.647 313.095 455.827 313.676 455.827Z" fill="#263238"/>
<path d="M312.8 463.195H344.549C345.13 463.195 345.687 463.015 346.097 462.693C346.508 462.371 346.739 461.934 346.739 461.479C346.739 461.024 346.508 460.587 346.097 460.265C345.687 459.944 345.13 459.763 344.549 459.763H312.8C312.219 459.763 311.662 459.944 311.252 460.265C310.841 460.587 310.61 461.024 310.61 461.479C310.61 461.934 310.841 462.371 311.252 462.693C311.662 463.015 312.219 463.195 312.8 463.195V463.195Z" fill="#263238"/>
<path d="M312.8 470.784H328.675C329.255 470.784 329.812 470.603 330.223 470.282C330.634 469.96 330.864 469.523 330.864 469.068C330.864 468.613 330.634 468.176 330.223 467.854C329.812 467.532 329.255 467.352 328.675 467.352H312.8C312.219 467.352 311.662 467.532 311.252 467.854C310.841 468.176 310.61 468.613 310.61 469.068C310.61 469.523 310.841 469.96 311.252 470.282C311.662 470.603 312.219 470.784 312.8 470.784V470.784Z" fill="#263238"/>
<g opacity="0.1">
<path d="M313.676 455.827H338.152C338.733 455.827 339.29 455.647 339.701 455.325C340.111 455.003 340.342 454.566 340.342 454.111C340.342 453.656 340.111 453.219 339.701 452.897C339.29 452.575 338.733 452.395 338.152 452.395H313.676C313.095 452.395 312.538 452.575 312.128 452.897C311.717 453.219 311.486 453.656 311.486 454.111C311.486 454.566 311.717 455.003 312.128 455.325C312.538 455.647 313.095 455.827 313.676 455.827Z" fill="#FAFAFA"/>
<path d="M312.8 463.195H344.549C345.13 463.195 345.687 463.015 346.097 462.693C346.508 462.371 346.739 461.934 346.739 461.479C346.739 461.024 346.508 460.587 346.097 460.265C345.687 459.944 345.13 459.763 344.549 459.763H312.8C312.219 459.763 311.662 459.944 311.252 460.265C310.841 460.587 310.61 461.024 310.61 461.479C310.61 461.934 310.841 462.371 311.252 462.693C311.662 463.015 312.219 463.195 312.8 463.195V463.195Z" fill="#FAFAFA"/>
<path d="M312.8 470.784H328.675C329.255 470.784 329.812 470.603 330.223 470.282C330.634 469.96 330.864 469.523 330.864 469.068C330.864 468.613 330.634 468.176 330.223 467.854C329.812 467.532 329.255 467.352 328.675 467.352H312.8C312.219 467.352 311.662 467.532 311.252 467.854C310.841 468.176 310.61 468.613 310.61 469.068C310.61 469.523 310.841 469.96 311.252 470.282C311.662 470.603 312.219 470.784 312.8 470.784V470.784Z" fill="#FAFAFA"/>
</g>
<path d="M141.057 263.332L148.455 263.074L145.108 274.108C142.468 272.691 140.062 271.024 137.945 269.143C137.334 268.58 137.031 267.851 137.102 267.115C137.172 266.378 137.61 265.693 138.32 265.207L141.057 263.332Z" fill="#E4897B"/>
<path d="M157.041 269.02L153.726 277.995L145.108 274.084L148.455 263.074L157.041 269.02Z" fill="#E4897B"/>
<path d="M155.582 215.743L140.445 216.842L175.163 510.769L190.3 509.67L155.582 215.743Z" fill="#263238"/>
<path opacity="0.3" d="M155.582 215.743L140.445 216.842L175.163 510.769L190.3 509.67L155.582 215.743Z" fill="black"/>
<path d="M185.864 213.54L170.727 214.639L205.445 508.565L220.582 507.467L185.864 213.54Z" fill="#263238"/>
<path opacity="0.3" d="M185.864 213.54L170.727 214.639L205.445 508.565L220.582 507.467L185.864 213.54Z" fill="black"/>
<path d="M170.731 214.642L155.594 215.74L190.312 509.667L205.449 508.568L170.731 214.642Z" fill="#263238"/>
<path opacity="0.1" d="M170.731 214.642L155.594 215.74L190.312 509.667L205.449 508.568L170.731 214.642Z" fill="black"/>
<path d="M167.536 194.088L153.913 195.081L140.447 216.842L185.866 213.545L167.536 194.088Z" fill="#263238"/>
<g opacity="0.8">
<path d="M167.536 194.088L153.913 195.081L140.447 216.842L185.866 213.545L167.536 194.088Z" fill="#FAFAFA"/>
</g>
<path d="M159.684 185.751L153.913 195.081L167.536 194.088L159.684 185.751Z" fill="#263238"/>
<path d="M274.138 202.363C275.702 203.589 277 204.754 278.345 206.041C279.69 207.329 280.973 208.493 282.255 209.719C284.836 212.171 287.244 214.758 289.59 217.394C294.426 222.753 298.506 228.508 301.758 234.558C302.149 235.343 302.509 236.164 302.884 237.01L303.447 238.236C303.757 238.97 303.977 239.725 304.104 240.492C304.444 242.932 304.031 245.4 302.9 247.689C301.212 251.067 298.846 254.212 295.893 257.006C290.671 262.016 284.659 266.486 278.001 270.308L272.105 265.404C276.745 260.857 280.988 256.069 284.804 251.072C286.476 248.938 287.761 246.631 288.621 244.219C288.858 243.627 288.885 242.995 288.699 242.392L288.167 241.485C287.807 240.884 287.494 240.259 287.103 239.67C283.793 234.635 279.92 229.839 275.53 225.339C273.34 222.997 271.026 220.717 268.68 218.436C267.507 217.308 266.318 216.18 265.098 215.077L261.532 211.853L274.138 202.363Z" fill="#E4897B"/>
<path d="M262.642 269.143L269.305 279.478L275.827 275.077L270.478 267.733L262.642 269.143Z" fill="#E4897B"/>
<path d="M212.454 208.419C208.398 214.476 204.185 220.463 199.817 226.38C197.674 229.36 195.422 232.29 193.232 235.244L189.87 239.658L189.025 240.761C188.603 241.289 188.134 241.914 187.711 242.331C187.289 242.747 186.867 243.25 186.46 243.63C186.053 244.01 185.615 244.439 185.209 244.795C182.049 247.493 178.686 250.039 175.137 252.421C171.712 254.713 168.286 256.945 164.752 259.066C157.761 263.344 150.582 267.329 143.137 271.129L137.773 265.833L156.306 251.526C159.34 249.074 162.406 246.769 165.299 244.341C168.142 242.057 170.821 239.65 173.322 237.132C173.625 236.838 173.891 236.556 174.12 236.286C174.386 235.992 174.574 235.747 174.761 235.502C174.923 235.305 175.069 235.1 175.199 234.889L175.919 233.749L178.812 229.127C180.798 226.074 182.738 222.997 184.755 219.968C188.749 213.863 192.919 207.827 197.267 201.86L212.454 208.419Z" fill="#E4897B"/>
<path d="M256.355 167.005C256.152 167.716 256.48 168.39 257.059 168.513C257.638 168.635 258.279 168.145 258.482 167.434C258.686 166.723 258.341 166.049 257.763 165.926C257.184 165.803 256.496 166.294 256.355 167.005Z" fill="#263238"/>
<path d="M256.386 168.378C256.876 170.769 257.771 173.099 259.045 175.305C258.326 175.528 257.552 175.625 256.779 175.589C256.007 175.553 255.253 175.385 254.572 175.096L256.386 168.378Z" fill="#DE5753"/>
<path d="M258.748 162.69C258.637 162.69 258.528 162.665 258.435 162.616C257.858 162.34 257.203 162.177 256.527 162.143C255.851 162.109 255.175 162.204 254.557 162.42C254.421 162.461 254.271 162.46 254.137 162.417C254.003 162.374 253.896 162.291 253.837 162.187C253.785 162.081 253.786 161.964 253.841 161.859C253.897 161.754 254.002 161.669 254.134 161.623C254.925 161.357 255.786 161.245 256.644 161.296C257.502 161.347 258.331 161.561 259.061 161.918C259.12 161.948 259.171 161.988 259.211 162.035C259.25 162.081 259.277 162.134 259.29 162.188C259.303 162.243 259.302 162.3 259.287 162.354C259.272 162.409 259.243 162.46 259.202 162.506C259.151 162.563 259.083 162.61 259.004 162.642C258.925 162.674 258.837 162.691 258.748 162.69V162.69Z" fill="#263238"/>
<path d="M224.715 169.715C226.686 176.311 228.923 188.375 223.261 192.776C223.261 192.776 225.889 199.458 241.513 199.458C258.717 199.458 249.333 192.776 249.333 192.776C239.871 191.023 239.839 185.567 241.216 180.455L224.715 169.715Z" fill="#E4897B"/>
<path d="M221.134 195.068C219.789 192.959 218.319 190.532 221.134 189.772C224.168 188.938 241.012 188.092 246.909 189.649C248.48 189.979 249.825 190.775 250.66 191.869C251.495 192.963 251.754 194.268 251.382 195.509L221.134 195.068Z" fill="#263238"/>
<path opacity="0.6" d="M221.134 195.068C219.789 192.959 218.319 190.532 221.134 189.772C224.168 188.938 241.012 188.092 246.909 189.649C248.48 189.979 249.825 190.775 250.66 191.869C251.495 192.963 251.754 194.268 251.382 195.509L221.134 195.068Z" fill="#FAFAFA"/>
<path d="M198.628 502.66C197.618 502.655 196.612 502.569 195.625 502.402C195.574 502.395 195.528 502.376 195.491 502.348C195.455 502.319 195.431 502.283 195.422 502.243C195.411 502.202 195.416 502.159 195.436 502.12C195.455 502.081 195.488 502.047 195.531 502.022C195.656 501.949 198.659 500.257 200.411 500.551C200.6 500.577 200.78 500.635 200.937 500.722C201.093 500.809 201.224 500.922 201.318 501.054C201.459 501.2 201.535 501.379 201.535 501.562C201.535 501.746 201.459 501.925 201.318 502.071C200.943 502.549 199.801 502.66 198.628 502.66ZM196.391 502.096C198.112 502.316 200.458 502.316 200.927 501.814C200.927 501.814 201.115 501.618 200.849 501.262C200.792 501.184 200.713 501.117 200.618 501.066C200.523 501.015 200.415 500.982 200.301 500.968C198.881 501.04 197.52 501.441 196.391 502.12V502.096Z" fill="#FAFAFA"/>
<path d="M195.688 502.439H195.547C195.506 502.421 195.473 502.394 195.451 502.361C195.428 502.329 195.418 502.292 195.422 502.255C195.422 502.145 195.563 499.546 196.861 498.687C197.016 498.578 197.2 498.496 197.4 498.447C197.6 498.399 197.811 498.384 198.018 498.405C198.229 498.405 198.433 498.463 198.596 498.568C198.759 498.673 198.869 498.819 198.909 498.982C199.16 499.987 196.97 501.949 195.781 502.451L195.688 502.439ZM197.83 498.761C197.605 498.763 197.389 498.828 197.22 498.945C196.453 499.769 196.027 500.757 196 501.777C197.127 501.078 198.518 499.595 198.378 499.006C198.378 498.945 198.378 498.798 197.955 498.761H197.83Z" fill="#FAFAFA"/>
<path d="M267.632 502.66C266.446 502.659 265.263 502.573 264.097 502.402C264.042 502.395 263.992 502.375 263.952 502.344C263.913 502.313 263.887 502.274 263.878 502.231C263.869 502.188 263.877 502.145 263.899 502.106C263.921 502.067 263.957 502.033 264.003 502.01C264.582 501.752 269.681 499.46 270.916 501.041C271.04 501.18 271.106 501.344 271.106 501.513C271.106 501.682 271.04 501.847 270.916 501.985C270.572 502.525 269.102 502.66 267.632 502.66ZM264.957 502.084C267.116 502.329 270.025 502.292 270.525 501.74C270.525 501.74 270.681 501.569 270.447 501.262C269.759 500.392 266.662 501.434 264.957 502.108V502.084Z" fill="#FAFAFA"/>
<path d="M264.144 502.439C264.093 502.45 264.039 502.45 263.988 502.439C263.948 502.417 263.917 502.387 263.898 502.352C263.879 502.318 263.872 502.28 263.878 502.243C263.878 502.144 264.066 499.717 265.442 498.773C265.651 498.623 265.9 498.512 266.17 498.449C266.441 498.385 266.727 498.37 267.006 498.405C267.772 498.466 267.991 498.773 268.038 499.018C268.257 500.06 265.645 501.961 264.269 502.451L264.144 502.439ZM266.771 498.761C266.424 498.757 266.088 498.858 265.833 499.043C265.011 499.832 264.534 500.808 264.472 501.826C265.849 501.164 267.6 499.656 267.491 499.03C267.491 498.969 267.491 498.81 266.928 498.761H266.771Z" fill="#FAFAFA"/>
<path d="M251.507 502.218H263.002L263.112 481.364H251.632L251.507 502.218Z" fill="#E4897B"/>
<path d="M182.519 502.218H194.014L198.769 481.364H187.273L182.519 502.218Z" fill="#E4897B"/>
<path d="M194.781 501.176H181.878C181.649 501.173 181.428 501.235 181.253 501.35C181.078 501.465 180.961 501.625 180.923 501.801L179.047 509.807C179.008 510.005 179.025 510.208 179.096 510.401C179.168 510.594 179.292 510.773 179.46 510.924C179.628 511.076 179.836 511.197 180.07 511.279C180.304 511.362 180.558 511.403 180.814 511.401C185.318 511.339 187.492 511.131 193.17 511.131C196.657 511.131 203.867 511.425 208.7 511.425C213.533 511.425 213.955 507.747 211.969 507.343C203.038 505.822 199.598 503.726 196.673 501.74C196.151 501.377 195.478 501.177 194.781 501.176V501.176Z" fill="#263238"/>
<path d="M262.877 501.176H250.365C250.137 501.173 249.915 501.235 249.74 501.35C249.565 501.465 249.448 501.625 249.411 501.801L247.534 509.807C247.491 510.004 247.503 510.206 247.57 510.399C247.638 510.592 247.759 510.771 247.924 510.924C248.09 511.076 248.297 511.197 248.529 511.28C248.762 511.362 249.015 511.404 249.27 511.401C253.79 511.339 260.312 511.131 266.005 511.131C272.668 511.131 278.423 511.425 286.228 511.425C290.92 511.425 292.061 507.747 290.075 507.343C281.004 505.798 273.653 505.638 265.708 501.887C264.868 501.447 263.887 501.201 262.877 501.176V501.176Z" fill="#263238"/>
<path d="M201.349 194.811C190.667 196.748 179.453 219.76 179.453 219.76L201.646 231.383C206.742 225.327 211.208 218.96 215.003 212.343C220.868 201.812 212.25 192.837 201.349 194.811Z" fill="#263238"/>
<path opacity="0.7" d="M201.349 194.811C190.667 196.748 179.453 219.76 179.453 219.76L201.646 231.383C206.742 225.327 211.208 218.96 215.003 212.343C220.868 201.812 212.25 192.837 201.349 194.811Z" fill="black"/>
<path d="M209.779 209.486L200.599 230.831L201.646 231.383C201.646 231.383 205.838 226.479 210.295 219.944L209.779 209.486Z" fill="#263238"/>
<path opacity="0.8" d="M209.779 209.486L200.599 230.831L201.646 231.383C201.646 231.383 205.838 226.479 210.295 219.944L209.779 209.486Z" fill="black"/>
<path d="M273.027 235.048C272.934 245.102 272.167 257.607 270.259 273.128H208.794C207.996 265.772 212.157 229.654 201.349 194.811C208.11 193.784 214.949 193.104 221.822 192.776C230.521 192.383 239.242 192.383 247.941 192.776C253.94 193.233 259.885 194.053 265.724 195.228C265.724 195.228 270.979 199.691 272.574 220.618C272.887 224.799 273.059 229.556 273.027 235.048Z" fill="#263238"/>
<path opacity="0.7" d="M273.027 235.048C272.934 245.102 272.167 257.607 270.259 273.128H208.794C207.996 265.772 212.157 229.654 201.349 194.811C208.11 193.784 214.949 193.104 221.822 192.776C230.521 192.383 239.242 192.383 247.941 192.776C253.94 193.233 259.885 194.053 265.724 195.228C265.724 195.228 270.979 199.691 272.574 220.618C272.887 224.799 273.059 229.556 273.027 235.048Z" fill="black"/>
<path d="M273.027 235.048C269.305 229.728 262.549 219.049 263.503 212.98L272.574 220.68C272.887 224.799 273.059 229.556 273.027 235.048Z" fill="#263238"/>
<path opacity="0.8" d="M273.027 235.048C269.305 229.728 262.549 219.049 263.503 212.98L272.574 220.68C272.887 224.799 273.059 229.556 273.027 235.048Z" fill="black"/>
<path d="M253.681 203.417C252.711 211.999 277.532 232.645 277.532 232.645L297.426 219.944C292.215 213.051 285.972 206.672 278.83 200.941C267.194 192.126 254.776 193.806 253.681 203.417Z" fill="#263238"/>
<path opacity="0.7" d="M253.681 203.417C252.711 211.999 277.532 232.645 277.532 232.645L297.426 219.944C292.215 213.051 285.972 206.672 278.83 200.941C267.194 192.126 254.776 193.806 253.681 203.417Z" fill="black"/>
<path d="M263.112 481.376L263.049 492.116H251.569L251.616 481.376H263.112Z" fill="#CE6F64"/>
<path d="M187.273 481.376H198.769L196.313 492.116H184.818L187.273 481.376Z" fill="#CE6F64"/>
<path d="M226.78 159.564C225.106 168.44 223.558 173.54 227.906 179.18C229.288 181.006 231.282 182.501 233.67 183.503C236.059 184.504 238.752 184.975 241.457 184.862C244.162 184.75 246.776 184.059 249.017 182.865C251.257 181.671 253.038 180.019 254.166 178.089C258.654 170.733 260.656 157.443 250.787 151.828C248.705 150.567 246.236 149.759 243.628 149.484C241.021 149.209 238.367 149.477 235.934 150.261C233.5 151.045 231.373 152.318 229.766 153.951C228.159 155.584 227.129 157.52 226.78 159.564Z" fill="#E4897B"/>
<path d="M260.797 155.358C257.412 156.807 253.688 157.704 249.849 157.994C246.987 168.256 239.37 180.062 227.046 176.666C222.354 175.44 217.662 166.527 217.177 158.619C216.364 159.392 215.816 160.397 215.394 160.814C214.691 157.3 215.198 153.702 216.864 150.393C220.274 142.816 222.542 147.843 226.248 143.245C228.641 140.205 232.895 138.636 240.324 138.439C238.244 139.285 237.853 140.646 240.934 140.45C244.015 140.254 257.169 139.69 264.832 143.748C259.655 144.668 262.815 151.104 269.727 147.671C267.209 150.871 264.081 153.912 260.797 155.358Z" fill="#263238"/>
<path d="M240.997 165.056C241.04 167.313 242.005 169.5 243.749 171.296C246.08 173.65 248.754 172.522 249.395 169.874C249.958 167.52 249.395 163.45 246.486 162.028C243.577 160.606 240.981 162.359 240.997 165.056Z" fill="#E4897B"/>
<path d="M226.983 144.201C225.422 144.124 223.91 143.748 222.577 143.107C221.243 142.466 220.131 141.579 219.335 140.523C219.335 140.523 219.132 147.708 226.983 144.201Z" fill="#1E2A4C"/>
<path d="M248.441 273.128C248.441 273.128 238.807 341.956 232.911 367.739C226.467 395.937 201.631 490.044 201.631 490.044H180.517C180.517 490.044 195.5 398.254 198.628 370.252C201.991 339.908 208.857 273.079 208.857 273.079L248.441 273.128Z" fill="#263238"/>
<path opacity="0.6" d="M248.441 273.128C248.441 273.128 238.807 341.956 232.911 367.739C226.467 395.937 201.631 490.044 201.631 490.044H180.517C180.517 490.044 195.5 398.254 198.628 370.252C201.991 339.908 208.857 273.079 208.857 273.079L248.441 273.128Z" fill="#FAFAFA"/>
<path d="M204.618 483.963C204.712 483.963 202.757 490.301 202.757 490.301H179.094L179.25 484.649L204.618 483.963Z" fill="#263238"/>
<path opacity="0.1" d="M204.618 483.963C204.712 483.963 202.757 490.301 202.757 490.301H179.094L179.25 484.649L204.618 483.963Z" fill="#FAFAFA"/>
<path d="M241.419 297.648C226.452 299.965 230.221 344.04 233.145 366.709C236.711 350.685 241.56 319.851 244.828 297.967C243.77 297.562 242.569 297.45 241.419 297.648V297.648Z" fill="#263238"/>
<path opacity="0.4" d="M241.419 297.648C226.452 299.965 230.221 344.04 233.145 366.709C236.711 350.685 241.56 319.851 244.828 297.967C243.77 297.562 242.569 297.45 241.419 297.648V297.648Z" fill="#FAFAFA"/>
<path d="M270.244 273.128C270.244 273.128 275.154 340.46 275.248 367.934C275.358 396.5 267.241 490.044 267.241 490.044H247.769C247.769 490.044 242.529 398.168 240.277 370.117C237.837 339.528 229.845 273.128 229.845 273.128H270.244Z" fill="#263238"/>
<path opacity="0.6" d="M270.244 273.128C270.244 273.128 275.154 340.46 275.248 367.934C275.358 396.5 267.241 490.044 267.241 490.044H247.769C247.769 490.044 242.529 398.168 240.277 370.117C237.837 339.528 229.845 273.128 229.845 273.128H270.244Z" fill="#FAFAFA"/>
<path d="M274.951 264.473L269.493 264.816C269.048 264.845 268.617 264.952 268.232 265.128C267.846 265.304 267.516 265.545 267.264 265.834C267.012 266.123 266.846 266.452 266.777 266.798C266.708 267.143 266.738 267.497 266.865 267.832L269.117 273.778C269.308 274.261 269.644 274.701 270.097 275.06C270.551 275.42 271.109 275.688 271.723 275.842C272.337 275.996 272.99 276.032 273.626 275.946C274.261 275.859 274.861 275.654 275.373 275.347C278.193 273.29 280.215 270.651 281.207 267.734L274.951 264.473Z" fill="#E4897B"/>
<path d="M262.627 479.083C262.574 479.077 262.526 479.057 262.492 479.025C262.457 478.994 262.439 478.953 262.439 478.912C264.597 453.031 269.602 390.395 269.508 367.934C269.508 344.947 265.943 293.528 264.816 278.314C264.814 278.293 264.818 278.273 264.826 278.254C264.834 278.234 264.848 278.217 264.866 278.202C264.883 278.187 264.905 278.175 264.928 278.167C264.952 278.158 264.978 278.154 265.004 278.154C265.055 278.154 265.105 278.169 265.143 278.197C265.18 278.224 265.203 278.261 265.207 278.301C266.271 293.516 269.759 344.934 269.899 367.934C269.993 390.407 264.988 453.043 262.83 478.936C262.83 478.957 262.825 478.977 262.815 478.996C262.804 479.014 262.789 479.031 262.77 479.045C262.751 479.059 262.728 479.069 262.703 479.076C262.679 479.083 262.653 479.085 262.627 479.083V479.083Z" fill="#263238"/>
<path opacity="0.3" d="M262.627 479.083C262.574 479.077 262.526 479.057 262.492 479.025C262.457 478.994 262.439 478.953 262.439 478.912C264.597 453.031 269.602 390.395 269.508 367.934C269.508 344.947 265.943 293.528 264.816 278.314C264.814 278.293 264.818 278.273 264.826 278.254C264.834 278.234 264.848 278.217 264.866 278.202C264.883 278.187 264.905 278.175 264.928 278.167C264.952 278.158 264.978 278.154 265.004 278.154C265.055 278.154 265.105 278.169 265.143 278.197C265.18 278.224 265.203 278.261 265.207 278.301C266.271 293.516 269.759 344.934 269.899 367.934C269.993 390.407 264.988 453.043 262.83 478.936C262.83 478.957 262.825 478.977 262.815 478.996C262.804 479.014 262.789 479.031 262.77 479.045C262.751 479.059 262.728 479.069 262.703 479.076C262.679 479.083 262.653 479.085 262.627 479.083V479.083Z" fill="#FAFAFA"/>
<path d="M270.681 483.963C270.775 483.963 269.899 490.301 269.899 490.301H246.22L245.298 484.649L270.681 483.963Z" fill="#263238"/>
<path opacity="0.1" d="M270.681 483.963C270.775 483.963 269.899 490.301 269.899 490.301H246.22L245.298 484.649L270.681 483.963Z" fill="#FAFAFA"/>
</svg>
