<svg width="41" height="41" viewBox="0 0 41 41" fill="none" xmlns="http://www.w3.org/2000/svg">
<g clip-path="url(#clip0_116_103)">
<path d="M34.2488 7.64071C31.6868 6.47071 28.9406 5.60904 26.0688 5.11571C26.0169 5.10571 25.965 5.13071 25.9365 5.17738C25.5832 5.80238 25.1913 6.61904 24.9184 7.25904C21.8289 6.79904 18.7562 6.79904 15.7303 7.25904C15.4574 6.60404 15.0505 5.80238 14.6971 5.17738C14.6687 5.13071 14.6168 5.10738 14.5649 5.11571C11.6947 5.60738 8.94853 6.46904 6.38485 7.64071C6.36308 7.64904 6.34299 7.66571 6.33126 7.68571C1.12185 15.4324 -0.306516 22.989 0.393432 30.4524C0.396781 30.489 0.416875 30.524 0.445342 30.5457C3.88312 33.059 7.21206 34.584 10.4807 35.594C10.5326 35.6107 10.5879 35.5907 10.6214 35.5474C11.395 34.4974 12.0832 33.389 12.6743 32.224C12.7095 32.1557 12.676 32.074 12.604 32.0474C11.5105 31.634 10.4707 31.1307 9.46931 30.5607C9.3906 30.514 9.38391 30.4024 9.45591 30.3474C9.6669 30.1907 9.87789 30.0274 10.0788 29.8624C10.1157 29.8324 10.1659 29.8257 10.2094 29.8457C16.7869 32.834 23.907 32.834 30.4058 29.8457C30.4493 29.8257 30.4996 29.8307 30.5381 29.8624C30.739 30.0274 30.95 30.1924 31.1627 30.349C31.2363 30.4024 31.2313 30.5157 31.1509 30.5624C30.1496 31.144 29.1097 31.6374 28.0146 32.0474C27.9426 32.074 27.9124 32.1574 27.9459 32.2257C28.5487 33.389 29.2386 34.4974 29.9972 35.5474C30.029 35.5924 30.0859 35.6107 30.1379 35.5957C33.4216 34.584 36.7522 33.059 40.1883 30.5474C40.2184 30.5257 40.2369 30.4924 40.2402 30.4557C41.0775 21.8274 38.837 14.3324 34.299 7.68904C34.2907 7.66571 34.2706 7.64904 34.2488 7.64071ZM13.6573 25.909C11.6763 25.909 10.0453 24.099 10.0453 21.8774C10.0453 19.6557 11.6445 17.8457 13.6573 17.8457C15.6851 17.8457 17.301 19.6707 17.2692 21.8774C17.2692 24.1007 15.6684 25.909 13.6573 25.909ZM27.0115 25.909C25.0323 25.909 23.3996 24.099 23.3996 21.8774C23.3996 19.6557 24.9988 17.8457 27.0115 17.8457C29.0394 17.8457 30.6553 19.6707 30.6235 21.8774C30.6235 24.1007 29.0394 25.909 27.0115 25.909Z" fill="white"/>
</g>
<defs>
<clipPath id="clip0_116_103">
<rect width="40.1884" height="40" fill="white" transform="translate(0.227661 0.357422)"/>
</clipPath>
</defs>
</svg>
