<svg width="26" height="25" viewBox="0 0 26 25" fill="none" xmlns="http://www.w3.org/2000/svg">
<g clip-path="url(#clip0_116_115)">
<path d="M24.7826 16.0273C25.1162 14.9062 25.2967 13.7266 25.2967 12.5C25.2967 10.1641 24.6491 7.97656 23.5228 6.10547V6.10156C23.5188 6.09375 23.5149 6.08984 23.511 6.08203C21.3132 2.44141 17.3061 0 12.7378 0C6.3328 0 1.03845 4.79688 0.277071 10.9688C0.277071 10.9727 0.277071 10.9727 0.277071 10.9766C0.214277 11.4766 0.178955 11.9844 0.178955 12.5C0.178955 19.3906 5.81475 25 12.7378 25C18.3972 25 23.197 21.25 24.759 16.1172C24.7708 16.0898 24.7786 16.0586 24.7826 16.0273ZM0.940337 12.5C0.940337 12.1914 0.956035 11.8906 0.979583 11.5859C2.22762 12.1602 3.95447 12.707 6.11695 13.2109C6.24646 13.2422 6.38382 13.2656 6.51333 13.2969C6.56043 14.8086 6.73312 16.2383 7.01177 17.5469C6.99999 17.543 6.98429 17.543 6.97252 17.5391C4.83751 17.1055 2.90658 16.4492 1.36812 15.6406C1.0934 14.6406 0.940337 13.5859 0.940337 12.5ZM2.55337 6.58594C3.70329 6.97656 5.61067 7.5 6.94505 7.78906C6.65855 9.23828 6.50156 10.8242 6.50156 12.5C6.50156 12.5078 6.50156 12.5117 6.50156 12.5195C6.43092 12.5039 6.36027 12.4883 6.28963 12.4727C4.02903 11.9492 2.27864 11.3789 1.06985 10.7852C1.28963 9.27344 1.80376 7.85547 2.55337 6.58594ZM24.3783 10.6055C23.0125 11.4609 21.0973 12.2148 19.2017 12.6445C19.1271 12.6602 19.0447 12.6719 18.9702 12.6875C18.9702 12.625 18.9741 12.5625 18.9741 12.5039C18.9741 10.9297 18.8367 9.43359 18.5816 8.05859C18.6012 8.05469 18.6169 8.05469 18.6366 8.05078C20.0808 7.80078 21.9921 7.10938 23.0008 6.71875C23.6758 7.89844 24.1507 9.21094 24.3783 10.6055ZM18.2127 12.5C18.2127 12.6094 18.2088 12.7148 18.2088 12.8242C16.6193 13.0977 14.916 13.2344 13.1185 13.2266V8.45703C13.2716 8.46094 13.4246 8.46094 13.5816 8.46094C15.0416 8.46094 16.4584 8.35938 17.8124 8.16797C18.0675 9.51562 18.2127 10.9805 18.2127 12.5ZM7.26294 12.5C7.26294 10.8906 7.42385 9.34766 7.71035 7.9375C9.22134 8.21484 10.7794 8.37891 12.3571 8.43359V13.2188C10.6421 13.1719 8.90737 12.9883 7.26294 12.6719C7.26294 12.6172 7.26294 12.5586 7.26294 12.5ZM13.1185 7.69922V0.789062C15.0887 1.09375 16.8077 3.75 17.6554 7.42188C16.2072 7.625 14.6884 7.72266 13.1185 7.69922ZM12.3571 0.789062V7.67188C10.8344 7.61719 9.33123 7.45703 7.87519 7.19531C8.74253 3.64453 10.4301 1.08984 12.3571 0.789062ZM7.28257 13.4492C8.92699 13.7539 10.6499 13.9336 12.3571 13.9805V18.1445C10.8187 18.1016 9.31161 17.9531 7.85164 17.6992C7.54159 16.3906 7.34144 14.9531 7.28257 13.4492ZM12.3571 18.8984V24.207C10.5596 23.9258 8.96624 21.6875 8.05965 18.5C9.45682 18.7266 10.8932 18.8594 12.3571 18.8984ZM13.1185 24.2109V18.918C13.1695 18.918 13.2245 18.918 13.2755 18.918C14.6884 18.918 16.062 18.8281 17.3728 18.6523C16.4584 21.7578 14.8885 23.9336 13.1185 24.2109ZM13.1185 18.1523V13.9922C13.1578 13.9922 13.1931 13.9922 13.2323 13.9922C14.9749 13.9922 16.6311 13.8555 18.1852 13.6016C18.1146 15.1133 17.9066 16.5469 17.5848 17.8477C16.168 18.0586 14.6727 18.1602 13.1185 18.1523ZM18.9545 13.457C19.0918 13.4297 19.2331 13.4102 19.3666 13.3828C21.2111 12.9687 23.0753 12.25 24.4843 11.4297C24.5157 11.7812 24.5353 12.1406 24.5353 12.5C24.5353 13.6211 24.3744 14.707 24.0761 15.7344C22.6201 16.6172 20.6931 17.3008 18.4874 17.707C18.4678 17.7109 18.4443 17.7148 18.4246 17.7188C18.7151 16.4102 18.8995 14.9766 18.9545 13.457ZM22.5965 6.05859C21.5879 6.44531 19.8257 7.07031 18.5071 7.30078C18.4835 7.30469 18.456 7.30859 18.4325 7.3125C17.8045 4.49219 16.6782 2.25391 15.2614 1.03125C18.3108 1.69531 20.9286 3.53906 22.5965 6.05859ZM10.2182 1.03125C8.84457 2.21484 7.74175 4.35156 7.10596 7.05078C5.86184 6.78125 4.1036 6.30469 2.96938 5.92969C4.63735 3.47266 7.21585 1.68359 10.2182 1.03125ZM1.70172 16.6484C3.17346 17.3359 4.91993 17.8945 6.81946 18.2812C6.94505 18.3086 7.07456 18.3242 7.20015 18.3516C7.84771 20.8594 8.90737 22.8477 10.2143 23.9727C6.29748 23.1172 3.10282 20.3203 1.70172 16.6484ZM15.2574 23.9688C16.533 22.8672 17.5769 20.9453 18.2284 18.5117C18.3579 18.4883 18.4953 18.4727 18.6248 18.4492C20.591 18.0898 22.2904 17.5352 23.7111 16.8047C22.2786 20.4023 19.1193 23.1289 15.2574 23.9688Z" fill="white"/>
</g>
<defs>
<clipPath id="clip0_116_115">
<rect width="25.1177" height="25" fill="white" transform="translate(0.178955)"/>
</clipPath>
</defs>
</svg>
