<svg width="42" height="41" viewBox="0 0 42 41" fill="none" xmlns="http://www.w3.org/2000/svg">
<g clip-path="url(#clip0_116_100)">
<path d="M41.1051 17.479C41.1051 27.4607 33.7473 35.7357 24.1423 37.2373V23.299H28.8125L29.7017 17.5323H24.1423V13.7907C24.1423 12.2123 24.9193 10.6757 27.4076 10.6757H29.9344V5.76567C29.9344 5.76567 27.6403 5.37567 25.4484 5.37567C20.8703 5.37567 17.8796 8.13734 17.8796 13.1357V17.5307H12.7907V23.2973H17.8796V37.2357C8.27625 35.7323 0.916748 27.459 0.916748 17.479C0.916748 6.434 9.91392 -2.521 21.0109 -2.521C32.108 -2.521 41.1051 6.43234 41.1051 17.479Z" fill="white"/>
</g>
<defs>
<clipPath id="clip0_116_100">
<rect width="40.1884" height="40" fill="white" transform="translate(0.916748 0.357422)"/>
</clipPath>
</defs>
</svg>
