<svg width="26" height="25" viewBox="0 0 26 25" fill="none" xmlns="http://www.w3.org/2000/svg">
<path d="M12.7378 3.125C17.9398 3.125 22.1569 7.32233 22.1569 12.5C22.1569 17.6777 17.9398 21.875 12.7378 21.875C7.5357 21.875 3.3186 17.6777 3.3186 12.5C3.3186 7.32233 7.5357 3.125 12.7378 3.125ZM12.7378 16.4062C12.0875 16.4062 11.5604 16.9309 11.5604 17.5781C11.5604 18.2253 12.0875 18.75 12.7378 18.75C13.388 18.75 13.9151 18.2253 13.9151 17.5781C13.9151 16.9309 13.388 16.4062 12.7378 16.4062ZM12.7378 7.03125C11.0037 7.03125 9.59804 8.43036 9.59804 10.1562C9.59804 10.5877 9.94946 10.9375 10.383 10.9375C10.8165 10.9375 11.1679 10.5877 11.1679 10.1562C11.1679 9.29331 11.8707 8.59375 12.7378 8.59375C13.6048 8.59375 14.3076 9.29331 14.3076 10.1562C14.3076 10.7353 14.178 11.0614 13.733 11.5587L13.551 11.754L13.1364 12.1751C12.2853 13.063 11.9528 13.7023 11.9528 14.8438C11.9528 15.2752 12.3043 15.625 12.7378 15.625C13.1713 15.625 13.5227 15.2752 13.5227 14.8438C13.5227 14.2647 13.6523 13.9386 14.0973 13.4413L14.2793 13.246L14.6939 12.8249C15.545 11.937 15.8775 11.2977 15.8775 10.1562C15.8775 8.43036 14.4718 7.03125 12.7378 7.03125Z" fill="white"/>
</svg>
