<svg width="46" height="46" viewBox="0 0 46 46" fill="none" xmlns="http://www.w3.org/2000/svg">
<g clip-path="url(#clip0_116_108)">
<path d="M30.2951 0.126221H4.86337C2.46961 0.126221 0.624756 1.96243 0.624756 4.34497V29.6575C0.624756 32.039 2.46961 33.8762 4.86337 33.8762H30.2951C32.6878 33.8762 34.5337 32.039 34.5337 29.6575V4.34497C34.5337 1.96243 32.6878 0.126221 30.2951 0.126221ZM17.6036 10.3715C21.3643 10.3715 24.4119 13.3109 24.4119 16.9379C24.4119 20.5629 21.3643 23.5044 17.6036 23.5044C13.8461 23.5044 10.7974 20.5629 10.7974 16.9379C10.7985 13.3109 13.8471 10.3715 17.6036 10.3715ZM30.2951 28.6028C30.2951 29.3421 29.9772 29.6575 29.2354 29.6575H5.92303C5.18233 29.6575 4.86337 29.3421 4.86337 28.6028V13.8372L7.50509 14.4088C7.21505 15.3467 7.06754 16.3226 7.06746 17.3039C7.06746 22.9127 11.7872 27.4648 17.6036 27.4648C23.4232 27.4648 28.1408 22.9138 28.1408 17.3039C28.1408 16.2967 27.9872 15.3264 27.7042 14.4088L30.2951 13.8372V28.6028ZM30.2951 9.61841C30.2951 9.89813 30.1834 10.1664 29.9847 10.3642C29.786 10.562 29.5165 10.6731 29.2354 10.6731H24.9968C24.7158 10.6731 24.4462 10.562 24.2475 10.3642C24.0488 10.1664 23.9372 9.89813 23.9372 9.61841V5.39966C23.9372 5.11994 24.0488 4.85167 24.2475 4.65388C24.4462 4.45609 24.7158 4.34497 24.9968 4.34497H29.2354C29.5165 4.34497 29.786 4.45609 29.9847 4.65388C30.1834 4.85167 30.2951 5.11994 30.2951 5.39966V9.61841Z" fill="url(#paint0_linear_116_108)"/>
</g>
<defs>
<linearGradient id="paint0_linear_116_108" x1="17.5792" y1="33.8762" x2="17.5792" y2="0.126221" gradientUnits="userSpaceOnUse">
<stop offset="0.9999" stop-color="white"/>
<stop offset="1" stop-color="#FB0000"/>
</linearGradient>
<clipPath id="clip0_116_108">
<rect width="45.2119" height="45" fill="white" transform="translate(0.624756 0.126221)"/>
</clipPath>
</defs>
</svg>
