<svg width="34" height="31" viewBox="0 0 34 31" fill="none" xmlns="http://www.w3.org/2000/svg">
<path d="M28.8394 1.15025H21.5829V0.990661C21.5829 0.537417 21.1798 0.169922 20.6827 0.169922H13.2776C12.7805 0.169922 12.3774 0.537417 12.3774 0.990661V1.15025H5.12087C4.62376 1.15025 4.2207 1.51775 4.2207 1.97099V5.21243C4.2207 5.66568 4.62376 6.03317 5.12087 6.03317H28.8394C29.3365 6.03317 29.7396 5.66568 29.7396 5.21243V1.97099C29.7396 1.51775 29.3365 1.15025 28.8394 1.15025Z" fill="black"/>
<path d="M27.486 7.69629H6.47243C5.97532 7.69629 5.57227 8.06378 5.57227 8.51703V29.9736C5.57227 30.4269 5.97532 30.7944 6.47243 30.7944H27.486C27.9831 30.7944 28.3862 30.4269 28.3862 29.9736V8.51703C28.3862 8.06378 27.9831 7.69629 27.486 7.69629ZM12.7034 27.8408C12.7034 28.2941 12.3004 28.6616 11.8033 28.6616H10.9654C10.4683 28.6616 10.0653 28.2941 10.0653 27.8408V10.6499C10.0653 10.1966 10.4683 9.82912 10.9654 9.82912H11.8033C12.3004 9.82912 12.7034 10.1966 12.7034 10.6499V27.8408ZM18.2985 27.8408C18.2985 28.2941 17.8954 28.6616 17.3983 28.6616H16.5605C16.0634 28.6616 15.6603 28.2941 15.6603 27.8408V10.6499C15.6603 10.1966 16.0634 9.82912 16.5605 9.82912H17.3983C17.8954 9.82912 18.2985 10.1966 18.2985 10.6499V27.8408ZM23.8932 27.8408C23.8932 28.2941 23.4901 28.6616 22.993 28.6616H22.1552C21.6581 28.6616 21.255 28.2941 21.255 27.8408V10.6499C21.255 10.1966 21.6581 9.82912 22.1552 9.82912H22.993C23.4901 9.82912 23.8932 10.1966 23.8932 10.6499V27.8408Z" fill="black"/>
</svg>
