<svg width="36" height="37" viewBox="0 0 36 37" fill="none" xmlns="http://www.w3.org/2000/svg">
<path d="M35.2169 34.8266L26.1888 25.2565C28.5339 22.2161 29.6869 18.3365 29.4094 14.4202C29.1318 10.504 27.4448 6.85058 24.6974 4.21579C21.95 1.581 18.3524 0.166388 14.6487 0.264553C10.945 0.362718 7.41855 1.96615 4.79881 4.74319C2.17907 7.52023 0.666457 11.2584 0.573852 15.1845C0.481248 19.1106 1.81573 22.9243 4.30128 25.8366C6.78683 28.749 10.2333 30.5372 13.9277 30.8315C17.6222 31.1257 21.282 29.9034 24.1502 27.4175L33.1783 36.9876L35.2169 34.8266ZM15.0327 27.8179C12.7516 27.8179 10.5216 27.1008 8.62489 25.7574C6.72817 24.414 5.24985 22.5045 4.37689 20.2704C3.50392 18.0363 3.27552 15.578 3.72055 13.2063C4.16558 10.8347 5.26407 8.65615 6.8771 6.94627C8.49013 5.23639 10.5453 4.07194 12.7826 3.60019C15.0199 3.12843 17.339 3.37056 19.4465 4.29594C21.554 5.22132 23.3554 6.7884 24.6227 8.799C25.8901 10.8096 26.5665 13.1734 26.5665 15.5916C26.5631 18.8331 25.3468 21.9408 23.1845 24.2329C21.0223 26.525 18.0906 27.8143 15.0327 27.8179Z" fill="white"/>
</svg>
