<svg width="236" height="50" viewBox="0 0 236 50" fill="none" xmlns="http://www.w3.org/2000/svg">
<g filter="url(#filter0_d_112_185)">
<path d="M30.6 4.7V37.45L23.6 36L7.4 13.1L7.5 37.45L0.5 36V2.7L7.4 4.7L23.6 27.35V2.7L30.6 4.7ZM59.7094 2.65L66.6594 4.7V28.1C66.6594 30 65.1927 32.05 62.2594 34.25C59.326 36.4167 56.2094 37.5 52.9094 37.5C50.9427 37.5 48.5094 36.5 45.6094 34.5C42.7094 32.5 40.0427 30.15 37.6094 27.45C37.576 27.4167 37.5427 27.15 37.5094 26.65C37.476 26.15 37.4427 25.5 37.4094 24.7C37.4094 23.9 37.3927 22.9667 37.3594 21.9C37.3594 20.8333 37.3594 19.7167 37.3594 18.55C37.3594 17.3833 37.3594 16.1833 37.3594 14.95C37.3594 13.6833 37.3594 12.4833 37.3594 11.35C37.3927 10.1833 37.4094 9.06667 37.4094 8C37.4094 6.93333 37.4094 6.01667 37.4094 5.25C37.4427 4.48333 37.4594 3.86667 37.4594 3.4V2.65C37.4594 2.68333 38.026 2.86667 39.1594 3.2C40.326 3.53333 41.476 3.86667 42.6094 4.2L44.3594 4.7C44.226 21.4333 44.2427 29.9 44.4094 30.1C45.776 31.5667 47.526 32.3333 49.6594 32.4C51.826 32.4333 53.8594 31.8667 55.7594 30.7C57.6594 29.5333 58.976 28.0333 59.7094 26.2V2.65ZM74.1445 7.15L70.1445 2.65H98.4945L102.495 7.15H90.4445L90.5445 37.45L83.5445 36V7.15H74.1445ZM126.368 25.6C126.068 25.0333 125.301 24.2167 124.068 23.15C120.834 24.35 117.134 24.4833 112.968 23.55L113.018 37.45L106.018 36V2.55C109.051 1.71667 112.434 1.16667 116.168 0.899999C119.934 0.633332 122.301 0.833331 123.268 1.5C124.268 2.4 125.834 3.91666 127.968 6.05C130.101 8.18333 131.584 9.73333 132.418 10.7C133.284 11.7667 133.184 13.5 132.118 15.9C131.084 18.3 129.301 20.2833 126.768 21.85C130.301 23.35 132.218 24.2667 132.518 24.6C132.951 25.2333 133.251 25.9667 133.418 26.8C133.618 27.6 133.718 28.2833 133.718 28.85C133.718 29.4167 133.684 30.2167 133.618 31.25C133.551 32.2833 133.518 32.9833 133.518 33.35C133.518 33.6833 133.484 34.2 133.418 34.9C133.384 35.5667 133.368 36.0667 133.368 36.4C133.368 36.7333 133.418 37.15 133.518 37.65C133.618 38.1833 133.784 38.6 134.018 38.9C134.251 39.2 134.601 39.5167 135.068 39.85C135.534 40.1833 136.134 40.4667 136.868 40.7C134.234 41.2333 132.034 40.8 130.268 39.4C128.534 38.0333 127.584 36.0167 127.418 33.35C127.418 33.15 127.384 32.5333 127.318 31.5C127.284 30.4667 127.234 29.7167 127.168 29.25C127.134 28.7833 127.051 28.1833 126.918 27.45C126.784 26.6833 126.601 26.0667 126.368 25.6ZM125.518 7.15C123.551 5.28333 119.351 5.01667 112.918 6.35L112.968 20.35C115.301 20.3833 117.401 20.05 119.268 19.35C121.168 18.6167 122.618 17.7 123.618 16.6C124.618 15.4667 125.384 14.2833 125.918 13.05C126.451 11.8167 126.668 10.6667 126.568 9.6C126.468 8.53333 126.118 7.71667 125.518 7.15ZM147.353 4.75L147.453 37.45L139.953 36V2.7L147.353 4.75ZM177.805 22.75H161.405L161.455 37.45L154.455 36V2.7L154.505 2.75L154.455 2.65H175.805L179.805 7.15H161.355V18.25H173.805L177.805 22.75ZM190.957 4.75L191.057 37.45L183.557 36V2.7L190.957 4.75ZM198.559 7.15L194.559 2.65H222.909L226.909 7.15H214.859L214.959 37.45L207.959 36V7.15H198.559Z" fill="white"/>
</g>
<defs>
<filter id="filter0_d_112_185" x="0.5" y="0.5" width="235.408" height="49" filterUnits="userSpaceOnUse" color-interpolation-filters="sRGB">
<feFlood flood-opacity="0" result="BackgroundImageFix"/>
<feColorMatrix in="SourceAlpha" type="matrix" values="0 0 0 0 0 0 0 0 0 0 0 0 0 0 0 0 0 0 127 0" result="hardAlpha"/>
<feOffset dx="5" dy="4"/>
<feGaussianBlur stdDeviation="2"/>
<feComposite in2="hardAlpha" operator="out"/>
<feColorMatrix type="matrix" values="0 0 0 0 0 0 0 0 0 0 0 0 0 0 0 0 0 0 0.25 0"/>
<feBlend mode="normal" in2="BackgroundImageFix" result="effect1_dropShadow_112_185"/>
<feBlend mode="normal" in="SourceGraphic" in2="effect1_dropShadow_112_185" result="shape"/>
</filter>
</defs>
</svg>
