<svg width="16" height="21" viewBox="0 0 16 36" fill="none" xmlns="http://www.w3.org/2000/svg">
<path fill-rule="evenodd" clip-rule="evenodd" d="M0.604585 0.778831C0.412919 1.02333 0.260865 1.31412 0.157121 1.63457C0.053377 1.95502 -2.11843e-05 2.29885 -2.11843e-05 2.64638C-2.11843e-05 2.99392 0.053377 3.33835 0.157121 3.65998C0.260865 3.98161 0.412919 4.27412 0.604585 4.52079L10.9272 17.8079L0.604585 30.9781C0.412919 31.2226 0.260865 31.5134 0.157121 31.8339C0.053377 32.1543 -2.11843e-05 32.4982 -2.11843e-05 32.8457C-2.11843e-05 33.1932 0.053377 33.5377 0.157121 33.8593C0.260865 34.1809 0.412919 34.4734 0.604585 34.7201C0.992101 35.2186 1.51729 35.5004 2.06485 35.5035C2.61241 35.5066 3.1376 35.2308 3.52511 34.7366L15.2033 19.835C15.4076 19.5752 15.5668 19.2629 15.6707 18.9185C15.7745 18.574 15.8206 18.205 15.8059 17.8356C15.8206 17.4662 15.7745 17.0968 15.6707 16.7511C15.5668 16.4055 15.4076 16.0914 15.2033 15.8293L3.52511 0.795371C3.1376 0.296846 2.61241 0.0151073 2.06485 0.0120062C1.51729 0.00890509 0.992101 0.284695 0.604585 0.778831Z" fill="white"/>
</svg>
