<svg width="18" height="36" viewBox="0 0 18 36" fill="none" xmlns="http://www.w3.org/2000/svg">
<path fill-rule="evenodd" clip-rule="evenodd" d="M16.7432 0.86992C16.9542 1.1167 17.1217 1.4093 17.2359 1.73098C17.3502 2.05267 17.409 2.39713 17.409 2.74467C17.409 3.09221 17.3502 3.436 17.2359 3.75639C17.1217 4.07679 16.9542 4.36749 16.7432 4.61188L5.37556 17.7762L16.7432 31.0692C16.9542 31.316 17.1217 31.6086 17.2359 31.9303C17.3502 32.252 17.409 32.5964 17.409 32.944C17.409 33.2915 17.3502 33.6353 17.2359 33.9557C17.1217 34.2761 16.9542 34.5668 16.7432 34.8112C16.3164 35.3051 15.7381 35.5806 15.1351 35.5772C14.5321 35.5738 13.9537 35.2917 13.527 34.793L0.666617 19.7523C0.4416 19.4901 0.266222 19.176 0.151879 18.8303C0.0375353 18.4846 -0.0132143 18.115 0.00292712 17.7457C-0.0132143 17.3763 0.0375353 17.0073 0.151879 16.6629C0.266222 16.3185 0.4416 16.0063 0.666617 15.7467L13.527 0.851705C13.9537 0.357791 14.5321 0.0823024 15.1351 0.0857175C15.7381 0.0891325 16.3164 0.371172 16.7432 0.86992Z" fill="black"/>
</svg>
