<svg width="29" height="29" viewBox="0 0 29 29" fill="none" xmlns="http://www.w3.org/2000/svg">
<path d="M15.3968 4.68713L17.9758 9.91213C18.0476 10.0575 18.1536 10.1833 18.2848 10.2786C18.416 10.3739 18.5683 10.4358 18.7288 10.4591L24.4948 11.2971C24.6795 11.324 24.853 11.4019 24.9957 11.5222C25.1384 11.6425 25.2446 11.8004 25.3022 11.9779C25.3598 12.1554 25.3667 12.3455 25.3219 12.5267C25.2771 12.7079 25.1825 12.8729 25.0488 13.0031L20.8758 17.0701C20.6398 17.3001 20.5328 17.6311 20.5878 17.9551L21.5728 23.6981C21.6043 23.882 21.5837 24.0711 21.5134 24.2439C21.4431 24.4167 21.3258 24.5664 21.1749 24.6761C21.0239 24.7857 20.8453 24.851 20.6592 24.8644C20.4731 24.8779 20.2869 24.839 20.1218 24.7521L14.9638 22.0401C14.8202 21.9648 14.6605 21.9254 14.4983 21.9254C14.3361 21.9254 14.1764 21.9648 14.0328 22.0401L8.8748 24.7521C8.70965 24.839 8.52351 24.8779 8.33741 24.8644C8.15131 24.851 7.97269 24.7857 7.82173 24.6761C7.67077 24.5664 7.5535 24.4167 7.48318 24.2439C7.41286 24.0711 7.39229 23.882 7.4238 23.6981L8.4088 17.9551C8.43622 17.7953 8.42433 17.6312 8.37415 17.477C8.32397 17.3229 8.23702 17.1832 8.1208 17.0701L3.9478 13.0031C3.81409 12.8729 3.7195 12.7079 3.67472 12.5267C3.62994 12.3455 3.63676 12.1554 3.6944 11.9779C3.75204 11.8004 3.85822 11.6425 4.0009 11.5222C4.14359 11.4019 4.3171 11.324 4.5018 11.2971L10.2678 10.4591C10.4283 10.4358 10.5806 10.3739 10.7118 10.2786C10.843 10.1833 10.949 10.0575 11.0208 9.91213L13.5998 4.68713C13.9698 3.94413 15.0298 3.94413 15.3968 4.68713Z" fill="black"/>
</svg>
