<svg width="41" height="41" viewBox="0 0 41 41" fill="none" xmlns="http://www.w3.org/2000/svg">
<g clip-path="url(#clip0_116_106)">
<path d="M36.5937 12.1975C36.6172 12.5492 36.6172 12.9025 36.6172 13.2575C36.6172 24.1025 28.3216 36.6075 13.1572 36.6075V36.6008C8.67789 36.6075 4.29066 35.3308 0.519653 32.9225C1.17104 33.0008 1.82578 33.0392 2.48219 33.0408C6.19626 33.0442 9.80317 31.8042 12.7219 29.5208C9.19365 29.4542 6.09914 27.1642 5.01908 23.8208C6.25487 24.0575 7.5275 24.0092 8.74153 23.6808C4.89349 22.9075 2.12719 19.5425 2.12719 15.6358C2.12719 15.6008 2.12719 15.5658 2.12719 15.5325C3.27423 16.1692 4.55691 16.5208 5.86973 16.5592C2.24608 14.1508 1.1275 9.35417 3.31609 5.60417C7.50238 10.7308 13.6797 13.8475 20.3091 14.1792C19.6443 11.3292 20.5536 8.3425 22.6936 6.3375C26.0142 3.22917 31.237 3.38917 34.3599 6.69417C36.2069 6.3325 37.9769 5.6575 39.5962 4.7025C38.9799 6.6025 37.6922 8.21584 35.9708 9.2425C37.6068 9.0475 39.2026 8.6125 40.708 7.94917C39.6012 9.5975 38.208 11.0358 36.5937 12.1975Z" fill="white"/>
</g>
<defs>
<clipPath id="clip0_116_106">
<rect width="40.1884" height="40" fill="white" transform="translate(0.519653 0.357422)"/>
</clipPath>
</defs>
</svg>
