<svg width="60" height="61" viewBox="0 0 60 61" fill="none" xmlns="http://www.w3.org/2000/svg">
<path d="M31.856 9.85867L37.1918 20.8492C37.3403 21.155 37.5597 21.4195 37.8311 21.62C38.1025 21.8204 38.4178 21.9508 38.7498 21.9998L50.6794 23.7625C51.0616 23.8189 51.4206 23.9829 51.7158 24.236C52.011 24.489 52.2306 24.821 52.3499 25.1944C52.4692 25.5678 52.4833 25.9677 52.3906 26.3488C52.298 26.7299 52.1023 27.077 51.8256 27.3509L43.1918 35.9057C42.7036 36.3895 42.4822 37.0857 42.596 37.7672L44.6339 49.8473C44.6991 50.2342 44.6566 50.6318 44.5111 50.9953C44.3656 51.3589 44.1229 51.6737 43.8106 51.9044C43.4983 52.1351 43.1287 52.2723 42.7437 52.3005C42.3587 52.3288 41.9735 52.247 41.6318 52.0644L30.9601 46.3598C30.663 46.2013 30.3325 46.1186 29.997 46.1186C29.6615 46.1186 29.331 46.2013 29.0339 46.3598L18.3622 52.0644C18.0205 52.247 17.6354 52.3288 17.2503 52.3005C16.8653 52.2723 16.4957 52.1351 16.1834 51.9044C15.8711 51.6737 15.6285 51.3589 15.483 50.9953C15.3375 50.6318 15.2949 50.2342 15.3601 49.8473L17.3981 37.7672C17.4548 37.4311 17.4302 37.0859 17.3264 36.7616C17.2226 36.4373 17.0427 36.1435 16.8022 35.9057L8.1684 27.3509C7.89177 27.077 7.69606 26.7299 7.60341 26.3488C7.51076 25.9677 7.52486 25.5678 7.64413 25.1944C7.76339 24.821 7.98305 24.489 8.27827 24.236C8.57348 23.9829 8.93247 23.8189 9.3146 23.7625L21.2443 21.9998C21.5762 21.9508 21.8915 21.8204 22.1629 21.62C22.4343 21.4195 22.6537 21.155 22.8022 20.8492L28.1381 9.85867C28.9036 8.29581 31.0967 8.29581 31.856 9.85867Z" fill="white"/>
</svg>
